<?xml version="1.0" encoding="utf-8" standalone="no"?>
<!DOCTYPE svg PUBLIC "-//W3C//DTD SVG 1.1//EN"
  "http://www.w3.org/Graphics/SVG/1.1/DTD/svg11.dtd">
<!-- Created with matplotlib (http://matplotlib.org/) -->
<svg height="648pt" version="1.1" viewBox="0 0 720 648" width="720pt" xmlns="http://www.w3.org/2000/svg" xmlns:xlink="http://www.w3.org/1999/xlink">
 <defs>
  <style type="text/css">
*{stroke-linecap:butt;stroke-linejoin:round;stroke-miterlimit:100000;}
  </style>
 </defs>
 <g id="figure_1">
  <g id="patch_1">
   <path d="M 0 648 
L 720 648 
L 720 0 
L 0 0 
z
" style="fill:#ffffff;"/>
  </g>
  <g id="axes_1">
   <g id="patch_2">
    <path d="M 138.359111 439.340889 
L 702.72 439.340889 
L 702.72 90.18 
L 138.359111 90.18 
z
" style="fill:#ffffff;"/>
   </g>
   <g id="patch_3">
    <path clip-path="url(#pba6e3c3480)" d="M 251.231289 439.340889 
L 251.231289 90.18 
L 364.103467 90.18 
L 364.103467 439.340889 
z
" style="fill:#cccccc;stroke:#cccccc;stroke-linejoin:miter;"/>
   </g>
   <g id="patch_4">
    <path clip-path="url(#pba6e3c3480)" d="M 476.975644 439.340889 
L 476.975644 90.18 
L 589.847822 90.18 
L 589.847822 439.340889 
z
" style="fill:#cccccc;stroke:#cccccc;stroke-linejoin:miter;"/>
   </g>
   <g id="patch_5">
    <path clip-path="url(#pba6e3c3480)" d="M 149.646329 90.18 
L 172.220764 90.18 
L 172.220764 90.18 
L 149.646329 90.18 
z
" style="fill:#0055c9;stroke:#000000;stroke-linejoin:miter;stroke-width:0.5;"/>
   </g>
   <g id="patch_6">
    <path clip-path="url(#pba6e3c3480)" d="M 262.518507 231.660461 
L 285.092942 231.660461 
L 285.092942 90.18 
L 262.518507 90.18 
z
" style="fill:#0055c9;stroke:#000000;stroke-linejoin:miter;stroke-width:0.5;"/>
   </g>
   <g id="patch_7">
    <path clip-path="url(#pba6e3c3480)" d="M 375.390684 308.171019 
L 397.96512 308.171019 
L 397.96512 90.18 
L 375.390684 90.18 
z
" style="fill:#0055c9;stroke:#000000;stroke-linejoin:miter;stroke-width:0.5;"/>
   </g>
   <g id="patch_8">
    <path clip-path="url(#pba6e3c3480)" d="M 488.262862 235.854127 
L 510.837298 235.854127 
L 510.837298 90.18 
L 488.262862 90.18 
z
" style="fill:#0055c9;stroke:#000000;stroke-linejoin:miter;stroke-width:0.5;"/>
   </g>
   <g id="patch_9">
    <path clip-path="url(#pba6e3c3480)" d="M 601.13504 224.299074 
L 623.709476 224.299074 
L 623.709476 90.18 
L 601.13504 90.18 
z
" style="fill:#0055c9;stroke:#000000;stroke-linejoin:miter;stroke-width:0.5;"/>
   </g>
   <g id="patch_10">
    <path clip-path="url(#pba6e3c3480)" d="M 172.220764 439.340889 
L 194.7952 439.340889 
L 194.7952 90.18 
L 172.220764 90.18 
z
" style="fill:#a5cf00;stroke:#000000;stroke-linejoin:miter;stroke-width:0.5;"/>
   </g>
   <g id="patch_11">
    <path clip-path="url(#pba6e3c3480)" d="M 285.092942 437.583368 
L 307.667378 437.583368 
L 307.667378 90.18 
L 285.092942 90.18 
z
" style="fill:#a5cf00;stroke:#000000;stroke-linejoin:miter;stroke-width:0.5;"/>
   </g>
   <g id="patch_12">
    <path clip-path="url(#pba6e3c3480)" d="M 397.96512 439.309876 
L 420.539555 439.309876 
L 420.539555 90.18 
L 397.96512 90.18 
z
" style="fill:#a5cf00;stroke:#000000;stroke-linejoin:miter;stroke-width:0.5;"/>
   </g>
   <g id="patch_13">
    <path clip-path="url(#pba6e3c3480)" d="M 510.837298 438.312601 
L 533.411733 438.312601 
L 533.411733 90.18 
L 510.837298 90.18 
z
" style="fill:#a5cf00;stroke:#000000;stroke-linejoin:miter;stroke-width:0.5;"/>
   </g>
   <g id="patch_14">
    <path clip-path="url(#pba6e3c3480)" d="M 623.709476 439.320621 
L 646.283911 439.320621 
L 646.283911 90.18 
L 623.709476 90.18 
z
" style="fill:#a5cf00;stroke:#000000;stroke-linejoin:miter;stroke-width:0.5;"/>
   </g>
   <g id="patch_15">
    <path clip-path="url(#pba6e3c3480)" d="M 194.7952 90.18 
L 217.369635 90.18 
L 217.369635 90.18 
L 194.7952 90.18 
z
" style="fill:#333333;stroke:#000000;stroke-linejoin:miter;stroke-width:0.5;"/>
   </g>
   <g id="patch_16">
    <path clip-path="url(#pba6e3c3480)" d="M 307.667378 92.816282 
L 330.241813 92.816282 
L 330.241813 90.18 
L 307.667378 90.18 
z
" style="fill:#333333;stroke:#000000;stroke-linejoin:miter;stroke-width:0.5;"/>
   </g>
   <g id="patch_17">
    <path clip-path="url(#pba6e3c3480)" d="M 420.539555 91.622109 
L 443.113991 91.622109 
L 443.113991 90.18 
L 420.539555 90.18 
z
" style="fill:#333333;stroke:#000000;stroke-linejoin:miter;stroke-width:0.5;"/>
   </g>
   <g id="patch_18">
    <path clip-path="url(#pba6e3c3480)" d="M 533.411733 121.828418 
L 555.986169 121.828418 
L 555.986169 90.18 
L 533.411733 90.18 
z
" style="fill:#333333;stroke:#000000;stroke-linejoin:miter;stroke-width:0.5;"/>
   </g>
   <g id="patch_19">
    <path clip-path="url(#pba6e3c3480)" d="M 646.283911 93.351917 
L 668.858347 93.351917 
L 668.858347 90.18 
L 646.283911 90.18 
z
" style="fill:#333333;stroke:#000000;stroke-linejoin:miter;stroke-width:0.5;"/>
   </g>
   <g id="patch_20">
    <path clip-path="url(#pba6e3c3480)" d="M 217.369635 90.18 
L 239.944071 90.18 
L 239.944071 90.18 
L 217.369635 90.18 
z
" style="fill:#dddddd;stroke:#000000;stroke-linejoin:miter;stroke-width:0.5;"/>
   </g>
   <g id="patch_21">
    <path clip-path="url(#pba6e3c3480)" d="M 330.241813 223.751615 
L 352.816249 223.751615 
L 352.816249 90.18 
L 330.241813 90.18 
z
" style="fill:#dddddd;stroke:#000000;stroke-linejoin:miter;stroke-width:0.5;"/>
   </g>
   <g id="patch_22">
    <path clip-path="url(#pba6e3c3480)" d="M 443.113991 165.603838 
L 465.688427 165.603838 
L 465.688427 90.18 
L 443.113991 90.18 
z
" style="fill:#dddddd;stroke:#000000;stroke-linejoin:miter;stroke-width:0.5;"/>
   </g>
   <g id="patch_23">
    <path clip-path="url(#pba6e3c3480)" d="M 555.986169 166.387563 
L 578.560604 166.387563 
L 578.560604 90.18 
L 555.986169 90.18 
z
" style="fill:#dddddd;stroke:#000000;stroke-linejoin:miter;stroke-width:0.5;"/>
   </g>
   <g id="patch_24">
    <path clip-path="url(#pba6e3c3480)" d="M 668.858347 173.511237 
L 691.432782 173.511237 
L 691.432782 90.18 
L 668.858347 90.18 
z
" style="fill:#dddddd;stroke:#000000;stroke-linejoin:miter;stroke-width:0.5;"/>
   </g>
   <g id="patch_25">
    <path d="M 138.359111 90.18 
L 702.72 90.18 
" style="fill:none;stroke:#000000;stroke-linecap:square;stroke-linejoin:miter;"/>
   </g>
   <g id="patch_26">
    <path d="M 702.72 439.340889 
L 702.72 90.18 
" style="fill:none;stroke:#000000;stroke-linecap:square;stroke-linejoin:miter;"/>
   </g>
   <g id="patch_27">
    <path d="M 138.359111 439.340889 
L 702.72 439.340889 
" style="fill:none;stroke:#000000;stroke-linecap:square;stroke-linejoin:miter;"/>
   </g>
   <g id="patch_28">
    <path d="M 138.359111 439.340889 
L 138.359111 90.18 
" style="fill:none;stroke:#000000;stroke-linecap:square;stroke-linejoin:miter;"/>
   </g>
   <g id="matplotlib.axis_1">
    <g id="xtick_1">
     <g id="line2d_1">
      <defs>
       <path d="M 0 0 
L 0 -4 
" id="mdc9e8ea389" style="stroke:#000000;stroke-width:0.5;"/>
      </defs>
      <g>
       <use style="stroke:#000000;stroke-width:0.5;" x="194.795199882" xlink:href="#mdc9e8ea389" y="439.34088902"/>
      </g>
     </g>
     <g id="line2d_2">
      <defs>
       <path d="M 0 0 
L 0 4 
" id="m7067a3b8ac" style="stroke:#000000;stroke-width:0.5;"/>
      </defs>
      <g>
       <use style="stroke:#000000;stroke-width:0.5;" x="194.795199882" xlink:href="#m7067a3b8ac" y="90.18"/>
      </g>
     </g>
     <g id="text_1">
      <!-- so #tp=2 #ds=1 sel=0.001 -->
      <defs>
       <path d="M 19.1875 8.296875 
L 53.609375 8.296875 
L 53.609375 0 
L 7.328125 0 
L 7.328125 8.296875 
Q 12.9375 14.109375 22.625 23.890625 
Q 32.328125 33.6875 34.8125 36.53125 
Q 39.546875 41.84375 41.421875 45.53125 
Q 43.3125 49.21875 43.3125 52.78125 
Q 43.3125 58.59375 39.234375 62.25 
Q 35.15625 65.921875 28.609375 65.921875 
Q 23.96875 65.921875 18.8125 64.3125 
Q 13.671875 62.703125 7.8125 59.421875 
L 7.8125 69.390625 
Q 13.765625 71.78125 18.9375 73 
Q 24.125 74.21875 28.421875 74.21875 
Q 39.75 74.21875 46.484375 68.546875 
Q 53.21875 62.890625 53.21875 53.421875 
Q 53.21875 48.921875 51.53125 44.890625 
Q 49.859375 40.875 45.40625 35.40625 
Q 44.1875 33.984375 37.640625 27.21875 
Q 31.109375 20.453125 19.1875 8.296875 
" id="BitstreamVeraSans-Roman-32"/>
       <path id="BitstreamVeraSans-Roman-20"/>
       <path d="M 51.125 44 
L 36.921875 44 
L 32.8125 27.6875 
L 47.125 27.6875 
z
M 43.796875 71.78125 
L 38.71875 51.515625 
L 52.984375 51.515625 
L 58.109375 71.78125 
L 65.921875 71.78125 
L 60.890625 51.515625 
L 76.125 51.515625 
L 76.125 44 
L 58.984375 44 
L 54.984375 27.6875 
L 70.515625 27.6875 
L 70.515625 20.21875 
L 53.078125 20.21875 
L 48 0 
L 40.1875 0 
L 45.21875 20.21875 
L 30.90625 20.21875 
L 25.875 0 
L 18.015625 0 
L 23.09375 20.21875 
L 7.71875 20.21875 
L 7.71875 27.6875 
L 24.90625 27.6875 
L 29 44 
L 13.28125 44 
L 13.28125 51.515625 
L 30.90625 51.515625 
L 35.890625 71.78125 
z
" id="BitstreamVeraSans-Roman-23"/>
       <path d="M 12.40625 8.296875 
L 28.515625 8.296875 
L 28.515625 63.921875 
L 10.984375 60.40625 
L 10.984375 69.390625 
L 28.421875 72.90625 
L 38.28125 72.90625 
L 38.28125 8.296875 
L 54.390625 8.296875 
L 54.390625 0 
L 12.40625 0 
z
" id="BitstreamVeraSans-Roman-31"/>
       <path d="M 30.609375 48.390625 
Q 23.390625 48.390625 19.1875 42.75 
Q 14.984375 37.109375 14.984375 27.296875 
Q 14.984375 17.484375 19.15625 11.84375 
Q 23.34375 6.203125 30.609375 6.203125 
Q 37.796875 6.203125 41.984375 11.859375 
Q 46.1875 17.53125 46.1875 27.296875 
Q 46.1875 37.015625 41.984375 42.703125 
Q 37.796875 48.390625 30.609375 48.390625 
M 30.609375 56 
Q 42.328125 56 49.015625 48.375 
Q 55.71875 40.765625 55.71875 27.296875 
Q 55.71875 13.875 49.015625 6.21875 
Q 42.328125 -1.421875 30.609375 -1.421875 
Q 18.84375 -1.421875 12.171875 6.21875 
Q 5.515625 13.875 5.515625 27.296875 
Q 5.515625 40.765625 12.171875 48.375 
Q 18.84375 56 30.609375 56 
" id="BitstreamVeraSans-Roman-6f"/>
       <path d="M 31.78125 66.40625 
Q 24.171875 66.40625 20.328125 58.90625 
Q 16.5 51.421875 16.5 36.375 
Q 16.5 21.390625 20.328125 13.890625 
Q 24.171875 6.390625 31.78125 6.390625 
Q 39.453125 6.390625 43.28125 13.890625 
Q 47.125 21.390625 47.125 36.375 
Q 47.125 51.421875 43.28125 58.90625 
Q 39.453125 66.40625 31.78125 66.40625 
M 31.78125 74.21875 
Q 44.046875 74.21875 50.515625 64.515625 
Q 56.984375 54.828125 56.984375 36.375 
Q 56.984375 17.96875 50.515625 8.265625 
Q 44.046875 -1.421875 31.78125 -1.421875 
Q 19.53125 -1.421875 13.0625 8.265625 
Q 6.59375 17.96875 6.59375 36.375 
Q 6.59375 54.828125 13.0625 64.515625 
Q 19.53125 74.21875 31.78125 74.21875 
" id="BitstreamVeraSans-Roman-30"/>
       <path d="M 9.421875 75.984375 
L 18.40625 75.984375 
L 18.40625 0 
L 9.421875 0 
z
" id="BitstreamVeraSans-Roman-6c"/>
       <path d="M 10.6875 12.40625 
L 21 12.40625 
L 21 0 
L 10.6875 0 
z
" id="BitstreamVeraSans-Roman-2e"/>
       <path d="M 10.59375 45.40625 
L 73.1875 45.40625 
L 73.1875 37.203125 
L 10.59375 37.203125 
z
M 10.59375 25.484375 
L 73.1875 25.484375 
L 73.1875 17.1875 
L 10.59375 17.1875 
z
" id="BitstreamVeraSans-Roman-3d"/>
       <path d="M 56.203125 29.59375 
L 56.203125 25.203125 
L 14.890625 25.203125 
Q 15.484375 15.921875 20.484375 11.0625 
Q 25.484375 6.203125 34.421875 6.203125 
Q 39.59375 6.203125 44.453125 7.46875 
Q 49.3125 8.734375 54.109375 11.28125 
L 54.109375 2.78125 
Q 49.265625 0.734375 44.1875 -0.34375 
Q 39.109375 -1.421875 33.890625 -1.421875 
Q 20.796875 -1.421875 13.15625 6.1875 
Q 5.515625 13.8125 5.515625 26.8125 
Q 5.515625 40.234375 12.765625 48.109375 
Q 20.015625 56 32.328125 56 
Q 43.359375 56 49.78125 48.890625 
Q 56.203125 41.796875 56.203125 29.59375 
M 47.21875 32.234375 
Q 47.125 39.59375 43.09375 43.984375 
Q 39.0625 48.390625 32.421875 48.390625 
Q 24.90625 48.390625 20.390625 44.140625 
Q 15.875 39.890625 15.1875 32.171875 
z
" id="BitstreamVeraSans-Roman-65"/>
       <path d="M 45.40625 46.390625 
L 45.40625 75.984375 
L 54.390625 75.984375 
L 54.390625 0 
L 45.40625 0 
L 45.40625 8.203125 
Q 42.578125 3.328125 38.25 0.953125 
Q 33.9375 -1.421875 27.875 -1.421875 
Q 17.96875 -1.421875 11.734375 6.484375 
Q 5.515625 14.40625 5.515625 27.296875 
Q 5.515625 40.1875 11.734375 48.09375 
Q 17.96875 56 27.875 56 
Q 33.9375 56 38.25 53.625 
Q 42.578125 51.265625 45.40625 46.390625 
M 14.796875 27.296875 
Q 14.796875 17.390625 18.875 11.75 
Q 22.953125 6.109375 30.078125 6.109375 
Q 37.203125 6.109375 41.296875 11.75 
Q 45.40625 17.390625 45.40625 27.296875 
Q 45.40625 37.203125 41.296875 42.84375 
Q 37.203125 48.484375 30.078125 48.484375 
Q 22.953125 48.484375 18.875 42.84375 
Q 14.796875 37.203125 14.796875 27.296875 
" id="BitstreamVeraSans-Roman-64"/>
       <path d="M 18.3125 70.21875 
L 18.3125 54.6875 
L 36.8125 54.6875 
L 36.8125 47.703125 
L 18.3125 47.703125 
L 18.3125 18.015625 
Q 18.3125 11.328125 20.140625 9.421875 
Q 21.96875 7.515625 27.59375 7.515625 
L 36.8125 7.515625 
L 36.8125 0 
L 27.59375 0 
Q 17.1875 0 13.234375 3.875 
Q 9.28125 7.765625 9.28125 18.015625 
L 9.28125 47.703125 
L 2.6875 47.703125 
L 2.6875 54.6875 
L 9.28125 54.6875 
L 9.28125 70.21875 
z
" id="BitstreamVeraSans-Roman-74"/>
       <path d="M 44.28125 53.078125 
L 44.28125 44.578125 
Q 40.484375 46.53125 36.375 47.5 
Q 32.28125 48.484375 27.875 48.484375 
Q 21.1875 48.484375 17.84375 46.4375 
Q 14.5 44.390625 14.5 40.28125 
Q 14.5 37.15625 16.890625 35.375 
Q 19.28125 33.59375 26.515625 31.984375 
L 29.59375 31.296875 
Q 39.15625 29.25 43.1875 25.515625 
Q 47.21875 21.78125 47.21875 15.09375 
Q 47.21875 7.46875 41.1875 3.015625 
Q 35.15625 -1.421875 24.609375 -1.421875 
Q 20.21875 -1.421875 15.453125 -0.5625 
Q 10.6875 0.296875 5.421875 2 
L 5.421875 11.28125 
Q 10.40625 8.6875 15.234375 7.390625 
Q 20.0625 6.109375 24.8125 6.109375 
Q 31.15625 6.109375 34.5625 8.28125 
Q 37.984375 10.453125 37.984375 14.40625 
Q 37.984375 18.0625 35.515625 20.015625 
Q 33.0625 21.96875 24.703125 23.78125 
L 21.578125 24.515625 
Q 13.234375 26.265625 9.515625 29.90625 
Q 5.8125 33.546875 5.8125 39.890625 
Q 5.8125 47.609375 11.28125 51.796875 
Q 16.75 56 26.8125 56 
Q 31.78125 56 36.171875 55.265625 
Q 40.578125 54.546875 44.28125 53.078125 
" id="BitstreamVeraSans-Roman-73"/>
       <path d="M 18.109375 8.203125 
L 18.109375 -20.796875 
L 9.078125 -20.796875 
L 9.078125 54.6875 
L 18.109375 54.6875 
L 18.109375 46.390625 
Q 20.953125 51.265625 25.265625 53.625 
Q 29.59375 56 35.59375 56 
Q 45.5625 56 51.78125 48.09375 
Q 58.015625 40.1875 58.015625 27.296875 
Q 58.015625 14.40625 51.78125 6.484375 
Q 45.5625 -1.421875 35.59375 -1.421875 
Q 29.59375 -1.421875 25.265625 0.953125 
Q 20.953125 3.328125 18.109375 8.203125 
M 48.6875 27.296875 
Q 48.6875 37.203125 44.609375 42.84375 
Q 40.53125 48.484375 33.40625 48.484375 
Q 26.265625 48.484375 22.1875 42.84375 
Q 18.109375 37.203125 18.109375 27.296875 
Q 18.109375 17.390625 22.1875 11.75 
Q 26.265625 6.109375 33.40625 6.109375 
Q 40.53125 6.109375 44.609375 11.75 
Q 48.6875 17.390625 48.6875 27.296875 
" id="BitstreamVeraSans-Roman-70"/>
      </defs>
      <g transform="translate(33.9584592007 610.421382579)rotate(-45.0)scale(0.16 -0.16)">
       <use xlink:href="#BitstreamVeraSans-Roman-73"/>
       <use x="52.099609375" xlink:href="#BitstreamVeraSans-Roman-6f"/>
       <use x="113.28125" xlink:href="#BitstreamVeraSans-Roman-20"/>
       <use x="145.068359375" xlink:href="#BitstreamVeraSans-Roman-23"/>
       <use x="228.857421875" xlink:href="#BitstreamVeraSans-Roman-74"/>
       <use x="268.06640625" xlink:href="#BitstreamVeraSans-Roman-70"/>
       <use x="331.54296875" xlink:href="#BitstreamVeraSans-Roman-3d"/>
       <use x="415.33203125" xlink:href="#BitstreamVeraSans-Roman-32"/>
       <use x="478.955078125" xlink:href="#BitstreamVeraSans-Roman-20"/>
       <use x="510.7421875" xlink:href="#BitstreamVeraSans-Roman-23"/>
       <use x="594.53125" xlink:href="#BitstreamVeraSans-Roman-64"/>
       <use x="658.0078125" xlink:href="#BitstreamVeraSans-Roman-73"/>
       <use x="710.107421875" xlink:href="#BitstreamVeraSans-Roman-3d"/>
       <use x="793.896484375" xlink:href="#BitstreamVeraSans-Roman-31"/>
       <use x="857.51953125" xlink:href="#BitstreamVeraSans-Roman-20"/>
       <use x="889.306640625" xlink:href="#BitstreamVeraSans-Roman-73"/>
       <use x="941.40625" xlink:href="#BitstreamVeraSans-Roman-65"/>
       <use x="1002.9296875" xlink:href="#BitstreamVeraSans-Roman-6c"/>
       <use x="1030.71289062" xlink:href="#BitstreamVeraSans-Roman-3d"/>
       <use x="1114.50195312" xlink:href="#BitstreamVeraSans-Roman-30"/>
       <use x="1178.125" xlink:href="#BitstreamVeraSans-Roman-2e"/>
       <use x="1209.91210938" xlink:href="#BitstreamVeraSans-Roman-30"/>
       <use x="1273.53515625" xlink:href="#BitstreamVeraSans-Roman-30"/>
       <use x="1337.15820312" xlink:href="#BitstreamVeraSans-Roman-31"/>
      </g>
     </g>
    </g>
    <g id="xtick_2">
     <g id="line2d_3">
      <g>
       <use style="stroke:#000000;stroke-width:0.5;" x="307.667377686" xlink:href="#mdc9e8ea389" y="439.34088902"/>
      </g>
     </g>
     <g id="line2d_4">
      <g>
       <use style="stroke:#000000;stroke-width:0.5;" x="307.667377686" xlink:href="#m7067a3b8ac" y="90.18"/>
      </g>
     </g>
     <g id="text_2">
      <!-- so #tp=2 #ds=1 sel=0.01 -->
      <g transform="translate(154.028984037 603.223035547)rotate(-45.0)scale(0.16 -0.16)">
       <use xlink:href="#BitstreamVeraSans-Roman-73"/>
       <use x="52.099609375" xlink:href="#BitstreamVeraSans-Roman-6f"/>
       <use x="113.28125" xlink:href="#BitstreamVeraSans-Roman-20"/>
       <use x="145.068359375" xlink:href="#BitstreamVeraSans-Roman-23"/>
       <use x="228.857421875" xlink:href="#BitstreamVeraSans-Roman-74"/>
       <use x="268.06640625" xlink:href="#BitstreamVeraSans-Roman-70"/>
       <use x="331.54296875" xlink:href="#BitstreamVeraSans-Roman-3d"/>
       <use x="415.33203125" xlink:href="#BitstreamVeraSans-Roman-32"/>
       <use x="478.955078125" xlink:href="#BitstreamVeraSans-Roman-20"/>
       <use x="510.7421875" xlink:href="#BitstreamVeraSans-Roman-23"/>
       <use x="594.53125" xlink:href="#BitstreamVeraSans-Roman-64"/>
       <use x="658.0078125" xlink:href="#BitstreamVeraSans-Roman-73"/>
       <use x="710.107421875" xlink:href="#BitstreamVeraSans-Roman-3d"/>
       <use x="793.896484375" xlink:href="#BitstreamVeraSans-Roman-31"/>
       <use x="857.51953125" xlink:href="#BitstreamVeraSans-Roman-20"/>
       <use x="889.306640625" xlink:href="#BitstreamVeraSans-Roman-73"/>
       <use x="941.40625" xlink:href="#BitstreamVeraSans-Roman-65"/>
       <use x="1002.9296875" xlink:href="#BitstreamVeraSans-Roman-6c"/>
       <use x="1030.71289062" xlink:href="#BitstreamVeraSans-Roman-3d"/>
       <use x="1114.50195312" xlink:href="#BitstreamVeraSans-Roman-30"/>
       <use x="1178.125" xlink:href="#BitstreamVeraSans-Roman-2e"/>
       <use x="1209.91210938" xlink:href="#BitstreamVeraSans-Roman-30"/>
       <use x="1273.53515625" xlink:href="#BitstreamVeraSans-Roman-31"/>
      </g>
     </g>
    </g>
    <g id="xtick_3">
     <g id="line2d_5">
      <g>
       <use style="stroke:#000000;stroke-width:0.5;" x="420.53955549" xlink:href="#mdc9e8ea389" y="439.34088902"/>
      </g>
     </g>
     <g id="line2d_6">
      <g>
       <use style="stroke:#000000;stroke-width:0.5;" x="420.53955549" xlink:href="#m7067a3b8ac" y="90.18"/>
      </g>
     </g>
     <g id="text_3">
      <!-- so #tp=8 #ds=1 sel=0.001 -->
      <defs>
       <path d="M 31.78125 34.625 
Q 24.75 34.625 20.71875 30.859375 
Q 16.703125 27.09375 16.703125 20.515625 
Q 16.703125 13.921875 20.71875 10.15625 
Q 24.75 6.390625 31.78125 6.390625 
Q 38.8125 6.390625 42.859375 10.171875 
Q 46.921875 13.96875 46.921875 20.515625 
Q 46.921875 27.09375 42.890625 30.859375 
Q 38.875 34.625 31.78125 34.625 
M 21.921875 38.8125 
Q 15.578125 40.375 12.03125 44.71875 
Q 8.5 49.078125 8.5 55.328125 
Q 8.5 64.0625 14.71875 69.140625 
Q 20.953125 74.21875 31.78125 74.21875 
Q 42.671875 74.21875 48.875 69.140625 
Q 55.078125 64.0625 55.078125 55.328125 
Q 55.078125 49.078125 51.53125 44.71875 
Q 48 40.375 41.703125 38.8125 
Q 48.828125 37.15625 52.796875 32.3125 
Q 56.78125 27.484375 56.78125 20.515625 
Q 56.78125 9.90625 50.3125 4.234375 
Q 43.84375 -1.421875 31.78125 -1.421875 
Q 19.734375 -1.421875 13.25 4.234375 
Q 6.78125 9.90625 6.78125 20.515625 
Q 6.78125 27.484375 10.78125 32.3125 
Q 14.796875 37.15625 21.921875 38.8125 
M 18.3125 54.390625 
Q 18.3125 48.734375 21.84375 45.5625 
Q 25.390625 42.390625 31.78125 42.390625 
Q 38.140625 42.390625 41.71875 45.5625 
Q 45.3125 48.734375 45.3125 54.390625 
Q 45.3125 60.0625 41.71875 63.234375 
Q 38.140625 66.40625 31.78125 66.40625 
Q 25.390625 66.40625 21.84375 63.234375 
Q 18.3125 60.0625 18.3125 54.390625 
" id="BitstreamVeraSans-Roman-38"/>
      </defs>
      <g transform="translate(259.702814808 610.421382579)rotate(-45.0)scale(0.16 -0.16)">
       <use xlink:href="#BitstreamVeraSans-Roman-73"/>
       <use x="52.099609375" xlink:href="#BitstreamVeraSans-Roman-6f"/>
       <use x="113.28125" xlink:href="#BitstreamVeraSans-Roman-20"/>
       <use x="145.068359375" xlink:href="#BitstreamVeraSans-Roman-23"/>
       <use x="228.857421875" xlink:href="#BitstreamVeraSans-Roman-74"/>
       <use x="268.06640625" xlink:href="#BitstreamVeraSans-Roman-70"/>
       <use x="331.54296875" xlink:href="#BitstreamVeraSans-Roman-3d"/>
       <use x="415.33203125" xlink:href="#BitstreamVeraSans-Roman-38"/>
       <use x="478.955078125" xlink:href="#BitstreamVeraSans-Roman-20"/>
       <use x="510.7421875" xlink:href="#BitstreamVeraSans-Roman-23"/>
       <use x="594.53125" xlink:href="#BitstreamVeraSans-Roman-64"/>
       <use x="658.0078125" xlink:href="#BitstreamVeraSans-Roman-73"/>
       <use x="710.107421875" xlink:href="#BitstreamVeraSans-Roman-3d"/>
       <use x="793.896484375" xlink:href="#BitstreamVeraSans-Roman-31"/>
       <use x="857.51953125" xlink:href="#BitstreamVeraSans-Roman-20"/>
       <use x="889.306640625" xlink:href="#BitstreamVeraSans-Roman-73"/>
       <use x="941.40625" xlink:href="#BitstreamVeraSans-Roman-65"/>
       <use x="1002.9296875" xlink:href="#BitstreamVeraSans-Roman-6c"/>
       <use x="1030.71289062" xlink:href="#BitstreamVeraSans-Roman-3d"/>
       <use x="1114.50195312" xlink:href="#BitstreamVeraSans-Roman-30"/>
       <use x="1178.125" xlink:href="#BitstreamVeraSans-Roman-2e"/>
       <use x="1209.91210938" xlink:href="#BitstreamVeraSans-Roman-30"/>
       <use x="1273.53515625" xlink:href="#BitstreamVeraSans-Roman-30"/>
       <use x="1337.15820312" xlink:href="#BitstreamVeraSans-Roman-31"/>
      </g>
     </g>
    </g>
    <g id="xtick_4">
     <g id="line2d_7">
      <g>
       <use style="stroke:#000000;stroke-width:0.5;" x="533.411733294" xlink:href="#mdc9e8ea389" y="439.34088902"/>
      </g>
     </g>
     <g id="line2d_8">
      <g>
       <use style="stroke:#000000;stroke-width:0.5;" x="533.411733294" xlink:href="#m7067a3b8ac" y="90.18"/>
      </g>
     </g>
     <g id="text_4">
      <!-- so #tp=8 #ds=1 sel=0.01 -->
      <g transform="translate(379.773339645 603.223035547)rotate(-45.0)scale(0.16 -0.16)">
       <use xlink:href="#BitstreamVeraSans-Roman-73"/>
       <use x="52.099609375" xlink:href="#BitstreamVeraSans-Roman-6f"/>
       <use x="113.28125" xlink:href="#BitstreamVeraSans-Roman-20"/>
       <use x="145.068359375" xlink:href="#BitstreamVeraSans-Roman-23"/>
       <use x="228.857421875" xlink:href="#BitstreamVeraSans-Roman-74"/>
       <use x="268.06640625" xlink:href="#BitstreamVeraSans-Roman-70"/>
       <use x="331.54296875" xlink:href="#BitstreamVeraSans-Roman-3d"/>
       <use x="415.33203125" xlink:href="#BitstreamVeraSans-Roman-38"/>
       <use x="478.955078125" xlink:href="#BitstreamVeraSans-Roman-20"/>
       <use x="510.7421875" xlink:href="#BitstreamVeraSans-Roman-23"/>
       <use x="594.53125" xlink:href="#BitstreamVeraSans-Roman-64"/>
       <use x="658.0078125" xlink:href="#BitstreamVeraSans-Roman-73"/>
       <use x="710.107421875" xlink:href="#BitstreamVeraSans-Roman-3d"/>
       <use x="793.896484375" xlink:href="#BitstreamVeraSans-Roman-31"/>
       <use x="857.51953125" xlink:href="#BitstreamVeraSans-Roman-20"/>
       <use x="889.306640625" xlink:href="#BitstreamVeraSans-Roman-73"/>
       <use x="941.40625" xlink:href="#BitstreamVeraSans-Roman-65"/>
       <use x="1002.9296875" xlink:href="#BitstreamVeraSans-Roman-6c"/>
       <use x="1030.71289062" xlink:href="#BitstreamVeraSans-Roman-3d"/>
       <use x="1114.50195312" xlink:href="#BitstreamVeraSans-Roman-30"/>
       <use x="1178.125" xlink:href="#BitstreamVeraSans-Roman-2e"/>
       <use x="1209.91210938" xlink:href="#BitstreamVeraSans-Roman-30"/>
       <use x="1273.53515625" xlink:href="#BitstreamVeraSans-Roman-31"/>
      </g>
     </g>
    </g>
    <g id="xtick_5">
     <g id="line2d_9">
      <g>
       <use style="stroke:#000000;stroke-width:0.5;" x="646.283911098" xlink:href="#mdc9e8ea389" y="439.34088902"/>
      </g>
     </g>
     <g id="line2d_10">
      <g>
       <use style="stroke:#000000;stroke-width:0.5;" x="646.283911098" xlink:href="#m7067a3b8ac" y="90.18"/>
      </g>
     </g>
     <g id="text_5">
      <!-- so #tp=8 #ds=3 sel=0.01 -->
      <defs>
       <path d="M 40.578125 39.3125 
Q 47.65625 37.796875 51.625 33 
Q 55.609375 28.21875 55.609375 21.1875 
Q 55.609375 10.40625 48.1875 4.484375 
Q 40.765625 -1.421875 27.09375 -1.421875 
Q 22.515625 -1.421875 17.65625 -0.515625 
Q 12.796875 0.390625 7.625 2.203125 
L 7.625 11.71875 
Q 11.71875 9.328125 16.59375 8.109375 
Q 21.484375 6.890625 26.8125 6.890625 
Q 36.078125 6.890625 40.9375 10.546875 
Q 45.796875 14.203125 45.796875 21.1875 
Q 45.796875 27.640625 41.28125 31.265625 
Q 36.765625 34.90625 28.71875 34.90625 
L 20.21875 34.90625 
L 20.21875 43.015625 
L 29.109375 43.015625 
Q 36.375 43.015625 40.234375 45.921875 
Q 44.09375 48.828125 44.09375 54.296875 
Q 44.09375 59.90625 40.109375 62.90625 
Q 36.140625 65.921875 28.71875 65.921875 
Q 24.65625 65.921875 20.015625 65.03125 
Q 15.375 64.15625 9.8125 62.3125 
L 9.8125 71.09375 
Q 15.4375 72.65625 20.34375 73.4375 
Q 25.25 74.21875 29.59375 74.21875 
Q 40.828125 74.21875 47.359375 69.109375 
Q 53.90625 64.015625 53.90625 55.328125 
Q 53.90625 49.265625 50.4375 45.09375 
Q 46.96875 40.921875 40.578125 39.3125 
" id="BitstreamVeraSans-Roman-33"/>
      </defs>
      <g transform="translate(492.645517449 603.223035547)rotate(-45.0)scale(0.16 -0.16)">
       <use xlink:href="#BitstreamVeraSans-Roman-73"/>
       <use x="52.099609375" xlink:href="#BitstreamVeraSans-Roman-6f"/>
       <use x="113.28125" xlink:href="#BitstreamVeraSans-Roman-20"/>
       <use x="145.068359375" xlink:href="#BitstreamVeraSans-Roman-23"/>
       <use x="228.857421875" xlink:href="#BitstreamVeraSans-Roman-74"/>
       <use x="268.06640625" xlink:href="#BitstreamVeraSans-Roman-70"/>
       <use x="331.54296875" xlink:href="#BitstreamVeraSans-Roman-3d"/>
       <use x="415.33203125" xlink:href="#BitstreamVeraSans-Roman-38"/>
       <use x="478.955078125" xlink:href="#BitstreamVeraSans-Roman-20"/>
       <use x="510.7421875" xlink:href="#BitstreamVeraSans-Roman-23"/>
       <use x="594.53125" xlink:href="#BitstreamVeraSans-Roman-64"/>
       <use x="658.0078125" xlink:href="#BitstreamVeraSans-Roman-73"/>
       <use x="710.107421875" xlink:href="#BitstreamVeraSans-Roman-3d"/>
       <use x="793.896484375" xlink:href="#BitstreamVeraSans-Roman-33"/>
       <use x="857.51953125" xlink:href="#BitstreamVeraSans-Roman-20"/>
       <use x="889.306640625" xlink:href="#BitstreamVeraSans-Roman-73"/>
       <use x="941.40625" xlink:href="#BitstreamVeraSans-Roman-65"/>
       <use x="1002.9296875" xlink:href="#BitstreamVeraSans-Roman-6c"/>
       <use x="1030.71289062" xlink:href="#BitstreamVeraSans-Roman-3d"/>
       <use x="1114.50195312" xlink:href="#BitstreamVeraSans-Roman-30"/>
       <use x="1178.125" xlink:href="#BitstreamVeraSans-Roman-2e"/>
       <use x="1209.91210938" xlink:href="#BitstreamVeraSans-Roman-30"/>
       <use x="1273.53515625" xlink:href="#BitstreamVeraSans-Roman-31"/>
      </g>
     </g>
    </g>
    <g id="text_6">
     <!-- Queries -->
     <defs>
      <path d="M 39.40625 66.21875 
Q 28.65625 66.21875 22.328125 58.203125 
Q 16.015625 50.203125 16.015625 36.375 
Q 16.015625 22.609375 22.328125 14.59375 
Q 28.65625 6.59375 39.40625 6.59375 
Q 50.140625 6.59375 56.421875 14.59375 
Q 62.703125 22.609375 62.703125 36.375 
Q 62.703125 50.203125 56.421875 58.203125 
Q 50.140625 66.21875 39.40625 66.21875 
M 53.21875 1.3125 
L 66.21875 -12.890625 
L 54.296875 -12.890625 
L 43.5 -1.21875 
Q 41.890625 -1.3125 41.03125 -1.359375 
Q 40.1875 -1.421875 39.40625 -1.421875 
Q 24.03125 -1.421875 14.8125 8.859375 
Q 5.609375 19.140625 5.609375 36.375 
Q 5.609375 53.65625 14.8125 63.9375 
Q 24.03125 74.21875 39.40625 74.21875 
Q 54.734375 74.21875 63.90625 63.9375 
Q 73.09375 53.65625 73.09375 36.375 
Q 73.09375 23.6875 67.984375 14.640625 
Q 62.890625 5.609375 53.21875 1.3125 
" id="BitstreamVeraSans-Roman-51"/>
      <path d="M 9.421875 54.6875 
L 18.40625 54.6875 
L 18.40625 0 
L 9.421875 0 
z
M 9.421875 75.984375 
L 18.40625 75.984375 
L 18.40625 64.59375 
L 9.421875 64.59375 
z
" id="BitstreamVeraSans-Roman-69"/>
      <path d="M 8.5 21.578125 
L 8.5 54.6875 
L 17.484375 54.6875 
L 17.484375 21.921875 
Q 17.484375 14.15625 20.5 10.265625 
Q 23.53125 6.390625 29.59375 6.390625 
Q 36.859375 6.390625 41.078125 11.03125 
Q 45.3125 15.671875 45.3125 23.6875 
L 45.3125 54.6875 
L 54.296875 54.6875 
L 54.296875 0 
L 45.3125 0 
L 45.3125 8.40625 
Q 42.046875 3.421875 37.71875 1 
Q 33.40625 -1.421875 27.6875 -1.421875 
Q 18.265625 -1.421875 13.375 4.4375 
Q 8.5 10.296875 8.5 21.578125 
" id="BitstreamVeraSans-Roman-75"/>
      <path d="M 41.109375 46.296875 
Q 39.59375 47.171875 37.8125 47.578125 
Q 36.03125 48 33.890625 48 
Q 26.265625 48 22.1875 43.046875 
Q 18.109375 38.09375 18.109375 28.8125 
L 18.109375 0 
L 9.078125 0 
L 9.078125 54.6875 
L 18.109375 54.6875 
L 18.109375 46.1875 
Q 20.953125 51.171875 25.484375 53.578125 
Q 30.03125 56 36.53125 56 
Q 37.453125 56 38.578125 55.875 
Q 39.703125 55.765625 41.0625 55.515625 
z
" id="BitstreamVeraSans-Roman-72"/>
     </defs>
     <g transform="translate(389.64830549 626.431780394)scale(0.16 -0.16)">
      <use xlink:href="#BitstreamVeraSans-Roman-51"/>
      <use x="78.7109375" xlink:href="#BitstreamVeraSans-Roman-75"/>
      <use x="142.08984375" xlink:href="#BitstreamVeraSans-Roman-65"/>
      <use x="203.61328125" xlink:href="#BitstreamVeraSans-Roman-72"/>
      <use x="244.7265625" xlink:href="#BitstreamVeraSans-Roman-69"/>
      <use x="272.509765625" xlink:href="#BitstreamVeraSans-Roman-65"/>
      <use x="334.033203125" xlink:href="#BitstreamVeraSans-Roman-73"/>
     </g>
    </g>
   </g>
   <g id="matplotlib.axis_2">
    <g id="ytick_1">
     <g id="line2d_11">
      <defs>
       <path d="M 0 0 
L 4 0 
" id="m9d8b3952fc" style="stroke:#000000;stroke-width:0.5;"/>
      </defs>
      <g>
       <use style="stroke:#000000;stroke-width:0.5;" x="138.35911098" xlink:href="#m9d8b3952fc" y="439.34088902"/>
      </g>
     </g>
     <g id="line2d_12">
      <defs>
       <path d="M 0 0 
L -4 0 
" id="m8bb62f4e47" style="stroke:#000000;stroke-width:0.5;"/>
      </defs>
      <g>
       <use style="stroke:#000000;stroke-width:0.5;" x="702.72" xlink:href="#m8bb62f4e47" y="439.34088902"/>
      </g>
     </g>
     <g id="text_7">
      <!-- −100 -->
      <defs>
       <path d="M 10.59375 35.5 
L 73.1875 35.5 
L 73.1875 27.203125 
L 10.59375 27.203125 
z
" id="BitstreamVeraSans-Roman-2212"/>
      </defs>
      <g transform="translate(90.4116109805 443.75588902)scale(0.16 -0.16)">
       <use xlink:href="#BitstreamVeraSans-Roman-2212"/>
       <use x="83.7890625" xlink:href="#BitstreamVeraSans-Roman-31"/>
       <use x="147.412109375" xlink:href="#BitstreamVeraSans-Roman-30"/>
       <use x="211.03515625" xlink:href="#BitstreamVeraSans-Roman-30"/>
      </g>
     </g>
    </g>
    <g id="ytick_2">
     <g id="line2d_13">
      <g>
       <use style="stroke:#000000;stroke-width:0.5;" x="138.35911098" xlink:href="#m9d8b3952fc" y="369.508711216"/>
      </g>
     </g>
     <g id="line2d_14">
      <g>
       <use style="stroke:#000000;stroke-width:0.5;" x="702.72" xlink:href="#m8bb62f4e47" y="369.508711216"/>
      </g>
     </g>
     <g id="text_8">
      <!-- −80 -->
      <g transform="translate(100.59161098 373.923711216)scale(0.16 -0.16)">
       <use xlink:href="#BitstreamVeraSans-Roman-2212"/>
       <use x="83.7890625" xlink:href="#BitstreamVeraSans-Roman-38"/>
       <use x="147.412109375" xlink:href="#BitstreamVeraSans-Roman-30"/>
      </g>
     </g>
    </g>
    <g id="ytick_3">
     <g id="line2d_15">
      <g>
       <use style="stroke:#000000;stroke-width:0.5;" x="138.35911098" xlink:href="#m9d8b3952fc" y="299.676533412"/>
      </g>
     </g>
     <g id="line2d_16">
      <g>
       <use style="stroke:#000000;stroke-width:0.5;" x="702.72" xlink:href="#m8bb62f4e47" y="299.676533412"/>
      </g>
     </g>
     <g id="text_9">
      <!-- −60 -->
      <defs>
       <path d="M 33.015625 40.375 
Q 26.375 40.375 22.484375 35.828125 
Q 18.609375 31.296875 18.609375 23.390625 
Q 18.609375 15.53125 22.484375 10.953125 
Q 26.375 6.390625 33.015625 6.390625 
Q 39.65625 6.390625 43.53125 10.953125 
Q 47.40625 15.53125 47.40625 23.390625 
Q 47.40625 31.296875 43.53125 35.828125 
Q 39.65625 40.375 33.015625 40.375 
M 52.59375 71.296875 
L 52.59375 62.3125 
Q 48.875 64.0625 45.09375 64.984375 
Q 41.3125 65.921875 37.59375 65.921875 
Q 27.828125 65.921875 22.671875 59.328125 
Q 17.53125 52.734375 16.796875 39.40625 
Q 19.671875 43.65625 24.015625 45.921875 
Q 28.375 48.1875 33.59375 48.1875 
Q 44.578125 48.1875 50.953125 41.515625 
Q 57.328125 34.859375 57.328125 23.390625 
Q 57.328125 12.15625 50.6875 5.359375 
Q 44.046875 -1.421875 33.015625 -1.421875 
Q 20.359375 -1.421875 13.671875 8.265625 
Q 6.984375 17.96875 6.984375 36.375 
Q 6.984375 53.65625 15.1875 63.9375 
Q 23.390625 74.21875 37.203125 74.21875 
Q 40.921875 74.21875 44.703125 73.484375 
Q 48.484375 72.75 52.59375 71.296875 
" id="BitstreamVeraSans-Roman-36"/>
      </defs>
      <g transform="translate(100.59161098 304.091533412)scale(0.16 -0.16)">
       <use xlink:href="#BitstreamVeraSans-Roman-2212"/>
       <use x="83.7890625" xlink:href="#BitstreamVeraSans-Roman-36"/>
       <use x="147.412109375" xlink:href="#BitstreamVeraSans-Roman-30"/>
      </g>
     </g>
    </g>
    <g id="ytick_4">
     <g id="line2d_17">
      <g>
       <use style="stroke:#000000;stroke-width:0.5;" x="138.35911098" xlink:href="#m9d8b3952fc" y="229.844355608"/>
      </g>
     </g>
     <g id="line2d_18">
      <g>
       <use style="stroke:#000000;stroke-width:0.5;" x="702.72" xlink:href="#m8bb62f4e47" y="229.844355608"/>
      </g>
     </g>
     <g id="text_10">
      <!-- −40 -->
      <defs>
       <path d="M 37.796875 64.3125 
L 12.890625 25.390625 
L 37.796875 25.390625 
z
M 35.203125 72.90625 
L 47.609375 72.90625 
L 47.609375 25.390625 
L 58.015625 25.390625 
L 58.015625 17.1875 
L 47.609375 17.1875 
L 47.609375 0 
L 37.796875 0 
L 37.796875 17.1875 
L 4.890625 17.1875 
L 4.890625 26.703125 
z
" id="BitstreamVeraSans-Roman-34"/>
      </defs>
      <g transform="translate(100.59161098 234.259355608)scale(0.16 -0.16)">
       <use xlink:href="#BitstreamVeraSans-Roman-2212"/>
       <use x="83.7890625" xlink:href="#BitstreamVeraSans-Roman-34"/>
       <use x="147.412109375" xlink:href="#BitstreamVeraSans-Roman-30"/>
      </g>
     </g>
    </g>
    <g id="ytick_5">
     <g id="line2d_19">
      <g>
       <use style="stroke:#000000;stroke-width:0.5;" x="138.35911098" xlink:href="#m9d8b3952fc" y="160.012177804"/>
      </g>
     </g>
     <g id="line2d_20">
      <g>
       <use style="stroke:#000000;stroke-width:0.5;" x="702.72" xlink:href="#m8bb62f4e47" y="160.012177804"/>
      </g>
     </g>
     <g id="text_11">
      <!-- −20 -->
      <g transform="translate(100.59161098 164.427177804)scale(0.16 -0.16)">
       <use xlink:href="#BitstreamVeraSans-Roman-2212"/>
       <use x="83.7890625" xlink:href="#BitstreamVeraSans-Roman-32"/>
       <use x="147.412109375" xlink:href="#BitstreamVeraSans-Roman-30"/>
      </g>
     </g>
    </g>
    <g id="ytick_6">
     <g id="line2d_21">
      <g>
       <use style="stroke:#000000;stroke-width:0.5;" x="138.35911098" xlink:href="#m9d8b3952fc" y="90.18"/>
      </g>
     </g>
     <g id="line2d_22">
      <g>
       <use style="stroke:#000000;stroke-width:0.5;" x="702.72" xlink:href="#m8bb62f4e47" y="90.18"/>
      </g>
     </g>
     <g id="text_12">
      <!-- 0 -->
      <g transform="translate(124.17911098 94.595)scale(0.16 -0.16)">
       <use xlink:href="#BitstreamVeraSans-Roman-30"/>
      </g>
     </g>
    </g>
    <g id="text_13">
     <!-- # Transferred Packets -->
     <defs>
      <path d="M 54.890625 33.015625 
L 54.890625 0 
L 45.90625 0 
L 45.90625 32.71875 
Q 45.90625 40.484375 42.875 44.328125 
Q 39.84375 48.1875 33.796875 48.1875 
Q 26.515625 48.1875 22.3125 43.546875 
Q 18.109375 38.921875 18.109375 30.90625 
L 18.109375 0 
L 9.078125 0 
L 9.078125 54.6875 
L 18.109375 54.6875 
L 18.109375 46.1875 
Q 21.34375 51.125 25.703125 53.5625 
Q 30.078125 56 35.796875 56 
Q 45.21875 56 50.046875 50.171875 
Q 54.890625 44.34375 54.890625 33.015625 
" id="BitstreamVeraSans-Roman-6e"/>
      <path d="M 9.078125 75.984375 
L 18.109375 75.984375 
L 18.109375 31.109375 
L 44.921875 54.6875 
L 56.390625 54.6875 
L 27.390625 29.109375 
L 57.625 0 
L 45.90625 0 
L 18.109375 26.703125 
L 18.109375 0 
L 9.078125 0 
z
" id="BitstreamVeraSans-Roman-6b"/>
      <path d="M 19.671875 64.796875 
L 19.671875 37.40625 
L 32.078125 37.40625 
Q 38.96875 37.40625 42.71875 40.96875 
Q 46.484375 44.53125 46.484375 51.125 
Q 46.484375 57.671875 42.71875 61.234375 
Q 38.96875 64.796875 32.078125 64.796875 
z
M 9.8125 72.90625 
L 32.078125 72.90625 
Q 44.34375 72.90625 50.609375 67.359375 
Q 56.890625 61.8125 56.890625 51.125 
Q 56.890625 40.328125 50.609375 34.8125 
Q 44.34375 29.296875 32.078125 29.296875 
L 19.671875 29.296875 
L 19.671875 0 
L 9.8125 0 
z
" id="BitstreamVeraSans-Roman-50"/>
      <path d="M -0.296875 72.90625 
L 61.375 72.90625 
L 61.375 64.59375 
L 35.5 64.59375 
L 35.5 0 
L 25.59375 0 
L 25.59375 64.59375 
L -0.296875 64.59375 
z
" id="BitstreamVeraSans-Roman-54"/>
      <path d="M 37.109375 75.984375 
L 37.109375 68.5 
L 28.515625 68.5 
Q 23.6875 68.5 21.796875 66.546875 
Q 19.921875 64.59375 19.921875 59.515625 
L 19.921875 54.6875 
L 34.71875 54.6875 
L 34.71875 47.703125 
L 19.921875 47.703125 
L 19.921875 0 
L 10.890625 0 
L 10.890625 47.703125 
L 2.296875 47.703125 
L 2.296875 54.6875 
L 10.890625 54.6875 
L 10.890625 58.5 
Q 10.890625 67.625 15.140625 71.796875 
Q 19.390625 75.984375 28.609375 75.984375 
z
" id="BitstreamVeraSans-Roman-66"/>
      <path d="M 34.28125 27.484375 
Q 23.390625 27.484375 19.1875 25 
Q 14.984375 22.515625 14.984375 16.5 
Q 14.984375 11.71875 18.140625 8.90625 
Q 21.296875 6.109375 26.703125 6.109375 
Q 34.1875 6.109375 38.703125 11.40625 
Q 43.21875 16.703125 43.21875 25.484375 
L 43.21875 27.484375 
z
M 52.203125 31.203125 
L 52.203125 0 
L 43.21875 0 
L 43.21875 8.296875 
Q 40.140625 3.328125 35.546875 0.953125 
Q 30.953125 -1.421875 24.3125 -1.421875 
Q 15.921875 -1.421875 10.953125 3.296875 
Q 6 8.015625 6 15.921875 
Q 6 25.140625 12.171875 29.828125 
Q 18.359375 34.515625 30.609375 34.515625 
L 43.21875 34.515625 
L 43.21875 35.40625 
Q 43.21875 41.609375 39.140625 45 
Q 35.0625 48.390625 27.6875 48.390625 
Q 23 48.390625 18.546875 47.265625 
Q 14.109375 46.140625 10.015625 43.890625 
L 10.015625 52.203125 
Q 14.9375 54.109375 19.578125 55.046875 
Q 24.21875 56 28.609375 56 
Q 40.484375 56 46.34375 49.84375 
Q 52.203125 43.703125 52.203125 31.203125 
" id="BitstreamVeraSans-Roman-61"/>
      <path d="M 48.78125 52.59375 
L 48.78125 44.1875 
Q 44.96875 46.296875 41.140625 47.34375 
Q 37.3125 48.390625 33.40625 48.390625 
Q 24.65625 48.390625 19.8125 42.84375 
Q 14.984375 37.3125 14.984375 27.296875 
Q 14.984375 17.28125 19.8125 11.734375 
Q 24.65625 6.203125 33.40625 6.203125 
Q 37.3125 6.203125 41.140625 7.25 
Q 44.96875 8.296875 48.78125 10.40625 
L 48.78125 2.09375 
Q 45.015625 0.34375 40.984375 -0.53125 
Q 36.96875 -1.421875 32.421875 -1.421875 
Q 20.0625 -1.421875 12.78125 6.34375 
Q 5.515625 14.109375 5.515625 27.296875 
Q 5.515625 40.671875 12.859375 48.328125 
Q 20.21875 56 33.015625 56 
Q 37.15625 56 41.109375 55.140625 
Q 45.0625 54.296875 48.78125 52.59375 
" id="BitstreamVeraSans-Roman-63"/>
     </defs>
     <g transform="translate(67.6676109805 354.13544451)rotate(-90.0)scale(0.16 -0.16)">
      <use xlink:href="#BitstreamVeraSans-Roman-23"/>
      <use x="83.7890625" xlink:href="#BitstreamVeraSans-Roman-20"/>
      <use x="115.576171875" xlink:href="#BitstreamVeraSans-Roman-54"/>
      <use x="176.44140625" xlink:href="#BitstreamVeraSans-Roman-72"/>
      <use x="217.5546875" xlink:href="#BitstreamVeraSans-Roman-61"/>
      <use x="278.833984375" xlink:href="#BitstreamVeraSans-Roman-6e"/>
      <use x="342.212890625" xlink:href="#BitstreamVeraSans-Roman-73"/>
      <use x="394.3125" xlink:href="#BitstreamVeraSans-Roman-66"/>
      <use x="429.517578125" xlink:href="#BitstreamVeraSans-Roman-65"/>
      <use x="491.041015625" xlink:href="#BitstreamVeraSans-Roman-72"/>
      <use x="532.138671875" xlink:href="#BitstreamVeraSans-Roman-72"/>
      <use x="573.220703125" xlink:href="#BitstreamVeraSans-Roman-65"/>
      <use x="634.744140625" xlink:href="#BitstreamVeraSans-Roman-64"/>
      <use x="698.220703125" xlink:href="#BitstreamVeraSans-Roman-20"/>
      <use x="730.0078125" xlink:href="#BitstreamVeraSans-Roman-50"/>
      <use x="790.248046875" xlink:href="#BitstreamVeraSans-Roman-61"/>
      <use x="851.52734375" xlink:href="#BitstreamVeraSans-Roman-63"/>
      <use x="906.5078125" xlink:href="#BitstreamVeraSans-Roman-6b"/>
      <use x="964.37109375" xlink:href="#BitstreamVeraSans-Roman-65"/>
      <use x="1025.89453125" xlink:href="#BitstreamVeraSans-Roman-74"/>
      <use x="1065.10351562" xlink:href="#BitstreamVeraSans-Roman-73"/>
     </g>
     <!-- (change to HASH in %) -->
     <defs>
      <path d="M 72.703125 32.078125 
Q 68.453125 32.078125 66.03125 28.46875 
Q 63.625 24.859375 63.625 18.40625 
Q 63.625 12.0625 66.03125 8.421875 
Q 68.453125 4.78125 72.703125 4.78125 
Q 76.859375 4.78125 79.265625 8.421875 
Q 81.6875 12.0625 81.6875 18.40625 
Q 81.6875 24.8125 79.265625 28.4375 
Q 76.859375 32.078125 72.703125 32.078125 
M 72.703125 38.28125 
Q 80.421875 38.28125 84.953125 32.90625 
Q 89.5 27.546875 89.5 18.40625 
Q 89.5 9.28125 84.9375 3.921875 
Q 80.375 -1.421875 72.703125 -1.421875 
Q 64.890625 -1.421875 60.34375 3.921875 
Q 55.8125 9.28125 55.8125 18.40625 
Q 55.8125 27.59375 60.375 32.9375 
Q 64.9375 38.28125 72.703125 38.28125 
M 22.3125 68.015625 
Q 18.109375 68.015625 15.6875 64.375 
Q 13.28125 60.75 13.28125 54.390625 
Q 13.28125 47.953125 15.671875 44.328125 
Q 18.0625 40.71875 22.3125 40.71875 
Q 26.5625 40.71875 28.96875 44.328125 
Q 31.390625 47.953125 31.390625 54.390625 
Q 31.390625 60.6875 28.953125 64.34375 
Q 26.515625 68.015625 22.3125 68.015625 
M 66.40625 74.21875 
L 74.21875 74.21875 
L 28.609375 -1.421875 
L 20.796875 -1.421875 
z
M 22.3125 74.21875 
Q 30.03125 74.21875 34.609375 68.875 
Q 39.203125 63.53125 39.203125 54.390625 
Q 39.203125 45.171875 34.640625 39.84375 
Q 30.078125 34.515625 22.3125 34.515625 
Q 14.546875 34.515625 10.03125 39.859375 
Q 5.515625 45.21875 5.515625 54.390625 
Q 5.515625 63.484375 10.046875 68.84375 
Q 14.59375 74.21875 22.3125 74.21875 
" id="BitstreamVeraSans-Roman-25"/>
      <path d="M 8.015625 75.875 
L 15.828125 75.875 
Q 23.140625 64.359375 26.78125 53.3125 
Q 30.421875 42.28125 30.421875 31.390625 
Q 30.421875 20.453125 26.78125 9.375 
Q 23.140625 -1.703125 15.828125 -13.1875 
L 8.015625 -13.1875 
Q 14.5 -2 17.703125 9.0625 
Q 20.90625 20.125 20.90625 31.390625 
Q 20.90625 42.671875 17.703125 53.65625 
Q 14.5 64.65625 8.015625 75.875 
" id="BitstreamVeraSans-Roman-29"/>
      <path d="M 31 75.875 
Q 24.46875 64.65625 21.28125 53.65625 
Q 18.109375 42.671875 18.109375 31.390625 
Q 18.109375 20.125 21.3125 9.0625 
Q 24.515625 -2 31 -13.1875 
L 23.1875 -13.1875 
Q 15.875 -1.703125 12.234375 9.375 
Q 8.59375 20.453125 8.59375 31.390625 
Q 8.59375 42.28125 12.203125 53.3125 
Q 15.828125 64.359375 23.1875 75.875 
z
" id="BitstreamVeraSans-Roman-28"/>
      <path d="M 53.515625 70.515625 
L 53.515625 60.890625 
Q 47.90625 63.578125 42.921875 64.890625 
Q 37.9375 66.21875 33.296875 66.21875 
Q 25.25 66.21875 20.875 63.09375 
Q 16.5 59.96875 16.5 54.203125 
Q 16.5 49.359375 19.40625 46.890625 
Q 22.3125 44.4375 30.421875 42.921875 
L 36.375 41.703125 
Q 47.40625 39.59375 52.65625 34.296875 
Q 57.90625 29 57.90625 20.125 
Q 57.90625 9.515625 50.796875 4.046875 
Q 43.703125 -1.421875 29.984375 -1.421875 
Q 24.8125 -1.421875 18.96875 -0.25 
Q 13.140625 0.921875 6.890625 3.21875 
L 6.890625 13.375 
Q 12.890625 10.015625 18.65625 8.296875 
Q 24.421875 6.59375 29.984375 6.59375 
Q 38.421875 6.59375 43.015625 9.90625 
Q 47.609375 13.234375 47.609375 19.390625 
Q 47.609375 24.75 44.3125 27.78125 
Q 41.015625 30.8125 33.5 32.328125 
L 27.484375 33.5 
Q 16.453125 35.6875 11.515625 40.375 
Q 6.59375 45.0625 6.59375 53.421875 
Q 6.59375 63.09375 13.40625 68.65625 
Q 20.21875 74.21875 32.171875 74.21875 
Q 37.3125 74.21875 42.625 73.28125 
Q 47.953125 72.359375 53.515625 70.515625 
" id="BitstreamVeraSans-Roman-53"/>
      <path d="M 54.890625 33.015625 
L 54.890625 0 
L 45.90625 0 
L 45.90625 32.71875 
Q 45.90625 40.484375 42.875 44.328125 
Q 39.84375 48.1875 33.796875 48.1875 
Q 26.515625 48.1875 22.3125 43.546875 
Q 18.109375 38.921875 18.109375 30.90625 
L 18.109375 0 
L 9.078125 0 
L 9.078125 75.984375 
L 18.109375 75.984375 
L 18.109375 46.1875 
Q 21.34375 51.125 25.703125 53.5625 
Q 30.078125 56 35.796875 56 
Q 45.21875 56 50.046875 50.171875 
Q 54.890625 44.34375 54.890625 33.015625 
" id="BitstreamVeraSans-Roman-68"/>
      <path d="M 34.1875 63.1875 
L 20.796875 26.90625 
L 47.609375 26.90625 
z
M 28.609375 72.90625 
L 39.796875 72.90625 
L 67.578125 0 
L 57.328125 0 
L 50.6875 18.703125 
L 17.828125 18.703125 
L 11.1875 0 
L 0.78125 0 
z
" id="BitstreamVeraSans-Roman-41"/>
      <path d="M 45.40625 27.984375 
Q 45.40625 37.75 41.375 43.109375 
Q 37.359375 48.484375 30.078125 48.484375 
Q 22.859375 48.484375 18.828125 43.109375 
Q 14.796875 37.75 14.796875 27.984375 
Q 14.796875 18.265625 18.828125 12.890625 
Q 22.859375 7.515625 30.078125 7.515625 
Q 37.359375 7.515625 41.375 12.890625 
Q 45.40625 18.265625 45.40625 27.984375 
M 54.390625 6.78125 
Q 54.390625 -7.171875 48.1875 -13.984375 
Q 42 -20.796875 29.203125 -20.796875 
Q 24.46875 -20.796875 20.265625 -20.09375 
Q 16.0625 -19.390625 12.109375 -17.921875 
L 12.109375 -9.1875 
Q 16.0625 -11.328125 19.921875 -12.34375 
Q 23.78125 -13.375 27.78125 -13.375 
Q 36.625 -13.375 41.015625 -8.765625 
Q 45.40625 -4.15625 45.40625 5.171875 
L 45.40625 9.625 
Q 42.625 4.78125 38.28125 2.390625 
Q 33.9375 0 27.875 0 
Q 17.828125 0 11.671875 7.65625 
Q 5.515625 15.328125 5.515625 27.984375 
Q 5.515625 40.671875 11.671875 48.328125 
Q 17.828125 56 27.875 56 
Q 33.9375 56 38.28125 53.609375 
Q 42.625 51.21875 45.40625 46.390625 
L 45.40625 54.6875 
L 54.390625 54.6875 
z
" id="BitstreamVeraSans-Roman-67"/>
      <path d="M 9.8125 72.90625 
L 19.671875 72.90625 
L 19.671875 43.015625 
L 55.515625 43.015625 
L 55.515625 72.90625 
L 65.375 72.90625 
L 65.375 0 
L 55.515625 0 
L 55.515625 34.71875 
L 19.671875 34.71875 
L 19.671875 0 
L 9.8125 0 
z
" id="BitstreamVeraSans-Roman-48"/>
     </defs>
     <g transform="translate(85.5841109805 356.12419451)rotate(-90.0)scale(0.16 -0.16)">
      <use xlink:href="#BitstreamVeraSans-Roman-28"/>
      <use x="39.013671875" xlink:href="#BitstreamVeraSans-Roman-63"/>
      <use x="93.994140625" xlink:href="#BitstreamVeraSans-Roman-68"/>
      <use x="157.373046875" xlink:href="#BitstreamVeraSans-Roman-61"/>
      <use x="218.65234375" xlink:href="#BitstreamVeraSans-Roman-6e"/>
      <use x="282.03125" xlink:href="#BitstreamVeraSans-Roman-67"/>
      <use x="345.5078125" xlink:href="#BitstreamVeraSans-Roman-65"/>
      <use x="407.03125" xlink:href="#BitstreamVeraSans-Roman-20"/>
      <use x="438.818359375" xlink:href="#BitstreamVeraSans-Roman-74"/>
      <use x="478.02734375" xlink:href="#BitstreamVeraSans-Roman-6f"/>
      <use x="539.208984375" xlink:href="#BitstreamVeraSans-Roman-20"/>
      <use x="570.99609375" xlink:href="#BitstreamVeraSans-Roman-48"/>
      <use x="646.19140625" xlink:href="#BitstreamVeraSans-Roman-41"/>
      <use x="714.599609375" xlink:href="#BitstreamVeraSans-Roman-53"/>
      <use x="778.076171875" xlink:href="#BitstreamVeraSans-Roman-48"/>
      <use x="853.271484375" xlink:href="#BitstreamVeraSans-Roman-20"/>
      <use x="885.05859375" xlink:href="#BitstreamVeraSans-Roman-69"/>
      <use x="912.841796875" xlink:href="#BitstreamVeraSans-Roman-6e"/>
      <use x="976.220703125" xlink:href="#BitstreamVeraSans-Roman-20"/>
      <use x="1008.0078125" xlink:href="#BitstreamVeraSans-Roman-25"/>
      <use x="1103.02734375" xlink:href="#BitstreamVeraSans-Roman-29"/>
     </g>
    </g>
   </g>
   <g id="legend_1">
    <g id="patch_29">
     <path d="M 138.359111 86.688391 
L 702.72 86.688391 
L 702.72 3.078391 
L 138.359111 3.078391 
z
" style="fill:#ffffff;stroke:#000000;stroke-linejoin:miter;"/>
    </g>
    <g id="patch_30">
     <path d="M 142.199111 21.507391 
L 170.999111 21.507391 
L 170.999111 8.067391 
L 142.199111 8.067391 
z
" style="fill:#0055c9;stroke:#000000;stroke-linejoin:miter;stroke-width:0.5;"/>
    </g>
    <g id="text_14">
     <!-- MOLECULE_HASH -->
     <defs>
      <path d="M 39.40625 66.21875 
Q 28.65625 66.21875 22.328125 58.203125 
Q 16.015625 50.203125 16.015625 36.375 
Q 16.015625 22.609375 22.328125 14.59375 
Q 28.65625 6.59375 39.40625 6.59375 
Q 50.140625 6.59375 56.421875 14.59375 
Q 62.703125 22.609375 62.703125 36.375 
Q 62.703125 50.203125 56.421875 58.203125 
Q 50.140625 66.21875 39.40625 66.21875 
M 39.40625 74.21875 
Q 54.734375 74.21875 63.90625 63.9375 
Q 73.09375 53.65625 73.09375 36.375 
Q 73.09375 19.140625 63.90625 8.859375 
Q 54.734375 -1.421875 39.40625 -1.421875 
Q 24.03125 -1.421875 14.8125 8.828125 
Q 5.609375 19.09375 5.609375 36.375 
Q 5.609375 53.65625 14.8125 63.9375 
Q 24.03125 74.21875 39.40625 74.21875 
" id="BitstreamVeraSans-Roman-4f"/>
      <path d="M 9.8125 72.90625 
L 24.515625 72.90625 
L 43.109375 23.296875 
L 61.8125 72.90625 
L 76.515625 72.90625 
L 76.515625 0 
L 66.890625 0 
L 66.890625 64.015625 
L 48.09375 14.015625 
L 38.1875 14.015625 
L 19.390625 64.015625 
L 19.390625 0 
L 9.8125 0 
z
" id="BitstreamVeraSans-Roman-4d"/>
      <path d="M 9.8125 72.90625 
L 19.671875 72.90625 
L 19.671875 8.296875 
L 55.171875 8.296875 
L 55.171875 0 
L 9.8125 0 
z
" id="BitstreamVeraSans-Roman-4c"/>
      <path d="M 50.984375 -16.609375 
L 50.984375 -23.578125 
L -0.984375 -23.578125 
L -0.984375 -16.609375 
z
" id="BitstreamVeraSans-Roman-5f"/>
      <path d="M 9.8125 72.90625 
L 55.90625 72.90625 
L 55.90625 64.59375 
L 19.671875 64.59375 
L 19.671875 43.015625 
L 54.390625 43.015625 
L 54.390625 34.71875 
L 19.671875 34.71875 
L 19.671875 8.296875 
L 56.78125 8.296875 
L 56.78125 0 
L 9.8125 0 
z
" id="BitstreamVeraSans-Roman-45"/>
      <path d="M 64.40625 67.28125 
L 64.40625 56.890625 
Q 59.421875 61.53125 53.78125 63.8125 
Q 48.140625 66.109375 41.796875 66.109375 
Q 29.296875 66.109375 22.65625 58.46875 
Q 16.015625 50.828125 16.015625 36.375 
Q 16.015625 21.96875 22.65625 14.328125 
Q 29.296875 6.6875 41.796875 6.6875 
Q 48.140625 6.6875 53.78125 8.984375 
Q 59.421875 11.28125 64.40625 15.921875 
L 64.40625 5.609375 
Q 59.234375 2.09375 53.4375 0.328125 
Q 47.65625 -1.421875 41.21875 -1.421875 
Q 24.65625 -1.421875 15.125 8.703125 
Q 5.609375 18.84375 5.609375 36.375 
Q 5.609375 53.953125 15.125 64.078125 
Q 24.65625 74.21875 41.21875 74.21875 
Q 47.75 74.21875 53.53125 72.484375 
Q 59.328125 70.75 64.40625 67.28125 
" id="BitstreamVeraSans-Roman-43"/>
      <path d="M 8.6875 72.90625 
L 18.609375 72.90625 
L 18.609375 28.609375 
Q 18.609375 16.890625 22.84375 11.734375 
Q 27.09375 6.59375 36.625 6.59375 
Q 46.09375 6.59375 50.34375 11.734375 
Q 54.59375 16.890625 54.59375 28.609375 
L 54.59375 72.90625 
L 64.5 72.90625 
L 64.5 27.390625 
Q 64.5 13.140625 57.4375 5.859375 
Q 50.390625 -1.421875 36.625 -1.421875 
Q 22.796875 -1.421875 15.734375 5.859375 
Q 8.6875 13.140625 8.6875 27.390625 
z
" id="BitstreamVeraSans-Roman-55"/>
     </defs>
     <g transform="translate(174.83911098 21.5073911098)scale(0.192 -0.192)">
      <use xlink:href="#BitstreamVeraSans-Roman-4d"/>
      <use x="86.279296875" xlink:href="#BitstreamVeraSans-Roman-4f"/>
      <use x="164.990234375" xlink:href="#BitstreamVeraSans-Roman-4c"/>
      <use x="220.703125" xlink:href="#BitstreamVeraSans-Roman-45"/>
      <use x="283.88671875" xlink:href="#BitstreamVeraSans-Roman-43"/>
      <use x="353.7109375" xlink:href="#BitstreamVeraSans-Roman-55"/>
      <use x="426.904296875" xlink:href="#BitstreamVeraSans-Roman-4c"/>
      <use x="482.6171875" xlink:href="#BitstreamVeraSans-Roman-45"/>
      <use x="545.80078125" xlink:href="#BitstreamVeraSans-Roman-5f"/>
      <use x="595.80078125" xlink:href="#BitstreamVeraSans-Roman-48"/>
      <use x="670.99609375" xlink:href="#BitstreamVeraSans-Roman-41"/>
      <use x="739.404296875" xlink:href="#BitstreamVeraSans-Roman-53"/>
      <use x="802.880859375" xlink:href="#BitstreamVeraSans-Roman-48"/>
     </g>
    </g>
    <g id="patch_31">
     <path d="M 142.199111 40.623391 
L 170.999111 40.623391 
L 170.999111 27.183391 
L 142.199111 27.183391 
z
" style="fill:#a5cf00;stroke:#000000;stroke-linejoin:miter;stroke-width:0.5;"/>
    </g>
    <g id="text_15">
     <!-- OVER_MEC -->
     <defs>
      <path d="M 44.390625 34.1875 
Q 47.5625 33.109375 50.5625 29.59375 
Q 53.5625 26.078125 56.59375 19.921875 
L 66.609375 0 
L 56 0 
L 46.6875 18.703125 
Q 43.0625 26.03125 39.671875 28.421875 
Q 36.28125 30.8125 30.421875 30.8125 
L 19.671875 30.8125 
L 19.671875 0 
L 9.8125 0 
L 9.8125 72.90625 
L 32.078125 72.90625 
Q 44.578125 72.90625 50.734375 67.671875 
Q 56.890625 62.453125 56.890625 51.90625 
Q 56.890625 45.015625 53.6875 40.46875 
Q 50.484375 35.9375 44.390625 34.1875 
M 19.671875 64.796875 
L 19.671875 38.921875 
L 32.078125 38.921875 
Q 39.203125 38.921875 42.84375 42.21875 
Q 46.484375 45.515625 46.484375 51.90625 
Q 46.484375 58.296875 42.84375 61.546875 
Q 39.203125 64.796875 32.078125 64.796875 
z
" id="BitstreamVeraSans-Roman-52"/>
      <path d="M 28.609375 0 
L 0.78125 72.90625 
L 11.078125 72.90625 
L 34.1875 11.53125 
L 57.328125 72.90625 
L 67.578125 72.90625 
L 39.796875 0 
z
" id="BitstreamVeraSans-Roman-56"/>
     </defs>
     <g transform="translate(174.83911098 40.6233911098)scale(0.192 -0.192)">
      <use xlink:href="#BitstreamVeraSans-Roman-4f"/>
      <use x="78.6953125" xlink:href="#BitstreamVeraSans-Roman-56"/>
      <use x="147.103515625" xlink:href="#BitstreamVeraSans-Roman-45"/>
      <use x="210.287109375" xlink:href="#BitstreamVeraSans-Roman-52"/>
      <use x="279.76953125" xlink:href="#BitstreamVeraSans-Roman-5f"/>
      <use x="329.76953125" xlink:href="#BitstreamVeraSans-Roman-4d"/>
      <use x="416.048828125" xlink:href="#BitstreamVeraSans-Roman-45"/>
      <use x="479.232421875" xlink:href="#BitstreamVeraSans-Roman-43"/>
     </g>
    </g>
    <g id="patch_32">
     <path d="M 142.199111 59.739391 
L 170.999111 59.739391 
L 170.999111 46.299391 
L 142.199111 46.299391 
z
" style="fill:#333333;stroke:#000000;stroke-linejoin:miter;stroke-width:0.5;"/>
    </g>
    <g id="text_16">
     <!-- HIERARCHICAL -->
     <defs>
      <path d="M 9.8125 72.90625 
L 19.671875 72.90625 
L 19.671875 0 
L 9.8125 0 
z
" id="BitstreamVeraSans-Roman-49"/>
     </defs>
     <g transform="translate(174.83911098 59.7393911098)scale(0.192 -0.192)">
      <use xlink:href="#BitstreamVeraSans-Roman-48"/>
      <use x="75.1953125" xlink:href="#BitstreamVeraSans-Roman-49"/>
      <use x="104.6875" xlink:href="#BitstreamVeraSans-Roman-45"/>
      <use x="167.87109375" xlink:href="#BitstreamVeraSans-Roman-52"/>
      <use x="237.291015625" xlink:href="#BitstreamVeraSans-Roman-41"/>
      <use x="305.69921875" xlink:href="#BitstreamVeraSans-Roman-52"/>
      <use x="375.103515625" xlink:href="#BitstreamVeraSans-Roman-43"/>
      <use x="444.927734375" xlink:href="#BitstreamVeraSans-Roman-48"/>
      <use x="520.123046875" xlink:href="#BitstreamVeraSans-Roman-49"/>
      <use x="549.615234375" xlink:href="#BitstreamVeraSans-Roman-43"/>
      <use x="619.439453125" xlink:href="#BitstreamVeraSans-Roman-41"/>
      <use x="687.84765625" xlink:href="#BitstreamVeraSans-Roman-4c"/>
     </g>
    </g>
    <g id="patch_33">
     <path d="M 142.199111 78.321391 
L 170.999111 78.321391 
L 170.999111 64.881391 
L 142.199111 64.881391 
z
" style="fill:#dddddd;stroke:#000000;stroke-linejoin:miter;stroke-width:0.5;"/>
    </g>
    <g id="text_17">
     <!-- MIN_EDGE_CUT -->
     <defs>
      <path d="M 59.515625 10.40625 
L 59.515625 29.984375 
L 43.40625 29.984375 
L 43.40625 38.09375 
L 69.28125 38.09375 
L 69.28125 6.78125 
Q 63.578125 2.734375 56.6875 0.65625 
Q 49.8125 -1.421875 42 -1.421875 
Q 24.90625 -1.421875 15.25 8.5625 
Q 5.609375 18.5625 5.609375 36.375 
Q 5.609375 54.25 15.25 64.234375 
Q 24.90625 74.21875 42 74.21875 
Q 49.125 74.21875 55.546875 72.453125 
Q 61.96875 70.703125 67.390625 67.28125 
L 67.390625 56.78125 
Q 61.921875 61.421875 55.765625 63.765625 
Q 49.609375 66.109375 42.828125 66.109375 
Q 29.4375 66.109375 22.71875 58.640625 
Q 16.015625 51.171875 16.015625 36.375 
Q 16.015625 21.625 22.71875 14.15625 
Q 29.4375 6.6875 42.828125 6.6875 
Q 48.046875 6.6875 52.140625 7.59375 
Q 56.25 8.5 59.515625 10.40625 
" id="BitstreamVeraSans-Roman-47"/>
      <path d="M 9.8125 72.90625 
L 23.09375 72.90625 
L 55.421875 11.921875 
L 55.421875 72.90625 
L 64.984375 72.90625 
L 64.984375 0 
L 51.703125 0 
L 19.390625 60.984375 
L 19.390625 0 
L 9.8125 0 
z
" id="BitstreamVeraSans-Roman-4e"/>
      <path d="M 19.671875 64.796875 
L 19.671875 8.109375 
L 31.59375 8.109375 
Q 46.6875 8.109375 53.6875 14.9375 
Q 60.6875 21.78125 60.6875 36.53125 
Q 60.6875 51.171875 53.6875 57.984375 
Q 46.6875 64.796875 31.59375 64.796875 
z
M 9.8125 72.90625 
L 30.078125 72.90625 
Q 51.265625 72.90625 61.171875 64.09375 
Q 71.09375 55.28125 71.09375 36.53125 
Q 71.09375 17.671875 61.125 8.828125 
Q 51.171875 0 30.078125 0 
L 9.8125 0 
z
" id="BitstreamVeraSans-Roman-44"/>
     </defs>
     <g transform="translate(174.83911098 78.3213911098)scale(0.192 -0.192)">
      <use xlink:href="#BitstreamVeraSans-Roman-4d"/>
      <use x="86.279296875" xlink:href="#BitstreamVeraSans-Roman-49"/>
      <use x="115.771484375" xlink:href="#BitstreamVeraSans-Roman-4e"/>
      <use x="190.576171875" xlink:href="#BitstreamVeraSans-Roman-5f"/>
      <use x="240.576171875" xlink:href="#BitstreamVeraSans-Roman-45"/>
      <use x="303.759765625" xlink:href="#BitstreamVeraSans-Roman-44"/>
      <use x="380.76171875" xlink:href="#BitstreamVeraSans-Roman-47"/>
      <use x="458.251953125" xlink:href="#BitstreamVeraSans-Roman-45"/>
      <use x="521.435546875" xlink:href="#BitstreamVeraSans-Roman-5f"/>
      <use x="571.435546875" xlink:href="#BitstreamVeraSans-Roman-43"/>
      <use x="641.259765625" xlink:href="#BitstreamVeraSans-Roman-55"/>
      <use x="714.453125" xlink:href="#BitstreamVeraSans-Roman-54"/>
     </g>
    </g>
   </g>
  </g>
 </g>
 <defs>
  <clipPath id="pba6e3c3480">
   <rect height="349.16088902" width="564.36088902" x="138.35911098" y="90.18"/>
  </clipPath>
 </defs>
</svg>
