<?xml version="1.0" encoding="utf-8" standalone="no"?>
<!DOCTYPE svg PUBLIC "-//W3C//DTD SVG 1.1//EN"
  "http://www.w3.org/Graphics/SVG/1.1/DTD/svg11.dtd">
<!-- Created with matplotlib (http://matplotlib.org/) -->
<svg height="648pt" version="1.1" viewBox="0 0 1080 648" width="1080pt" xmlns="http://www.w3.org/2000/svg" xmlns:xlink="http://www.w3.org/1999/xlink">
 <defs>
  <style type="text/css">
*{stroke-linecap:butt;stroke-linejoin:round;stroke-miterlimit:100000;}
  </style>
 </defs>
 <g id="figure_1">
  <g id="patch_1">
   <path d="M 0 648 
L 1080 648 
L 1080 0 
L 0 0 
z
" style="fill:#ffffff;"/>
  </g>
  <g id="axes_1">
   <g id="patch_2">
    <path d="M 76.279876 612.26 
L 1073.52 612.26 
L 1073.52 111.195 
L 76.279876 111.195 
z
" style="fill:#ffffff;"/>
   </g>
   <g id="patch_3">
    <path clip-path="url(#pda9d42596f)" d="M 82.512627 612.26 
L 94.978128 612.26 
L 94.978128 256.878655 
L 82.512627 256.878655 
z
" style="fill:#000080;stroke:#000000;stroke-linejoin:miter;stroke-width:0.5;"/>
   </g>
   <g id="patch_4">
    <path clip-path="url(#pda9d42596f)" d="M 182.236639 612.26 
L 194.702141 612.26 
L 194.702141 257.332097 
L 182.236639 257.332097 
z
" style="fill:#000080;stroke:#000000;stroke-linejoin:miter;stroke-width:0.5;"/>
   </g>
   <g id="patch_5">
    <path clip-path="url(#pda9d42596f)" d="M 281.960652 612.26 
L 294.426153 612.26 
L 294.426153 257.34371 
L 281.960652 257.34371 
z
" style="fill:#000080;stroke:#000000;stroke-linejoin:miter;stroke-width:0.5;"/>
   </g>
   <g id="patch_6">
    <path clip-path="url(#pda9d42596f)" d="M 381.684664 612.26 
L 394.150166 612.26 
L 394.150166 257.35787 
L 381.684664 257.35787 
z
" style="fill:#000080;stroke:#000000;stroke-linejoin:miter;stroke-width:0.5;"/>
   </g>
   <g id="patch_7">
    <path clip-path="url(#pda9d42596f)" d="M 481.408676 612.26 
L 493.874178 612.26 
L 493.874178 257.362954 
L 481.408676 257.362954 
z
" style="fill:#000080;stroke:#000000;stroke-linejoin:miter;stroke-width:0.5;"/>
   </g>
   <g id="patch_8">
    <path clip-path="url(#pda9d42596f)" d="M 581.132689 612.26 
L 593.59819 612.26 
L 593.59819 257.38003 
L 581.132689 257.38003 
z
" style="fill:#000080;stroke:#000000;stroke-linejoin:miter;stroke-width:0.5;"/>
   </g>
   <g id="patch_9">
    <path clip-path="url(#pda9d42596f)" d="M 680.856701 612.26 
L 693.322203 612.26 
L 693.322203 257.449885 
L 680.856701 257.449885 
z
" style="fill:#000080;stroke:#000000;stroke-linejoin:miter;stroke-width:0.5;"/>
   </g>
   <g id="patch_10">
    <path clip-path="url(#pda9d42596f)" d="M 780.580714 612.26 
L 793.046215 612.26 
L 793.046215 257.536332 
L 780.580714 257.536332 
z
" style="fill:#000080;stroke:#000000;stroke-linejoin:miter;stroke-width:0.5;"/>
   </g>
   <g id="patch_11">
    <path clip-path="url(#pda9d42596f)" d="M 880.304726 612.26 
L 892.770228 612.26 
L 892.770228 257.54035 
L 880.304726 257.54035 
z
" style="fill:#000080;stroke:#000000;stroke-linejoin:miter;stroke-width:0.5;"/>
   </g>
   <g id="patch_12">
    <path clip-path="url(#pda9d42596f)" d="M 980.028738 612.26 
L 992.49424 612.26 
L 992.49424 257.688663 
L 980.028738 257.688663 
z
" style="fill:#000080;stroke:#000000;stroke-linejoin:miter;stroke-width:0.5;"/>
   </g>
   <g id="patch_13">
    <path clip-path="url(#pda9d42596f)" d="M 94.978128 612.26 
L 107.44363 612.26 
L 107.44363 160.129566 
L 94.978128 160.129566 
z
" style="fill:#009bff;stroke:#000000;stroke-linejoin:miter;stroke-width:0.5;"/>
   </g>
   <g id="patch_14">
    <path clip-path="url(#pda9d42596f)" d="M 194.702141 612.26 
L 207.167642 612.26 
L 207.167642 160.166235 
L 194.702141 160.166235 
z
" style="fill:#009bff;stroke:#000000;stroke-linejoin:miter;stroke-width:0.5;"/>
   </g>
   <g id="patch_15">
    <path clip-path="url(#pda9d42596f)" d="M 294.426153 612.26 
L 306.891655 612.26 
L 306.891655 160.169297 
L 294.426153 160.169297 
z
" style="fill:#009bff;stroke:#000000;stroke-linejoin:miter;stroke-width:0.5;"/>
   </g>
   <g id="patch_16">
    <path clip-path="url(#pda9d42596f)" d="M 394.150166 612.26 
L 406.615667 612.26 
L 406.615667 160.236118 
L 394.150166 160.236118 
z
" style="fill:#009bff;stroke:#000000;stroke-linejoin:miter;stroke-width:0.5;"/>
   </g>
   <g id="patch_17">
    <path clip-path="url(#pda9d42596f)" d="M 493.874178 612.26 
L 506.339679 612.26 
L 506.339679 160.289487 
L 493.874178 160.289487 
z
" style="fill:#009bff;stroke:#000000;stroke-linejoin:miter;stroke-width:0.5;"/>
   </g>
   <g id="patch_18">
    <path clip-path="url(#pda9d42596f)" d="M 593.59819 612.26 
L 606.063692 612.26 
L 606.063692 160.290401 
L 593.59819 160.290401 
z
" style="fill:#009bff;stroke:#000000;stroke-linejoin:miter;stroke-width:0.5;"/>
   </g>
   <g id="patch_19">
    <path clip-path="url(#pda9d42596f)" d="M 693.322203 612.26 
L 705.787704 612.26 
L 705.787704 160.302125 
L 693.322203 160.302125 
z
" style="fill:#009bff;stroke:#000000;stroke-linejoin:miter;stroke-width:0.5;"/>
   </g>
   <g id="patch_20">
    <path clip-path="url(#pda9d42596f)" d="M 793.046215 612.26 
L 805.511717 612.26 
L 805.511717 160.353291 
L 793.046215 160.353291 
z
" style="fill:#009bff;stroke:#000000;stroke-linejoin:miter;stroke-width:0.5;"/>
   </g>
   <g id="patch_21">
    <path clip-path="url(#pda9d42596f)" d="M 892.770228 612.26 
L 905.235729 612.26 
L 905.235729 160.383219 
L 892.770228 160.383219 
z
" style="fill:#009bff;stroke:#000000;stroke-linejoin:miter;stroke-width:0.5;"/>
   </g>
   <g id="patch_22">
    <path clip-path="url(#pda9d42596f)" d="M 992.49424 612.26 
L 1004.959741 612.26 
L 1004.959741 160.389969 
L 992.49424 160.389969 
z
" style="fill:#009bff;stroke:#000000;stroke-linejoin:miter;stroke-width:0.5;"/>
   </g>
   <g id="patch_23">
    <path clip-path="url(#pda9d42596f)" d="M 107.44363 612.26 
L 119.909131 612.26 
L 119.909131 184.953133 
L 107.44363 184.953133 
z
" style="fill:#00fd3f;stroke:#000000;stroke-linejoin:miter;stroke-width:0.5;"/>
   </g>
   <g id="patch_24">
    <path clip-path="url(#pda9d42596f)" d="M 207.167642 612.26 
L 219.633144 612.26 
L 219.633144 185.174403 
L 207.167642 185.174403 
z
" style="fill:#00fd3f;stroke:#000000;stroke-linejoin:miter;stroke-width:0.5;"/>
   </g>
   <g id="patch_25">
    <path clip-path="url(#pda9d42596f)" d="M 306.891655 612.26 
L 319.357156 612.26 
L 319.357156 185.208442 
L 306.891655 185.208442 
z
" style="fill:#00fd3f;stroke:#000000;stroke-linejoin:miter;stroke-width:0.5;"/>
   </g>
   <g id="patch_26">
    <path clip-path="url(#pda9d42596f)" d="M 406.615667 612.26 
L 419.081169 612.26 
L 419.081169 185.232783 
L 406.615667 185.232783 
z
" style="fill:#00fd3f;stroke:#000000;stroke-linejoin:miter;stroke-width:0.5;"/>
   </g>
   <g id="patch_27">
    <path clip-path="url(#pda9d42596f)" d="M 506.339679 612.26 
L 518.805181 612.26 
L 518.805181 185.458032 
L 506.339679 185.458032 
z
" style="fill:#00fd3f;stroke:#000000;stroke-linejoin:miter;stroke-width:0.5;"/>
   </g>
   <g id="patch_28">
    <path clip-path="url(#pda9d42596f)" d="M 606.063692 612.26 
L 618.529193 612.26 
L 618.529193 185.480735 
L 606.063692 185.480735 
z
" style="fill:#00fd3f;stroke:#000000;stroke-linejoin:miter;stroke-width:0.5;"/>
   </g>
   <g id="patch_29">
    <path clip-path="url(#pda9d42596f)" d="M 705.787704 612.26 
L 718.253206 612.26 
L 718.253206 185.56803 
L 705.787704 185.56803 
z
" style="fill:#00fd3f;stroke:#000000;stroke-linejoin:miter;stroke-width:0.5;"/>
   </g>
   <g id="patch_30">
    <path clip-path="url(#pda9d42596f)" d="M 805.511717 612.26 
L 817.977218 612.26 
L 817.977218 185.611387 
L 805.511717 185.611387 
z
" style="fill:#00fd3f;stroke:#000000;stroke-linejoin:miter;stroke-width:0.5;"/>
   </g>
   <g id="patch_31">
    <path clip-path="url(#pda9d42596f)" d="M 905.235729 612.26 
L 917.701231 612.26 
L 917.701231 185.735851 
L 905.235729 185.735851 
z
" style="fill:#00fd3f;stroke:#000000;stroke-linejoin:miter;stroke-width:0.5;"/>
   </g>
   <g id="patch_32">
    <path clip-path="url(#pda9d42596f)" d="M 1004.959741 612.26 
L 1017.425243 612.26 
L 1017.425243 185.876907 
L 1004.959741 185.876907 
z
" style="fill:#00fd3f;stroke:#000000;stroke-linejoin:miter;stroke-width:0.5;"/>
   </g>
   <g id="patch_33">
    <path clip-path="url(#pda9d42596f)" d="M 119.909131 612.26 
L 132.374633 612.26 
L 132.374633 159.988258 
L 119.909131 159.988258 
z
" style="fill:#9fff24;stroke:#000000;stroke-linejoin:miter;stroke-width:0.5;"/>
   </g>
   <g id="patch_34">
    <path clip-path="url(#pda9d42596f)" d="M 219.633144 612.26 
L 232.098645 612.26 
L 232.098645 160.019898 
L 219.633144 160.019898 
z
" style="fill:#9fff24;stroke:#000000;stroke-linejoin:miter;stroke-width:0.5;"/>
   </g>
   <g id="patch_35">
    <path clip-path="url(#pda9d42596f)" d="M 319.357156 612.26 
L 331.822658 612.26 
L 331.822658 160.026659 
L 319.357156 160.026659 
z
" style="fill:#9fff24;stroke:#000000;stroke-linejoin:miter;stroke-width:0.5;"/>
   </g>
   <g id="patch_36">
    <path clip-path="url(#pda9d42596f)" d="M 419.081169 612.26 
L 431.54667 612.26 
L 431.54667 160.094514 
L 419.081169 160.094514 
z
" style="fill:#9fff24;stroke:#000000;stroke-linejoin:miter;stroke-width:0.5;"/>
   </g>
   <g id="patch_37">
    <path clip-path="url(#pda9d42596f)" d="M 518.805181 612.26 
L 531.270683 612.26 
L 531.270683 160.139941 
L 518.805181 160.139941 
z
" style="fill:#9fff24;stroke:#000000;stroke-linejoin:miter;stroke-width:0.5;"/>
   </g>
   <g id="patch_38">
    <path clip-path="url(#pda9d42596f)" d="M 618.529193 612.26 
L 630.994695 612.26 
L 630.994695 160.147546 
L 618.529193 160.147546 
z
" style="fill:#9fff24;stroke:#000000;stroke-linejoin:miter;stroke-width:0.5;"/>
   </g>
   <g id="patch_39">
    <path clip-path="url(#pda9d42596f)" d="M 718.253206 612.26 
L 730.718707 612.26 
L 730.718707 160.15435 
L 718.253206 160.15435 
z
" style="fill:#9fff24;stroke:#000000;stroke-linejoin:miter;stroke-width:0.5;"/>
   </g>
   <g id="patch_40">
    <path clip-path="url(#pda9d42596f)" d="M 817.977218 612.26 
L 830.44272 612.26 
L 830.44272 160.214 
L 817.977218 160.214 
z
" style="fill:#9fff24;stroke:#000000;stroke-linejoin:miter;stroke-width:0.5;"/>
   </g>
   <g id="patch_41">
    <path clip-path="url(#pda9d42596f)" d="M 917.701231 612.26 
L 930.166732 612.26 
L 930.166732 160.24089 
L 917.701231 160.24089 
z
" style="fill:#9fff24;stroke:#000000;stroke-linejoin:miter;stroke-width:0.5;"/>
   </g>
   <g id="patch_42">
    <path clip-path="url(#pda9d42596f)" d="M 1017.425243 612.26 
L 1029.890745 612.26 
L 1029.890745 160.242744 
L 1017.425243 160.242744 
z
" style="fill:#9fff24;stroke:#000000;stroke-linejoin:miter;stroke-width:0.5;"/>
   </g>
   <g id="patch_43">
    <path clip-path="url(#pda9d42596f)" d="M 132.374633 612.26 
L 144.840135 612.26 
L 144.840135 114.751661 
L 132.374633 114.751661 
z
" style="fill:#ffce05;stroke:#000000;stroke-linejoin:miter;stroke-width:0.5;"/>
   </g>
   <g id="patch_44">
    <path clip-path="url(#pda9d42596f)" d="M 232.098645 612.26 
L 244.564147 612.26 
L 244.564147 117.421584 
L 232.098645 117.421584 
z
" style="fill:#ffce05;stroke:#000000;stroke-linejoin:miter;stroke-width:0.5;"/>
   </g>
   <g id="patch_45">
    <path clip-path="url(#pda9d42596f)" d="M 331.822658 612.26 
L 344.288159 612.26 
L 344.288159 125.397461 
L 331.822658 125.397461 
z
" style="fill:#ffce05;stroke:#000000;stroke-linejoin:miter;stroke-width:0.5;"/>
   </g>
   <g id="patch_46">
    <path clip-path="url(#pda9d42596f)" d="M 431.54667 612.26 
L 444.012172 612.26 
L 444.012172 127.6473 
L 431.54667 127.6473 
z
" style="fill:#ffce05;stroke:#000000;stroke-linejoin:miter;stroke-width:0.5;"/>
   </g>
   <g id="patch_47">
    <path clip-path="url(#pda9d42596f)" d="M 531.270683 612.26 
L 543.736184 612.26 
L 543.736184 128.209426 
L 531.270683 128.209426 
z
" style="fill:#ffce05;stroke:#000000;stroke-linejoin:miter;stroke-width:0.5;"/>
   </g>
   <g id="patch_48">
    <path clip-path="url(#pda9d42596f)" d="M 630.994695 612.26 
L 643.460197 612.26 
L 643.460197 134.056414 
L 630.994695 134.056414 
z
" style="fill:#ffce05;stroke:#000000;stroke-linejoin:miter;stroke-width:0.5;"/>
   </g>
   <g id="patch_49">
    <path clip-path="url(#pda9d42596f)" d="M 730.718707 612.26 
L 743.184209 612.26 
L 743.184209 136.851355 
L 730.718707 136.851355 
z
" style="fill:#ffce05;stroke:#000000;stroke-linejoin:miter;stroke-width:0.5;"/>
   </g>
   <g id="patch_50">
    <path clip-path="url(#pda9d42596f)" d="M 830.44272 612.26 
L 842.908221 612.26 
L 842.908221 140.00414 
L 830.44272 140.00414 
z
" style="fill:#ffce05;stroke:#000000;stroke-linejoin:miter;stroke-width:0.5;"/>
   </g>
   <g id="patch_51">
    <path clip-path="url(#pda9d42596f)" d="M 930.166732 612.26 
L 942.632234 612.26 
L 942.632234 140.82603 
L 930.166732 140.82603 
z
" style="fill:#ffce05;stroke:#000000;stroke-linejoin:miter;stroke-width:0.5;"/>
   </g>
   <g id="patch_52">
    <path clip-path="url(#pda9d42596f)" d="M 1029.890745 612.26 
L 1042.356246 612.26 
L 1042.356246 146.63019 
L 1029.890745 146.63019 
z
" style="fill:#ffce05;stroke:#000000;stroke-linejoin:miter;stroke-width:0.5;"/>
   </g>
   <g id="patch_53">
    <path clip-path="url(#pda9d42596f)" d="M 144.840135 612.26 
L 157.305636 612.26 
L 157.305636 294.178221 
L 144.840135 294.178221 
z
" style="fill:#ff0047;stroke:#000000;stroke-linejoin:miter;stroke-width:0.5;"/>
   </g>
   <g id="patch_54">
    <path clip-path="url(#pda9d42596f)" d="M 244.564147 612.26 
L 257.029648 612.26 
L 257.029648 294.500453 
L 244.564147 294.500453 
z
" style="fill:#ff0047;stroke:#000000;stroke-linejoin:miter;stroke-width:0.5;"/>
   </g>
   <g id="patch_55">
    <path clip-path="url(#pda9d42596f)" d="M 344.288159 612.26 
L 356.753661 612.26 
L 356.753661 300.625365 
L 344.288159 300.625365 
z
" style="fill:#ff0047;stroke:#000000;stroke-linejoin:miter;stroke-width:0.5;"/>
   </g>
   <g id="patch_56">
    <path clip-path="url(#pda9d42596f)" d="M 444.012172 612.26 
L 456.477673 612.26 
L 456.477673 304.506441 
L 444.012172 304.506441 
z
" style="fill:#ff0047;stroke:#000000;stroke-linejoin:miter;stroke-width:0.5;"/>
   </g>
   <g id="patch_57">
    <path clip-path="url(#pda9d42596f)" d="M 543.736184 612.26 
L 556.201686 612.26 
L 556.201686 305.291113 
L 543.736184 305.291113 
z
" style="fill:#ff0047;stroke:#000000;stroke-linejoin:miter;stroke-width:0.5;"/>
   </g>
   <g id="patch_58">
    <path clip-path="url(#pda9d42596f)" d="M 643.460197 612.26 
L 655.925698 612.26 
L 655.925698 307.756622 
L 643.460197 307.756622 
z
" style="fill:#ff0047;stroke:#000000;stroke-linejoin:miter;stroke-width:0.5;"/>
   </g>
   <g id="patch_59">
    <path clip-path="url(#pda9d42596f)" d="M 743.184209 612.26 
L 755.64971 612.26 
L 755.64971 314.337289 
L 743.184209 314.337289 
z
" style="fill:#ff0047;stroke:#000000;stroke-linejoin:miter;stroke-width:0.5;"/>
   </g>
   <g id="patch_60">
    <path clip-path="url(#pda9d42596f)" d="M 842.908221 612.26 
L 855.373723 612.26 
L 855.373723 323.034976 
L 842.908221 323.034976 
z
" style="fill:#ff0047;stroke:#000000;stroke-linejoin:miter;stroke-width:0.5;"/>
   </g>
   <g id="patch_61">
    <path clip-path="url(#pda9d42596f)" d="M 942.632234 612.26 
L 955.097735 612.26 
L 955.097735 324.180447 
L 942.632234 324.180447 
z
" style="fill:#ff0047;stroke:#000000;stroke-linejoin:miter;stroke-width:0.5;"/>
   </g>
   <g id="patch_62">
    <path clip-path="url(#pda9d42596f)" d="M 1042.356246 612.26 
L 1054.821748 612.26 
L 1054.821748 325.00394 
L 1042.356246 325.00394 
z
" style="fill:#ff0047;stroke:#000000;stroke-linejoin:miter;stroke-width:0.5;"/>
   </g>
   <g id="patch_63">
    <path clip-path="url(#pda9d42596f)" d="M 157.305636 612.26 
L 169.771138 612.26 
L 169.771138 149.550604 
L 157.305636 149.550604 
z
" style="fill:#ec84ef;stroke:#000000;stroke-linejoin:miter;stroke-width:0.5;"/>
   </g>
   <g id="patch_64">
    <path clip-path="url(#pda9d42596f)" d="M 257.029648 612.26 
L 269.49515 612.26 
L 269.49515 149.556789 
L 257.029648 149.556789 
z
" style="fill:#ec84ef;stroke:#000000;stroke-linejoin:miter;stroke-width:0.5;"/>
   </g>
   <g id="patch_65">
    <path clip-path="url(#pda9d42596f)" d="M 356.753661 612.26 
L 369.219162 612.26 
L 369.219162 149.580187 
L 356.753661 149.580187 
z
" style="fill:#ec84ef;stroke:#000000;stroke-linejoin:miter;stroke-width:0.5;"/>
   </g>
   <g id="patch_66">
    <path clip-path="url(#pda9d42596f)" d="M 456.477673 612.26 
L 468.943175 612.26 
L 468.943175 149.616189 
L 456.477673 149.616189 
z
" style="fill:#ec84ef;stroke:#000000;stroke-linejoin:miter;stroke-width:0.5;"/>
   </g>
   <g id="patch_67">
    <path clip-path="url(#pda9d42596f)" d="M 556.201686 612.26 
L 568.667187 612.26 
L 568.667187 149.628543 
L 556.201686 149.628543 
z
" style="fill:#ec84ef;stroke:#000000;stroke-linejoin:miter;stroke-width:0.5;"/>
   </g>
   <g id="patch_68">
    <path clip-path="url(#pda9d42596f)" d="M 655.925698 612.26 
L 668.3912 612.26 
L 668.3912 149.640772 
L 655.925698 149.640772 
z
" style="fill:#ec84ef;stroke:#000000;stroke-linejoin:miter;stroke-width:0.5;"/>
   </g>
   <g id="patch_69">
    <path clip-path="url(#pda9d42596f)" d="M 755.64971 612.26 
L 768.115212 612.26 
L 768.115212 149.64304 
L 755.64971 149.64304 
z
" style="fill:#ec84ef;stroke:#000000;stroke-linejoin:miter;stroke-width:0.5;"/>
   </g>
   <g id="patch_70">
    <path clip-path="url(#pda9d42596f)" d="M 855.373723 612.26 
L 867.839224 612.26 
L 867.839224 149.647975 
L 855.373723 149.647975 
z
" style="fill:#ec84ef;stroke:#000000;stroke-linejoin:miter;stroke-width:0.5;"/>
   </g>
   <g id="patch_71">
    <path clip-path="url(#pda9d42596f)" d="M 955.097735 612.26 
L 967.563237 612.26 
L 967.563237 149.667624 
L 955.097735 149.667624 
z
" style="fill:#ec84ef;stroke:#000000;stroke-linejoin:miter;stroke-width:0.5;"/>
   </g>
   <g id="patch_72">
    <path clip-path="url(#pda9d42596f)" d="M 1054.821748 612.26 
L 1067.287249 612.26 
L 1067.287249 149.698904 
L 1054.821748 149.698904 
z
" style="fill:#ec84ef;stroke:#000000;stroke-linejoin:miter;stroke-width:0.5;"/>
   </g>
   <g id="patch_73">
    <path d="M 76.279876 111.195 
L 1073.52 111.195 
" style="fill:none;stroke:#000000;stroke-linecap:square;stroke-linejoin:miter;"/>
   </g>
   <g id="patch_74">
    <path d="M 1073.52 612.26 
L 1073.52 111.195 
" style="fill:none;stroke:#000000;stroke-linecap:square;stroke-linejoin:miter;"/>
   </g>
   <g id="patch_75">
    <path d="M 76.279876 612.26 
L 1073.52 612.26 
" style="fill:none;stroke:#000000;stroke-linecap:square;stroke-linejoin:miter;"/>
   </g>
   <g id="patch_76">
    <path d="M 76.279876 612.26 
L 76.279876 111.195 
" style="fill:none;stroke:#000000;stroke-linecap:square;stroke-linejoin:miter;"/>
   </g>
   <g id="matplotlib.axis_1">
    <g id="xtick_1">
     <g id="line2d_1">
      <defs>
       <path d="M 0 0 
L 0 -4 
" id="m05359fb28f" style="stroke:#000000;stroke-width:0.5;"/>
      </defs>
      <g>
       <use style="stroke:#000000;stroke-width:0.5;" x="126.141882178" xlink:href="#m05359fb28f" y="612.26"/>
      </g>
     </g>
     <g id="line2d_2">
      <defs>
       <path d="M 0 0 
L 0 4 
" id="ma954d47f2a" style="stroke:#000000;stroke-width:0.5;"/>
      </defs>
      <g>
       <use style="stroke:#000000;stroke-width:0.5;" x="126.141882178" xlink:href="#ma954d47f2a" y="111.195"/>
      </g>
     </g>
     <g id="text_1">
      <!-- 1 -->
      <defs>
       <path d="M 12.40625 8.296875 
L 28.515625 8.296875 
L 28.515625 63.921875 
L 10.984375 60.40625 
L 10.984375 69.390625 
L 28.421875 72.90625 
L 38.28125 72.90625 
L 38.28125 8.296875 
L 54.390625 8.296875 
L 54.390625 0 
L 12.40625 0 
z
" id="BitstreamVeraSans-Roman-31"/>
      </defs>
      <g transform="translate(121.051882178 628.4175)scale(0.16 -0.16)">
       <use xlink:href="#BitstreamVeraSans-Roman-31"/>
      </g>
     </g>
    </g>
    <g id="xtick_2">
     <g id="line2d_3">
      <g>
       <use style="stroke:#000000;stroke-width:0.5;" x="225.86589458" xlink:href="#m05359fb28f" y="612.26"/>
      </g>
     </g>
     <g id="line2d_4">
      <g>
       <use style="stroke:#000000;stroke-width:0.5;" x="225.86589458" xlink:href="#ma954d47f2a" y="111.195"/>
      </g>
     </g>
     <g id="text_2">
      <!-- 2 -->
      <defs>
       <path d="M 19.1875 8.296875 
L 53.609375 8.296875 
L 53.609375 0 
L 7.328125 0 
L 7.328125 8.296875 
Q 12.9375 14.109375 22.625 23.890625 
Q 32.328125 33.6875 34.8125 36.53125 
Q 39.546875 41.84375 41.421875 45.53125 
Q 43.3125 49.21875 43.3125 52.78125 
Q 43.3125 58.59375 39.234375 62.25 
Q 35.15625 65.921875 28.609375 65.921875 
Q 23.96875 65.921875 18.8125 64.3125 
Q 13.671875 62.703125 7.8125 59.421875 
L 7.8125 69.390625 
Q 13.765625 71.78125 18.9375 73 
Q 24.125 74.21875 28.421875 74.21875 
Q 39.75 74.21875 46.484375 68.546875 
Q 53.21875 62.890625 53.21875 53.421875 
Q 53.21875 48.921875 51.53125 44.890625 
Q 49.859375 40.875 45.40625 35.40625 
Q 44.1875 33.984375 37.640625 27.21875 
Q 31.109375 20.453125 19.1875 8.296875 
" id="BitstreamVeraSans-Roman-32"/>
      </defs>
      <g transform="translate(220.77589458 628.4175)scale(0.16 -0.16)">
       <use xlink:href="#BitstreamVeraSans-Roman-32"/>
      </g>
     </g>
    </g>
    <g id="xtick_3">
     <g id="line2d_5">
      <g>
       <use style="stroke:#000000;stroke-width:0.5;" x="325.589906982" xlink:href="#m05359fb28f" y="612.26"/>
      </g>
     </g>
     <g id="line2d_6">
      <g>
       <use style="stroke:#000000;stroke-width:0.5;" x="325.589906982" xlink:href="#ma954d47f2a" y="111.195"/>
      </g>
     </g>
     <g id="text_3">
      <!-- 3 -->
      <defs>
       <path d="M 40.578125 39.3125 
Q 47.65625 37.796875 51.625 33 
Q 55.609375 28.21875 55.609375 21.1875 
Q 55.609375 10.40625 48.1875 4.484375 
Q 40.765625 -1.421875 27.09375 -1.421875 
Q 22.515625 -1.421875 17.65625 -0.515625 
Q 12.796875 0.390625 7.625 2.203125 
L 7.625 11.71875 
Q 11.71875 9.328125 16.59375 8.109375 
Q 21.484375 6.890625 26.8125 6.890625 
Q 36.078125 6.890625 40.9375 10.546875 
Q 45.796875 14.203125 45.796875 21.1875 
Q 45.796875 27.640625 41.28125 31.265625 
Q 36.765625 34.90625 28.71875 34.90625 
L 20.21875 34.90625 
L 20.21875 43.015625 
L 29.109375 43.015625 
Q 36.375 43.015625 40.234375 45.921875 
Q 44.09375 48.828125 44.09375 54.296875 
Q 44.09375 59.90625 40.109375 62.90625 
Q 36.140625 65.921875 28.71875 65.921875 
Q 24.65625 65.921875 20.015625 65.03125 
Q 15.375 64.15625 9.8125 62.3125 
L 9.8125 71.09375 
Q 15.4375 72.65625 20.34375 73.4375 
Q 25.25 74.21875 29.59375 74.21875 
Q 40.828125 74.21875 47.359375 69.109375 
Q 53.90625 64.015625 53.90625 55.328125 
Q 53.90625 49.265625 50.4375 45.09375 
Q 46.96875 40.921875 40.578125 39.3125 
" id="BitstreamVeraSans-Roman-33"/>
      </defs>
      <g transform="translate(320.499906982 628.4175)scale(0.16 -0.16)">
       <use xlink:href="#BitstreamVeraSans-Roman-33"/>
      </g>
     </g>
    </g>
    <g id="xtick_4">
     <g id="line2d_7">
      <g>
       <use style="stroke:#000000;stroke-width:0.5;" x="425.313919385" xlink:href="#m05359fb28f" y="612.26"/>
      </g>
     </g>
     <g id="line2d_8">
      <g>
       <use style="stroke:#000000;stroke-width:0.5;" x="425.313919385" xlink:href="#ma954d47f2a" y="111.195"/>
      </g>
     </g>
     <g id="text_4">
      <!-- 4 -->
      <defs>
       <path d="M 37.796875 64.3125 
L 12.890625 25.390625 
L 37.796875 25.390625 
z
M 35.203125 72.90625 
L 47.609375 72.90625 
L 47.609375 25.390625 
L 58.015625 25.390625 
L 58.015625 17.1875 
L 47.609375 17.1875 
L 47.609375 0 
L 37.796875 0 
L 37.796875 17.1875 
L 4.890625 17.1875 
L 4.890625 26.703125 
z
" id="BitstreamVeraSans-Roman-34"/>
      </defs>
      <g transform="translate(420.223919385 628.4175)scale(0.16 -0.16)">
       <use xlink:href="#BitstreamVeraSans-Roman-34"/>
      </g>
     </g>
    </g>
    <g id="xtick_5">
     <g id="line2d_9">
      <g>
       <use style="stroke:#000000;stroke-width:0.5;" x="525.037931787" xlink:href="#m05359fb28f" y="612.26"/>
      </g>
     </g>
     <g id="line2d_10">
      <g>
       <use style="stroke:#000000;stroke-width:0.5;" x="525.037931787" xlink:href="#ma954d47f2a" y="111.195"/>
      </g>
     </g>
     <g id="text_5">
      <!-- 5 -->
      <defs>
       <path d="M 10.796875 72.90625 
L 49.515625 72.90625 
L 49.515625 64.59375 
L 19.828125 64.59375 
L 19.828125 46.734375 
Q 21.96875 47.46875 24.109375 47.828125 
Q 26.265625 48.1875 28.421875 48.1875 
Q 40.625 48.1875 47.75 41.5 
Q 54.890625 34.8125 54.890625 23.390625 
Q 54.890625 11.625 47.5625 5.09375 
Q 40.234375 -1.421875 26.90625 -1.421875 
Q 22.3125 -1.421875 17.546875 -0.640625 
Q 12.796875 0.140625 7.71875 1.703125 
L 7.71875 11.625 
Q 12.109375 9.234375 16.796875 8.0625 
Q 21.484375 6.890625 26.703125 6.890625 
Q 35.15625 6.890625 40.078125 11.328125 
Q 45.015625 15.765625 45.015625 23.390625 
Q 45.015625 31 40.078125 35.4375 
Q 35.15625 39.890625 26.703125 39.890625 
Q 22.75 39.890625 18.8125 39.015625 
Q 14.890625 38.140625 10.796875 36.28125 
z
" id="BitstreamVeraSans-Roman-35"/>
      </defs>
      <g transform="translate(519.947931787 628.4175)scale(0.16 -0.16)">
       <use xlink:href="#BitstreamVeraSans-Roman-35"/>
      </g>
     </g>
    </g>
    <g id="xtick_6">
     <g id="line2d_11">
      <g>
       <use style="stroke:#000000;stroke-width:0.5;" x="624.761944189" xlink:href="#m05359fb28f" y="612.26"/>
      </g>
     </g>
     <g id="line2d_12">
      <g>
       <use style="stroke:#000000;stroke-width:0.5;" x="624.761944189" xlink:href="#ma954d47f2a" y="111.195"/>
      </g>
     </g>
     <g id="text_6">
      <!-- 6 -->
      <defs>
       <path d="M 33.015625 40.375 
Q 26.375 40.375 22.484375 35.828125 
Q 18.609375 31.296875 18.609375 23.390625 
Q 18.609375 15.53125 22.484375 10.953125 
Q 26.375 6.390625 33.015625 6.390625 
Q 39.65625 6.390625 43.53125 10.953125 
Q 47.40625 15.53125 47.40625 23.390625 
Q 47.40625 31.296875 43.53125 35.828125 
Q 39.65625 40.375 33.015625 40.375 
M 52.59375 71.296875 
L 52.59375 62.3125 
Q 48.875 64.0625 45.09375 64.984375 
Q 41.3125 65.921875 37.59375 65.921875 
Q 27.828125 65.921875 22.671875 59.328125 
Q 17.53125 52.734375 16.796875 39.40625 
Q 19.671875 43.65625 24.015625 45.921875 
Q 28.375 48.1875 33.59375 48.1875 
Q 44.578125 48.1875 50.953125 41.515625 
Q 57.328125 34.859375 57.328125 23.390625 
Q 57.328125 12.15625 50.6875 5.359375 
Q 44.046875 -1.421875 33.015625 -1.421875 
Q 20.359375 -1.421875 13.671875 8.265625 
Q 6.984375 17.96875 6.984375 36.375 
Q 6.984375 53.65625 15.1875 63.9375 
Q 23.390625 74.21875 37.203125 74.21875 
Q 40.921875 74.21875 44.703125 73.484375 
Q 48.484375 72.75 52.59375 71.296875 
" id="BitstreamVeraSans-Roman-36"/>
      </defs>
      <g transform="translate(619.671944189 628.4175)scale(0.16 -0.16)">
       <use xlink:href="#BitstreamVeraSans-Roman-36"/>
      </g>
     </g>
    </g>
    <g id="xtick_7">
     <g id="line2d_13">
      <g>
       <use style="stroke:#000000;stroke-width:0.5;" x="724.485956592" xlink:href="#m05359fb28f" y="612.26"/>
      </g>
     </g>
     <g id="line2d_14">
      <g>
       <use style="stroke:#000000;stroke-width:0.5;" x="724.485956592" xlink:href="#ma954d47f2a" y="111.195"/>
      </g>
     </g>
     <g id="text_7">
      <!-- 7 -->
      <defs>
       <path d="M 8.203125 72.90625 
L 55.078125 72.90625 
L 55.078125 68.703125 
L 28.609375 0 
L 18.3125 0 
L 43.21875 64.59375 
L 8.203125 64.59375 
z
" id="BitstreamVeraSans-Roman-37"/>
      </defs>
      <g transform="translate(719.395956592 628.4175)scale(0.16 -0.16)">
       <use xlink:href="#BitstreamVeraSans-Roman-37"/>
      </g>
     </g>
    </g>
    <g id="xtick_8">
     <g id="line2d_15">
      <g>
       <use style="stroke:#000000;stroke-width:0.5;" x="824.209968994" xlink:href="#m05359fb28f" y="612.26"/>
      </g>
     </g>
     <g id="line2d_16">
      <g>
       <use style="stroke:#000000;stroke-width:0.5;" x="824.209968994" xlink:href="#ma954d47f2a" y="111.195"/>
      </g>
     </g>
     <g id="text_8">
      <!-- 8 -->
      <defs>
       <path d="M 31.78125 34.625 
Q 24.75 34.625 20.71875 30.859375 
Q 16.703125 27.09375 16.703125 20.515625 
Q 16.703125 13.921875 20.71875 10.15625 
Q 24.75 6.390625 31.78125 6.390625 
Q 38.8125 6.390625 42.859375 10.171875 
Q 46.921875 13.96875 46.921875 20.515625 
Q 46.921875 27.09375 42.890625 30.859375 
Q 38.875 34.625 31.78125 34.625 
M 21.921875 38.8125 
Q 15.578125 40.375 12.03125 44.71875 
Q 8.5 49.078125 8.5 55.328125 
Q 8.5 64.0625 14.71875 69.140625 
Q 20.953125 74.21875 31.78125 74.21875 
Q 42.671875 74.21875 48.875 69.140625 
Q 55.078125 64.0625 55.078125 55.328125 
Q 55.078125 49.078125 51.53125 44.71875 
Q 48 40.375 41.703125 38.8125 
Q 48.828125 37.15625 52.796875 32.3125 
Q 56.78125 27.484375 56.78125 20.515625 
Q 56.78125 9.90625 50.3125 4.234375 
Q 43.84375 -1.421875 31.78125 -1.421875 
Q 19.734375 -1.421875 13.25 4.234375 
Q 6.78125 9.90625 6.78125 20.515625 
Q 6.78125 27.484375 10.78125 32.3125 
Q 14.796875 37.15625 21.921875 38.8125 
M 18.3125 54.390625 
Q 18.3125 48.734375 21.84375 45.5625 
Q 25.390625 42.390625 31.78125 42.390625 
Q 38.140625 42.390625 41.71875 45.5625 
Q 45.3125 48.734375 45.3125 54.390625 
Q 45.3125 60.0625 41.71875 63.234375 
Q 38.140625 66.40625 31.78125 66.40625 
Q 25.390625 66.40625 21.84375 63.234375 
Q 18.3125 60.0625 18.3125 54.390625 
" id="BitstreamVeraSans-Roman-38"/>
      </defs>
      <g transform="translate(819.119968994 628.4175)scale(0.16 -0.16)">
       <use xlink:href="#BitstreamVeraSans-Roman-38"/>
      </g>
     </g>
    </g>
    <g id="xtick_9">
     <g id="line2d_17">
      <g>
       <use style="stroke:#000000;stroke-width:0.5;" x="923.933981396" xlink:href="#m05359fb28f" y="612.26"/>
      </g>
     </g>
     <g id="line2d_18">
      <g>
       <use style="stroke:#000000;stroke-width:0.5;" x="923.933981396" xlink:href="#ma954d47f2a" y="111.195"/>
      </g>
     </g>
     <g id="text_9">
      <!-- 9 -->
      <defs>
       <path d="M 10.984375 1.515625 
L 10.984375 10.5 
Q 14.703125 8.734375 18.5 7.8125 
Q 22.3125 6.890625 25.984375 6.890625 
Q 35.75 6.890625 40.890625 13.453125 
Q 46.046875 20.015625 46.78125 33.40625 
Q 43.953125 29.203125 39.59375 26.953125 
Q 35.25 24.703125 29.984375 24.703125 
Q 19.046875 24.703125 12.671875 31.3125 
Q 6.296875 37.9375 6.296875 49.421875 
Q 6.296875 60.640625 12.9375 67.421875 
Q 19.578125 74.21875 30.609375 74.21875 
Q 43.265625 74.21875 49.921875 64.515625 
Q 56.59375 54.828125 56.59375 36.375 
Q 56.59375 19.140625 48.40625 8.859375 
Q 40.234375 -1.421875 26.421875 -1.421875 
Q 22.703125 -1.421875 18.890625 -0.6875 
Q 15.09375 0.046875 10.984375 1.515625 
M 30.609375 32.421875 
Q 37.25 32.421875 41.125 36.953125 
Q 45.015625 41.5 45.015625 49.421875 
Q 45.015625 57.28125 41.125 61.84375 
Q 37.25 66.40625 30.609375 66.40625 
Q 23.96875 66.40625 20.09375 61.84375 
Q 16.21875 57.28125 16.21875 49.421875 
Q 16.21875 41.5 20.09375 36.953125 
Q 23.96875 32.421875 30.609375 32.421875 
" id="BitstreamVeraSans-Roman-39"/>
      </defs>
      <g transform="translate(918.843981396 628.4175)scale(0.16 -0.16)">
       <use xlink:href="#BitstreamVeraSans-Roman-39"/>
      </g>
     </g>
    </g>
    <g id="xtick_10">
     <g id="line2d_19">
      <g>
       <use style="stroke:#000000;stroke-width:0.5;" x="1023.6579938" xlink:href="#m05359fb28f" y="612.26"/>
      </g>
     </g>
     <g id="line2d_20">
      <g>
       <use style="stroke:#000000;stroke-width:0.5;" x="1023.6579938" xlink:href="#ma954d47f2a" y="111.195"/>
      </g>
     </g>
     <g id="text_10">
      <!-- 10 -->
      <defs>
       <path d="M 31.78125 66.40625 
Q 24.171875 66.40625 20.328125 58.90625 
Q 16.5 51.421875 16.5 36.375 
Q 16.5 21.390625 20.328125 13.890625 
Q 24.171875 6.390625 31.78125 6.390625 
Q 39.453125 6.390625 43.28125 13.890625 
Q 47.125 21.390625 47.125 36.375 
Q 47.125 51.421875 43.28125 58.90625 
Q 39.453125 66.40625 31.78125 66.40625 
M 31.78125 74.21875 
Q 44.046875 74.21875 50.515625 64.515625 
Q 56.984375 54.828125 56.984375 36.375 
Q 56.984375 17.96875 50.515625 8.265625 
Q 44.046875 -1.421875 31.78125 -1.421875 
Q 19.53125 -1.421875 13.0625 8.265625 
Q 6.59375 17.96875 6.59375 36.375 
Q 6.59375 54.828125 13.0625 64.515625 
Q 19.53125 74.21875 31.78125 74.21875 
" id="BitstreamVeraSans-Roman-30"/>
      </defs>
      <g transform="translate(1013.4779938 628.4175)scale(0.16 -0.16)">
       <use xlink:href="#BitstreamVeraSans-Roman-31"/>
       <use x="63.623046875" xlink:href="#BitstreamVeraSans-Roman-30"/>
      </g>
     </g>
    </g>
    <g id="text_11">
     <!-- Slaves -->
     <defs>
      <path d="M 9.421875 75.984375 
L 18.40625 75.984375 
L 18.40625 0 
L 9.421875 0 
z
" id="BitstreamVeraSans-Roman-6c"/>
      <path d="M 56.203125 29.59375 
L 56.203125 25.203125 
L 14.890625 25.203125 
Q 15.484375 15.921875 20.484375 11.0625 
Q 25.484375 6.203125 34.421875 6.203125 
Q 39.59375 6.203125 44.453125 7.46875 
Q 49.3125 8.734375 54.109375 11.28125 
L 54.109375 2.78125 
Q 49.265625 0.734375 44.1875 -0.34375 
Q 39.109375 -1.421875 33.890625 -1.421875 
Q 20.796875 -1.421875 13.15625 6.1875 
Q 5.515625 13.8125 5.515625 26.8125 
Q 5.515625 40.234375 12.765625 48.109375 
Q 20.015625 56 32.328125 56 
Q 43.359375 56 49.78125 48.890625 
Q 56.203125 41.796875 56.203125 29.59375 
M 47.21875 32.234375 
Q 47.125 39.59375 43.09375 43.984375 
Q 39.0625 48.390625 32.421875 48.390625 
Q 24.90625 48.390625 20.390625 44.140625 
Q 15.875 39.890625 15.1875 32.171875 
z
" id="BitstreamVeraSans-Roman-65"/>
      <path d="M 53.515625 70.515625 
L 53.515625 60.890625 
Q 47.90625 63.578125 42.921875 64.890625 
Q 37.9375 66.21875 33.296875 66.21875 
Q 25.25 66.21875 20.875 63.09375 
Q 16.5 59.96875 16.5 54.203125 
Q 16.5 49.359375 19.40625 46.890625 
Q 22.3125 44.4375 30.421875 42.921875 
L 36.375 41.703125 
Q 47.40625 39.59375 52.65625 34.296875 
Q 57.90625 29 57.90625 20.125 
Q 57.90625 9.515625 50.796875 4.046875 
Q 43.703125 -1.421875 29.984375 -1.421875 
Q 24.8125 -1.421875 18.96875 -0.25 
Q 13.140625 0.921875 6.890625 3.21875 
L 6.890625 13.375 
Q 12.890625 10.015625 18.65625 8.296875 
Q 24.421875 6.59375 29.984375 6.59375 
Q 38.421875 6.59375 43.015625 9.90625 
Q 47.609375 13.234375 47.609375 19.390625 
Q 47.609375 24.75 44.3125 27.78125 
Q 41.015625 30.8125 33.5 32.328125 
L 27.484375 33.5 
Q 16.453125 35.6875 11.515625 40.375 
Q 6.59375 45.0625 6.59375 53.421875 
Q 6.59375 63.09375 13.40625 68.65625 
Q 20.21875 74.21875 32.171875 74.21875 
Q 37.3125 74.21875 42.625 73.28125 
Q 47.953125 72.359375 53.515625 70.515625 
" id="BitstreamVeraSans-Roman-53"/>
      <path d="M 2.984375 54.6875 
L 12.5 54.6875 
L 29.59375 8.796875 
L 46.6875 54.6875 
L 56.203125 54.6875 
L 35.6875 0 
L 23.484375 0 
z
" id="BitstreamVeraSans-Roman-76"/>
      <path d="M 34.28125 27.484375 
Q 23.390625 27.484375 19.1875 25 
Q 14.984375 22.515625 14.984375 16.5 
Q 14.984375 11.71875 18.140625 8.90625 
Q 21.296875 6.109375 26.703125 6.109375 
Q 34.1875 6.109375 38.703125 11.40625 
Q 43.21875 16.703125 43.21875 25.484375 
L 43.21875 27.484375 
z
M 52.203125 31.203125 
L 52.203125 0 
L 43.21875 0 
L 43.21875 8.296875 
Q 40.140625 3.328125 35.546875 0.953125 
Q 30.953125 -1.421875 24.3125 -1.421875 
Q 15.921875 -1.421875 10.953125 3.296875 
Q 6 8.015625 6 15.921875 
Q 6 25.140625 12.171875 29.828125 
Q 18.359375 34.515625 30.609375 34.515625 
L 43.21875 34.515625 
L 43.21875 35.40625 
Q 43.21875 41.609375 39.140625 45 
Q 35.0625 48.390625 27.6875 48.390625 
Q 23 48.390625 18.546875 47.265625 
Q 14.109375 46.140625 10.015625 43.890625 
L 10.015625 52.203125 
Q 14.9375 54.109375 19.578125 55.046875 
Q 24.21875 56 28.609375 56 
Q 40.484375 56 46.34375 49.84375 
Q 52.203125 43.703125 52.203125 31.203125 
" id="BitstreamVeraSans-Roman-61"/>
      <path d="M 44.28125 53.078125 
L 44.28125 44.578125 
Q 40.484375 46.53125 36.375 47.5 
Q 32.28125 48.484375 27.875 48.484375 
Q 21.1875 48.484375 17.84375 46.4375 
Q 14.5 44.390625 14.5 40.28125 
Q 14.5 37.15625 16.890625 35.375 
Q 19.28125 33.59375 26.515625 31.984375 
L 29.59375 31.296875 
Q 39.15625 29.25 43.1875 25.515625 
Q 47.21875 21.78125 47.21875 15.09375 
Q 47.21875 7.46875 41.1875 3.015625 
Q 35.15625 -1.421875 24.609375 -1.421875 
Q 20.21875 -1.421875 15.453125 -0.5625 
Q 10.6875 0.296875 5.421875 2 
L 5.421875 11.28125 
Q 10.40625 8.6875 15.234375 7.390625 
Q 20.0625 6.109375 24.8125 6.109375 
Q 31.15625 6.109375 34.5625 8.28125 
Q 37.984375 10.453125 37.984375 14.40625 
Q 37.984375 18.0625 35.515625 20.015625 
Q 33.0625 21.96875 24.703125 23.78125 
L 21.578125 24.515625 
Q 13.234375 26.265625 9.515625 29.90625 
Q 5.8125 33.546875 5.8125 39.890625 
Q 5.8125 47.609375 11.28125 51.796875 
Q 16.75 56 26.8125 56 
Q 31.78125 56 36.171875 55.265625 
Q 40.578125 54.546875 44.28125 53.078125 
" id="BitstreamVeraSans-Roman-73"/>
     </defs>
     <g transform="translate(548.871187988 645.4025)scale(0.16 -0.16)">
      <use xlink:href="#BitstreamVeraSans-Roman-53"/>
      <use x="63.4765625" xlink:href="#BitstreamVeraSans-Roman-6c"/>
      <use x="91.259765625" xlink:href="#BitstreamVeraSans-Roman-61"/>
      <use x="152.5390625" xlink:href="#BitstreamVeraSans-Roman-76"/>
      <use x="211.71875" xlink:href="#BitstreamVeraSans-Roman-65"/>
      <use x="273.2421875" xlink:href="#BitstreamVeraSans-Roman-73"/>
     </g>
    </g>
   </g>
   <g id="matplotlib.axis_2">
    <g id="ytick_1">
     <g id="line2d_21">
      <defs>
       <path d="M 0 0 
L 4 0 
" id="m931af9aafd" style="stroke:#000000;stroke-width:0.5;"/>
      </defs>
      <g>
       <use style="stroke:#000000;stroke-width:0.5;" x="76.2798759766" xlink:href="#m931af9aafd" y="612.26"/>
      </g>
     </g>
     <g id="line2d_22">
      <defs>
       <path d="M 0 0 
L -4 0 
" id="m4eff4ea5bb" style="stroke:#000000;stroke-width:0.5;"/>
      </defs>
      <g>
       <use style="stroke:#000000;stroke-width:0.5;" x="1073.52" xlink:href="#m4eff4ea5bb" y="612.26"/>
      </g>
     </g>
     <g id="text_12">
      <!-- $\mathdefault{0}$ -->
      <g transform="translate(62.0398759766 616.675)scale(0.16 -0.16)">
       <use transform="translate(0.0 0.78125)" xlink:href="#BitstreamVeraSans-Roman-30"/>
      </g>
     </g>
    </g>
    <g id="ytick_2">
     <g id="line2d_23">
      <g>
       <use style="stroke:#000000;stroke-width:0.5;" x="76.2798759766" xlink:href="#m931af9aafd" y="533.96859375"/>
      </g>
     </g>
     <g id="line2d_24">
      <g>
       <use style="stroke:#000000;stroke-width:0.5;" x="1073.52" xlink:href="#m4eff4ea5bb" y="533.96859375"/>
      </g>
     </g>
     <g id="text_13">
      <!-- $\mathdefault{10^{1}}$ -->
      <g transform="translate(42.5198759766 538.72109375)scale(0.16 -0.16)">
       <use transform="translate(0.0 0.715625)" xlink:href="#BitstreamVeraSans-Roman-31"/>
       <use transform="translate(63.623046875 0.715625)" xlink:href="#BitstreamVeraSans-Roman-30"/>
       <use transform="translate(132.75859375 47.965625)scale(0.7)" xlink:href="#BitstreamVeraSans-Roman-31"/>
      </g>
     </g>
    </g>
    <g id="ytick_3">
     <g id="line2d_25">
      <g>
       <use style="stroke:#000000;stroke-width:0.5;" x="76.2798759766" xlink:href="#m931af9aafd" y="463.506328125"/>
      </g>
     </g>
     <g id="line2d_26">
      <g>
       <use style="stroke:#000000;stroke-width:0.5;" x="1073.52" xlink:href="#m4eff4ea5bb" y="463.506328125"/>
      </g>
     </g>
     <g id="text_14">
      <!-- $\mathdefault{10^{2}}$ -->
      <g transform="translate(42.5198759766 468.338828125)scale(0.16 -0.16)">
       <use transform="translate(0.0 0.796875)" xlink:href="#BitstreamVeraSans-Roman-31"/>
       <use transform="translate(63.623046875 0.796875)" xlink:href="#BitstreamVeraSans-Roman-30"/>
       <use transform="translate(132.75859375 48.046875)scale(0.7)" xlink:href="#BitstreamVeraSans-Roman-32"/>
      </g>
     </g>
    </g>
    <g id="ytick_4">
     <g id="line2d_27">
      <g>
       <use style="stroke:#000000;stroke-width:0.5;" x="76.2798759766" xlink:href="#m931af9aafd" y="393.0440625"/>
      </g>
     </g>
     <g id="line2d_28">
      <g>
       <use style="stroke:#000000;stroke-width:0.5;" x="1073.52" xlink:href="#m4eff4ea5bb" y="393.0440625"/>
      </g>
     </g>
     <g id="text_15">
      <!-- $\mathdefault{10^{3}}$ -->
      <g transform="translate(42.5198759766 397.8765625)scale(0.16 -0.16)">
       <use transform="translate(0.0 0.796875)" xlink:href="#BitstreamVeraSans-Roman-31"/>
       <use transform="translate(63.623046875 0.796875)" xlink:href="#BitstreamVeraSans-Roman-30"/>
       <use transform="translate(132.75859375 48.046875)scale(0.7)" xlink:href="#BitstreamVeraSans-Roman-33"/>
      </g>
     </g>
    </g>
    <g id="ytick_5">
     <g id="line2d_29">
      <g>
       <use style="stroke:#000000;stroke-width:0.5;" x="76.2798759766" xlink:href="#m931af9aafd" y="322.581796875"/>
      </g>
     </g>
     <g id="line2d_30">
      <g>
       <use style="stroke:#000000;stroke-width:0.5;" x="1073.52" xlink:href="#m4eff4ea5bb" y="322.581796875"/>
      </g>
     </g>
     <g id="text_16">
      <!-- $\mathdefault{10^{4}}$ -->
      <g transform="translate(42.5198759766 327.334296875)scale(0.16 -0.16)">
       <use transform="translate(0.0 0.715625)" xlink:href="#BitstreamVeraSans-Roman-31"/>
       <use transform="translate(63.623046875 0.715625)" xlink:href="#BitstreamVeraSans-Roman-30"/>
       <use transform="translate(132.75859375 47.965625)scale(0.7)" xlink:href="#BitstreamVeraSans-Roman-34"/>
      </g>
     </g>
    </g>
    <g id="ytick_6">
     <g id="line2d_31">
      <g>
       <use style="stroke:#000000;stroke-width:0.5;" x="76.2798759766" xlink:href="#m931af9aafd" y="252.11953125"/>
      </g>
     </g>
     <g id="line2d_32">
      <g>
       <use style="stroke:#000000;stroke-width:0.5;" x="1073.52" xlink:href="#m4eff4ea5bb" y="252.11953125"/>
      </g>
     </g>
     <g id="text_17">
      <!-- $\mathdefault{10^{5}}$ -->
      <g transform="translate(42.5198759766 256.87203125)scale(0.16 -0.16)">
       <use transform="translate(0.0 0.715625)" xlink:href="#BitstreamVeraSans-Roman-31"/>
       <use transform="translate(63.623046875 0.715625)" xlink:href="#BitstreamVeraSans-Roman-30"/>
       <use transform="translate(132.75859375 47.965625)scale(0.7)" xlink:href="#BitstreamVeraSans-Roman-35"/>
      </g>
     </g>
    </g>
    <g id="ytick_7">
     <g id="line2d_33">
      <g>
       <use style="stroke:#000000;stroke-width:0.5;" x="76.2798759766" xlink:href="#m931af9aafd" y="181.657265625"/>
      </g>
     </g>
     <g id="line2d_34">
      <g>
       <use style="stroke:#000000;stroke-width:0.5;" x="1073.52" xlink:href="#m4eff4ea5bb" y="181.657265625"/>
      </g>
     </g>
     <g id="text_18">
      <!-- $\mathdefault{10^{6}}$ -->
      <g transform="translate(42.5198759766 186.489765625)scale(0.16 -0.16)">
       <use transform="translate(0.0 0.796875)" xlink:href="#BitstreamVeraSans-Roman-31"/>
       <use transform="translate(63.623046875 0.796875)" xlink:href="#BitstreamVeraSans-Roman-30"/>
       <use transform="translate(132.75859375 48.046875)scale(0.7)" xlink:href="#BitstreamVeraSans-Roman-36"/>
      </g>
     </g>
    </g>
    <g id="ytick_8">
     <g id="line2d_35">
      <g>
       <use style="stroke:#000000;stroke-width:0.5;" x="76.2798759766" xlink:href="#m931af9aafd" y="111.195"/>
      </g>
     </g>
     <g id="line2d_36">
      <g>
       <use style="stroke:#000000;stroke-width:0.5;" x="1073.52" xlink:href="#m4eff4ea5bb" y="111.195"/>
      </g>
     </g>
     <g id="text_19">
      <!-- $\mathdefault{10^{7}}$ -->
      <g transform="translate(42.5198759766 115.9475)scale(0.16 -0.16)">
       <use transform="translate(0.0 0.715625)" xlink:href="#BitstreamVeraSans-Roman-31"/>
       <use transform="translate(63.623046875 0.715625)" xlink:href="#BitstreamVeraSans-Roman-30"/>
       <use transform="translate(132.75859375 47.965625)scale(0.7)" xlink:href="#BitstreamVeraSans-Roman-37"/>
      </g>
     </g>
    </g>
    <g id="ytick_9">
     <g id="line2d_37">
      <defs>
       <path d="M 0 0 
L 2 0 
" id="m904edeb5c5" style="stroke:#000000;stroke-width:0.5;"/>
      </defs>
      <g>
       <use style="stroke:#000000;stroke-width:0.5;" x="76.2798759766" xlink:href="#m904edeb5c5" y="612.26"/>
      </g>
     </g>
     <g id="line2d_38">
      <defs>
       <path d="M 0 0 
L -2 0 
" id="m135d68d7a6" style="stroke:#000000;stroke-width:0.5;"/>
      </defs>
      <g>
       <use style="stroke:#000000;stroke-width:0.5;" x="1073.52" xlink:href="#m135d68d7a6" y="612.26"/>
      </g>
     </g>
    </g>
    <g id="ytick_10">
     <g id="line2d_39">
      <g>
       <use style="stroke:#000000;stroke-width:0.5;" x="76.2798759766" xlink:href="#m904edeb5c5" y="533.96859375"/>
      </g>
     </g>
     <g id="line2d_40">
      <g>
       <use style="stroke:#000000;stroke-width:0.5;" x="1073.52" xlink:href="#m135d68d7a6" y="533.96859375"/>
      </g>
     </g>
    </g>
    <g id="ytick_11">
     <g id="line2d_41">
      <g>
       <use style="stroke:#000000;stroke-width:0.5;" x="76.2798759766" xlink:href="#m904edeb5c5" y="463.506328125"/>
      </g>
     </g>
     <g id="line2d_42">
      <g>
       <use style="stroke:#000000;stroke-width:0.5;" x="1073.52" xlink:href="#m135d68d7a6" y="463.506328125"/>
      </g>
     </g>
    </g>
    <g id="ytick_12">
     <g id="line2d_43">
      <g>
       <use style="stroke:#000000;stroke-width:0.5;" x="76.2798759766" xlink:href="#m904edeb5c5" y="393.0440625"/>
      </g>
     </g>
     <g id="line2d_44">
      <g>
       <use style="stroke:#000000;stroke-width:0.5;" x="1073.52" xlink:href="#m135d68d7a6" y="393.0440625"/>
      </g>
     </g>
    </g>
    <g id="ytick_13">
     <g id="line2d_45">
      <g>
       <use style="stroke:#000000;stroke-width:0.5;" x="76.2798759766" xlink:href="#m904edeb5c5" y="322.581796875"/>
      </g>
     </g>
     <g id="line2d_46">
      <g>
       <use style="stroke:#000000;stroke-width:0.5;" x="1073.52" xlink:href="#m135d68d7a6" y="322.581796875"/>
      </g>
     </g>
    </g>
    <g id="ytick_14">
     <g id="line2d_47">
      <g>
       <use style="stroke:#000000;stroke-width:0.5;" x="76.2798759766" xlink:href="#m904edeb5c5" y="252.11953125"/>
      </g>
     </g>
     <g id="line2d_48">
      <g>
       <use style="stroke:#000000;stroke-width:0.5;" x="1073.52" xlink:href="#m135d68d7a6" y="252.11953125"/>
      </g>
     </g>
    </g>
    <g id="ytick_15">
     <g id="line2d_49">
      <g>
       <use style="stroke:#000000;stroke-width:0.5;" x="76.2798759766" xlink:href="#m904edeb5c5" y="181.657265625"/>
      </g>
     </g>
     <g id="line2d_50">
      <g>
       <use style="stroke:#000000;stroke-width:0.5;" x="1073.52" xlink:href="#m135d68d7a6" y="181.657265625"/>
      </g>
     </g>
    </g>
    <g id="ytick_16">
     <g id="line2d_51">
      <g>
       <use style="stroke:#000000;stroke-width:0.5;" x="76.2798759766" xlink:href="#m904edeb5c5" y="111.195"/>
      </g>
     </g>
     <g id="line2d_52">
      <g>
       <use style="stroke:#000000;stroke-width:0.5;" x="1073.52" xlink:href="#m135d68d7a6" y="111.195"/>
      </g>
     </g>
    </g>
    <g id="text_20">
     <!-- Number of Matched Triples -->
     <defs>
      <path id="BitstreamVeraSans-Roman-20"/>
      <path d="M 9.8125 72.90625 
L 23.09375 72.90625 
L 55.421875 11.921875 
L 55.421875 72.90625 
L 64.984375 72.90625 
L 64.984375 0 
L 51.703125 0 
L 19.390625 60.984375 
L 19.390625 0 
L 9.8125 0 
z
" id="BitstreamVeraSans-Roman-4e"/>
      <path d="M 37.109375 75.984375 
L 37.109375 68.5 
L 28.515625 68.5 
Q 23.6875 68.5 21.796875 66.546875 
Q 19.921875 64.59375 19.921875 59.515625 
L 19.921875 54.6875 
L 34.71875 54.6875 
L 34.71875 47.703125 
L 19.921875 47.703125 
L 19.921875 0 
L 10.890625 0 
L 10.890625 47.703125 
L 2.296875 47.703125 
L 2.296875 54.6875 
L 10.890625 54.6875 
L 10.890625 58.5 
Q 10.890625 67.625 15.140625 71.796875 
Q 19.390625 75.984375 28.609375 75.984375 
z
" id="BitstreamVeraSans-Roman-66"/>
      <path d="M 18.109375 8.203125 
L 18.109375 -20.796875 
L 9.078125 -20.796875 
L 9.078125 54.6875 
L 18.109375 54.6875 
L 18.109375 46.390625 
Q 20.953125 51.265625 25.265625 53.625 
Q 29.59375 56 35.59375 56 
Q 45.5625 56 51.78125 48.09375 
Q 58.015625 40.1875 58.015625 27.296875 
Q 58.015625 14.40625 51.78125 6.484375 
Q 45.5625 -1.421875 35.59375 -1.421875 
Q 29.59375 -1.421875 25.265625 0.953125 
Q 20.953125 3.328125 18.109375 8.203125 
M 48.6875 27.296875 
Q 48.6875 37.203125 44.609375 42.84375 
Q 40.53125 48.484375 33.40625 48.484375 
Q 26.265625 48.484375 22.1875 42.84375 
Q 18.109375 37.203125 18.109375 27.296875 
Q 18.109375 17.390625 22.1875 11.75 
Q 26.265625 6.109375 33.40625 6.109375 
Q 40.53125 6.109375 44.609375 11.75 
Q 48.6875 17.390625 48.6875 27.296875 
" id="BitstreamVeraSans-Roman-70"/>
      <path d="M 52 44.1875 
Q 55.375 50.25 60.0625 53.125 
Q 64.75 56 71.09375 56 
Q 79.640625 56 84.28125 50.015625 
Q 88.921875 44.046875 88.921875 33.015625 
L 88.921875 0 
L 79.890625 0 
L 79.890625 32.71875 
Q 79.890625 40.578125 77.09375 44.375 
Q 74.3125 48.1875 68.609375 48.1875 
Q 61.625 48.1875 57.5625 43.546875 
Q 53.515625 38.921875 53.515625 30.90625 
L 53.515625 0 
L 44.484375 0 
L 44.484375 32.71875 
Q 44.484375 40.625 41.703125 44.40625 
Q 38.921875 48.1875 33.109375 48.1875 
Q 26.21875 48.1875 22.15625 43.53125 
Q 18.109375 38.875 18.109375 30.90625 
L 18.109375 0 
L 9.078125 0 
L 9.078125 54.6875 
L 18.109375 54.6875 
L 18.109375 46.1875 
Q 21.1875 51.21875 25.484375 53.609375 
Q 29.78125 56 35.6875 56 
Q 41.65625 56 45.828125 52.96875 
Q 50 49.953125 52 44.1875 
" id="BitstreamVeraSans-Roman-6d"/>
      <path d="M 9.421875 54.6875 
L 18.40625 54.6875 
L 18.40625 0 
L 9.421875 0 
z
M 9.421875 75.984375 
L 18.40625 75.984375 
L 18.40625 64.59375 
L 9.421875 64.59375 
z
" id="BitstreamVeraSans-Roman-69"/>
      <path d="M 30.609375 48.390625 
Q 23.390625 48.390625 19.1875 42.75 
Q 14.984375 37.109375 14.984375 27.296875 
Q 14.984375 17.484375 19.15625 11.84375 
Q 23.34375 6.203125 30.609375 6.203125 
Q 37.796875 6.203125 41.984375 11.859375 
Q 46.1875 17.53125 46.1875 27.296875 
Q 46.1875 37.015625 41.984375 42.703125 
Q 37.796875 48.390625 30.609375 48.390625 
M 30.609375 56 
Q 42.328125 56 49.015625 48.375 
Q 55.71875 40.765625 55.71875 27.296875 
Q 55.71875 13.875 49.015625 6.21875 
Q 42.328125 -1.421875 30.609375 -1.421875 
Q 18.84375 -1.421875 12.171875 6.21875 
Q 5.515625 13.875 5.515625 27.296875 
Q 5.515625 40.765625 12.171875 48.375 
Q 18.84375 56 30.609375 56 
" id="BitstreamVeraSans-Roman-6f"/>
      <path d="M 9.8125 72.90625 
L 24.515625 72.90625 
L 43.109375 23.296875 
L 61.8125 72.90625 
L 76.515625 72.90625 
L 76.515625 0 
L 66.890625 0 
L 66.890625 64.015625 
L 48.09375 14.015625 
L 38.1875 14.015625 
L 19.390625 64.015625 
L 19.390625 0 
L 9.8125 0 
z
" id="BitstreamVeraSans-Roman-4d"/>
      <path d="M -0.296875 72.90625 
L 61.375 72.90625 
L 61.375 64.59375 
L 35.5 64.59375 
L 35.5 0 
L 25.59375 0 
L 25.59375 64.59375 
L -0.296875 64.59375 
z
" id="BitstreamVeraSans-Roman-54"/>
      <path d="M 54.890625 33.015625 
L 54.890625 0 
L 45.90625 0 
L 45.90625 32.71875 
Q 45.90625 40.484375 42.875 44.328125 
Q 39.84375 48.1875 33.796875 48.1875 
Q 26.515625 48.1875 22.3125 43.546875 
Q 18.109375 38.921875 18.109375 30.90625 
L 18.109375 0 
L 9.078125 0 
L 9.078125 75.984375 
L 18.109375 75.984375 
L 18.109375 46.1875 
Q 21.34375 51.125 25.703125 53.5625 
Q 30.078125 56 35.796875 56 
Q 45.21875 56 50.046875 50.171875 
Q 54.890625 44.34375 54.890625 33.015625 
" id="BitstreamVeraSans-Roman-68"/>
      <path d="M 45.40625 46.390625 
L 45.40625 75.984375 
L 54.390625 75.984375 
L 54.390625 0 
L 45.40625 0 
L 45.40625 8.203125 
Q 42.578125 3.328125 38.25 0.953125 
Q 33.9375 -1.421875 27.875 -1.421875 
Q 17.96875 -1.421875 11.734375 6.484375 
Q 5.515625 14.40625 5.515625 27.296875 
Q 5.515625 40.1875 11.734375 48.09375 
Q 17.96875 56 27.875 56 
Q 33.9375 56 38.25 53.625 
Q 42.578125 51.265625 45.40625 46.390625 
M 14.796875 27.296875 
Q 14.796875 17.390625 18.875 11.75 
Q 22.953125 6.109375 30.078125 6.109375 
Q 37.203125 6.109375 41.296875 11.75 
Q 45.40625 17.390625 45.40625 27.296875 
Q 45.40625 37.203125 41.296875 42.84375 
Q 37.203125 48.484375 30.078125 48.484375 
Q 22.953125 48.484375 18.875 42.84375 
Q 14.796875 37.203125 14.796875 27.296875 
" id="BitstreamVeraSans-Roman-64"/>
      <path d="M 18.3125 70.21875 
L 18.3125 54.6875 
L 36.8125 54.6875 
L 36.8125 47.703125 
L 18.3125 47.703125 
L 18.3125 18.015625 
Q 18.3125 11.328125 20.140625 9.421875 
Q 21.96875 7.515625 27.59375 7.515625 
L 36.8125 7.515625 
L 36.8125 0 
L 27.59375 0 
Q 17.1875 0 13.234375 3.875 
Q 9.28125 7.765625 9.28125 18.015625 
L 9.28125 47.703125 
L 2.6875 47.703125 
L 2.6875 54.6875 
L 9.28125 54.6875 
L 9.28125 70.21875 
z
" id="BitstreamVeraSans-Roman-74"/>
      <path d="M 8.5 21.578125 
L 8.5 54.6875 
L 17.484375 54.6875 
L 17.484375 21.921875 
Q 17.484375 14.15625 20.5 10.265625 
Q 23.53125 6.390625 29.59375 6.390625 
Q 36.859375 6.390625 41.078125 11.03125 
Q 45.3125 15.671875 45.3125 23.6875 
L 45.3125 54.6875 
L 54.296875 54.6875 
L 54.296875 0 
L 45.3125 0 
L 45.3125 8.40625 
Q 42.046875 3.421875 37.71875 1 
Q 33.40625 -1.421875 27.6875 -1.421875 
Q 18.265625 -1.421875 13.375 4.4375 
Q 8.5 10.296875 8.5 21.578125 
" id="BitstreamVeraSans-Roman-75"/>
      <path d="M 41.109375 46.296875 
Q 39.59375 47.171875 37.8125 47.578125 
Q 36.03125 48 33.890625 48 
Q 26.265625 48 22.1875 43.046875 
Q 18.109375 38.09375 18.109375 28.8125 
L 18.109375 0 
L 9.078125 0 
L 9.078125 54.6875 
L 18.109375 54.6875 
L 18.109375 46.1875 
Q 20.953125 51.171875 25.484375 53.578125 
Q 30.03125 56 36.53125 56 
Q 37.453125 56 38.578125 55.875 
Q 39.703125 55.765625 41.0625 55.515625 
z
" id="BitstreamVeraSans-Roman-72"/>
      <path d="M 48.78125 52.59375 
L 48.78125 44.1875 
Q 44.96875 46.296875 41.140625 47.34375 
Q 37.3125 48.390625 33.40625 48.390625 
Q 24.65625 48.390625 19.8125 42.84375 
Q 14.984375 37.3125 14.984375 27.296875 
Q 14.984375 17.28125 19.8125 11.734375 
Q 24.65625 6.203125 33.40625 6.203125 
Q 37.3125 6.203125 41.140625 7.25 
Q 44.96875 8.296875 48.78125 10.40625 
L 48.78125 2.09375 
Q 45.015625 0.34375 40.984375 -0.53125 
Q 36.96875 -1.421875 32.421875 -1.421875 
Q 20.0625 -1.421875 12.78125 6.34375 
Q 5.515625 14.109375 5.515625 27.296875 
Q 5.515625 40.671875 12.859375 48.328125 
Q 20.21875 56 33.015625 56 
Q 37.15625 56 41.109375 55.140625 
Q 45.0625 54.296875 48.78125 52.59375 
" id="BitstreamVeraSans-Roman-63"/>
      <path d="M 48.6875 27.296875 
Q 48.6875 37.203125 44.609375 42.84375 
Q 40.53125 48.484375 33.40625 48.484375 
Q 26.265625 48.484375 22.1875 42.84375 
Q 18.109375 37.203125 18.109375 27.296875 
Q 18.109375 17.390625 22.1875 11.75 
Q 26.265625 6.109375 33.40625 6.109375 
Q 40.53125 6.109375 44.609375 11.75 
Q 48.6875 17.390625 48.6875 27.296875 
M 18.109375 46.390625 
Q 20.953125 51.265625 25.265625 53.625 
Q 29.59375 56 35.59375 56 
Q 45.5625 56 51.78125 48.09375 
Q 58.015625 40.1875 58.015625 27.296875 
Q 58.015625 14.40625 51.78125 6.484375 
Q 45.5625 -1.421875 35.59375 -1.421875 
Q 29.59375 -1.421875 25.265625 0.953125 
Q 20.953125 3.328125 18.109375 8.203125 
L 18.109375 0 
L 9.078125 0 
L 9.078125 75.984375 
L 18.109375 75.984375 
z
" id="BitstreamVeraSans-Roman-62"/>
     </defs>
     <g transform="translate(19.7758759766 470.38625)rotate(-90.0)scale(0.16 -0.16)">
      <use xlink:href="#BitstreamVeraSans-Roman-4e"/>
      <use x="74.8046875" xlink:href="#BitstreamVeraSans-Roman-75"/>
      <use x="138.18359375" xlink:href="#BitstreamVeraSans-Roman-6d"/>
      <use x="235.595703125" xlink:href="#BitstreamVeraSans-Roman-62"/>
      <use x="299.072265625" xlink:href="#BitstreamVeraSans-Roman-65"/>
      <use x="360.595703125" xlink:href="#BitstreamVeraSans-Roman-72"/>
      <use x="401.708984375" xlink:href="#BitstreamVeraSans-Roman-20"/>
      <use x="433.49609375" xlink:href="#BitstreamVeraSans-Roman-6f"/>
      <use x="494.677734375" xlink:href="#BitstreamVeraSans-Roman-66"/>
      <use x="529.8828125" xlink:href="#BitstreamVeraSans-Roman-20"/>
      <use x="561.669921875" xlink:href="#BitstreamVeraSans-Roman-4d"/>
      <use x="647.94921875" xlink:href="#BitstreamVeraSans-Roman-61"/>
      <use x="709.228515625" xlink:href="#BitstreamVeraSans-Roman-74"/>
      <use x="748.4375" xlink:href="#BitstreamVeraSans-Roman-63"/>
      <use x="803.41796875" xlink:href="#BitstreamVeraSans-Roman-68"/>
      <use x="866.796875" xlink:href="#BitstreamVeraSans-Roman-65"/>
      <use x="928.3203125" xlink:href="#BitstreamVeraSans-Roman-64"/>
      <use x="991.796875" xlink:href="#BitstreamVeraSans-Roman-20"/>
      <use x="1023.58398438" xlink:href="#BitstreamVeraSans-Roman-54"/>
      <use x="1084.44921875" xlink:href="#BitstreamVeraSans-Roman-72"/>
      <use x="1125.5625" xlink:href="#BitstreamVeraSans-Roman-69"/>
      <use x="1153.34570312" xlink:href="#BitstreamVeraSans-Roman-70"/>
      <use x="1216.82226562" xlink:href="#BitstreamVeraSans-Roman-6c"/>
      <use x="1244.60546875" xlink:href="#BitstreamVeraSans-Roman-65"/>
      <use x="1306.12890625" xlink:href="#BitstreamVeraSans-Roman-73"/>
     </g>
     <!-- (log-scale) -->
     <defs>
      <path d="M 8.015625 75.875 
L 15.828125 75.875 
Q 23.140625 64.359375 26.78125 53.3125 
Q 30.421875 42.28125 30.421875 31.390625 
Q 30.421875 20.453125 26.78125 9.375 
Q 23.140625 -1.703125 15.828125 -13.1875 
L 8.015625 -13.1875 
Q 14.5 -2 17.703125 9.0625 
Q 20.90625 20.125 20.90625 31.390625 
Q 20.90625 42.671875 17.703125 53.65625 
Q 14.5 64.65625 8.015625 75.875 
" id="BitstreamVeraSans-Roman-29"/>
      <path d="M 31 75.875 
Q 24.46875 64.65625 21.28125 53.65625 
Q 18.109375 42.671875 18.109375 31.390625 
Q 18.109375 20.125 21.3125 9.0625 
Q 24.515625 -2 31 -13.1875 
L 23.1875 -13.1875 
Q 15.875 -1.703125 12.234375 9.375 
Q 8.59375 20.453125 8.59375 31.390625 
Q 8.59375 42.28125 12.203125 53.3125 
Q 15.828125 64.359375 23.1875 75.875 
z
" id="BitstreamVeraSans-Roman-28"/>
      <path d="M 45.40625 27.984375 
Q 45.40625 37.75 41.375 43.109375 
Q 37.359375 48.484375 30.078125 48.484375 
Q 22.859375 48.484375 18.828125 43.109375 
Q 14.796875 37.75 14.796875 27.984375 
Q 14.796875 18.265625 18.828125 12.890625 
Q 22.859375 7.515625 30.078125 7.515625 
Q 37.359375 7.515625 41.375 12.890625 
Q 45.40625 18.265625 45.40625 27.984375 
M 54.390625 6.78125 
Q 54.390625 -7.171875 48.1875 -13.984375 
Q 42 -20.796875 29.203125 -20.796875 
Q 24.46875 -20.796875 20.265625 -20.09375 
Q 16.0625 -19.390625 12.109375 -17.921875 
L 12.109375 -9.1875 
Q 16.0625 -11.328125 19.921875 -12.34375 
Q 23.78125 -13.375 27.78125 -13.375 
Q 36.625 -13.375 41.015625 -8.765625 
Q 45.40625 -4.15625 45.40625 5.171875 
L 45.40625 9.625 
Q 42.625 4.78125 38.28125 2.390625 
Q 33.9375 0 27.875 0 
Q 17.828125 0 11.671875 7.65625 
Q 5.515625 15.328125 5.515625 27.984375 
Q 5.515625 40.671875 11.671875 48.328125 
Q 17.828125 56 27.875 56 
Q 33.9375 56 38.28125 53.609375 
Q 42.625 51.21875 45.40625 46.390625 
L 45.40625 54.6875 
L 54.390625 54.6875 
z
" id="BitstreamVeraSans-Roman-67"/>
      <path d="M 4.890625 31.390625 
L 31.203125 31.390625 
L 31.203125 23.390625 
L 4.890625 23.390625 
z
" id="BitstreamVeraSans-Roman-2d"/>
     </defs>
     <g transform="translate(37.6923759766 403.66625)rotate(-90.0)scale(0.16 -0.16)">
      <use xlink:href="#BitstreamVeraSans-Roman-28"/>
      <use x="39.013671875" xlink:href="#BitstreamVeraSans-Roman-6c"/>
      <use x="66.796875" xlink:href="#BitstreamVeraSans-Roman-6f"/>
      <use x="127.978515625" xlink:href="#BitstreamVeraSans-Roman-67"/>
      <use x="191.455078125" xlink:href="#BitstreamVeraSans-Roman-2d"/>
      <use x="227.5390625" xlink:href="#BitstreamVeraSans-Roman-73"/>
      <use x="279.638671875" xlink:href="#BitstreamVeraSans-Roman-63"/>
      <use x="334.619140625" xlink:href="#BitstreamVeraSans-Roman-61"/>
      <use x="395.8984375" xlink:href="#BitstreamVeraSans-Roman-6c"/>
      <use x="423.681640625" xlink:href="#BitstreamVeraSans-Roman-65"/>
      <use x="485.205078125" xlink:href="#BitstreamVeraSans-Roman-29"/>
     </g>
    </g>
   </g>
   <g id="legend_1">
    <g id="patch_77">
     <path d="M 76.279876 106.18435 
L 1073.52 106.18435 
L 1073.52 24.17635 
L 76.279876 24.17635 
z
" style="fill:#ffffff;stroke:#000000;stroke-linejoin:miter;"/>
    </g>
    <g id="patch_78">
     <path d="M 80.119876 42.60535 
L 108.919876 42.60535 
L 108.919876 29.16535 
L 80.119876 29.16535 
z
" style="fill:#000080;stroke:#000000;stroke-linejoin:miter;stroke-width:0.5;"/>
    </g>
    <g id="text_21">
     <!-- so #tp=2 #ds=1 sel=0.001 -->
     <defs>
      <path d="M 51.125 44 
L 36.921875 44 
L 32.8125 27.6875 
L 47.125 27.6875 
z
M 43.796875 71.78125 
L 38.71875 51.515625 
L 52.984375 51.515625 
L 58.109375 71.78125 
L 65.921875 71.78125 
L 60.890625 51.515625 
L 76.125 51.515625 
L 76.125 44 
L 58.984375 44 
L 54.984375 27.6875 
L 70.515625 27.6875 
L 70.515625 20.21875 
L 53.078125 20.21875 
L 48 0 
L 40.1875 0 
L 45.21875 20.21875 
L 30.90625 20.21875 
L 25.875 0 
L 18.015625 0 
L 23.09375 20.21875 
L 7.71875 20.21875 
L 7.71875 27.6875 
L 24.90625 27.6875 
L 29 44 
L 13.28125 44 
L 13.28125 51.515625 
L 30.90625 51.515625 
L 35.890625 71.78125 
z
" id="BitstreamVeraSans-Roman-23"/>
      <path d="M 10.6875 12.40625 
L 21 12.40625 
L 21 0 
L 10.6875 0 
z
" id="BitstreamVeraSans-Roman-2e"/>
      <path d="M 10.59375 45.40625 
L 73.1875 45.40625 
L 73.1875 37.203125 
L 10.59375 37.203125 
z
M 10.59375 25.484375 
L 73.1875 25.484375 
L 73.1875 17.1875 
L 10.59375 17.1875 
z
" id="BitstreamVeraSans-Roman-3d"/>
     </defs>
     <g transform="translate(112.759875977 42.60535)scale(0.192 -0.192)">
      <use xlink:href="#BitstreamVeraSans-Roman-73"/>
      <use x="52.099609375" xlink:href="#BitstreamVeraSans-Roman-6f"/>
      <use x="113.28125" xlink:href="#BitstreamVeraSans-Roman-20"/>
      <use x="145.068359375" xlink:href="#BitstreamVeraSans-Roman-23"/>
      <use x="228.857421875" xlink:href="#BitstreamVeraSans-Roman-74"/>
      <use x="268.06640625" xlink:href="#BitstreamVeraSans-Roman-70"/>
      <use x="331.54296875" xlink:href="#BitstreamVeraSans-Roman-3d"/>
      <use x="415.33203125" xlink:href="#BitstreamVeraSans-Roman-32"/>
      <use x="478.955078125" xlink:href="#BitstreamVeraSans-Roman-20"/>
      <use x="510.7421875" xlink:href="#BitstreamVeraSans-Roman-23"/>
      <use x="594.53125" xlink:href="#BitstreamVeraSans-Roman-64"/>
      <use x="658.0078125" xlink:href="#BitstreamVeraSans-Roman-73"/>
      <use x="710.107421875" xlink:href="#BitstreamVeraSans-Roman-3d"/>
      <use x="793.896484375" xlink:href="#BitstreamVeraSans-Roman-31"/>
      <use x="857.51953125" xlink:href="#BitstreamVeraSans-Roman-20"/>
      <use x="889.306640625" xlink:href="#BitstreamVeraSans-Roman-73"/>
      <use x="941.40625" xlink:href="#BitstreamVeraSans-Roman-65"/>
      <use x="1002.9296875" xlink:href="#BitstreamVeraSans-Roman-6c"/>
      <use x="1030.71289062" xlink:href="#BitstreamVeraSans-Roman-3d"/>
      <use x="1114.50195312" xlink:href="#BitstreamVeraSans-Roman-30"/>
      <use x="1178.125" xlink:href="#BitstreamVeraSans-Roman-2e"/>
      <use x="1209.91210938" xlink:href="#BitstreamVeraSans-Roman-30"/>
      <use x="1273.53515625" xlink:href="#BitstreamVeraSans-Roman-30"/>
      <use x="1337.15820312" xlink:href="#BitstreamVeraSans-Roman-31"/>
     </g>
    </g>
    <g id="patch_79">
     <path d="M 80.119876 61.18735 
L 108.919876 61.18735 
L 108.919876 47.74735 
L 80.119876 47.74735 
z
" style="fill:#009bff;stroke:#000000;stroke-linejoin:miter;stroke-width:0.5;"/>
    </g>
    <g id="text_22">
     <!-- so #tp=2 #ds=1 sel=0.01 -->
     <g transform="translate(112.759875977 61.18735)scale(0.192 -0.192)">
      <use xlink:href="#BitstreamVeraSans-Roman-73"/>
      <use x="52.099609375" xlink:href="#BitstreamVeraSans-Roman-6f"/>
      <use x="113.28125" xlink:href="#BitstreamVeraSans-Roman-20"/>
      <use x="145.068359375" xlink:href="#BitstreamVeraSans-Roman-23"/>
      <use x="228.857421875" xlink:href="#BitstreamVeraSans-Roman-74"/>
      <use x="268.06640625" xlink:href="#BitstreamVeraSans-Roman-70"/>
      <use x="331.54296875" xlink:href="#BitstreamVeraSans-Roman-3d"/>
      <use x="415.33203125" xlink:href="#BitstreamVeraSans-Roman-32"/>
      <use x="478.955078125" xlink:href="#BitstreamVeraSans-Roman-20"/>
      <use x="510.7421875" xlink:href="#BitstreamVeraSans-Roman-23"/>
      <use x="594.53125" xlink:href="#BitstreamVeraSans-Roman-64"/>
      <use x="658.0078125" xlink:href="#BitstreamVeraSans-Roman-73"/>
      <use x="710.107421875" xlink:href="#BitstreamVeraSans-Roman-3d"/>
      <use x="793.896484375" xlink:href="#BitstreamVeraSans-Roman-31"/>
      <use x="857.51953125" xlink:href="#BitstreamVeraSans-Roman-20"/>
      <use x="889.306640625" xlink:href="#BitstreamVeraSans-Roman-73"/>
      <use x="941.40625" xlink:href="#BitstreamVeraSans-Roman-65"/>
      <use x="1002.9296875" xlink:href="#BitstreamVeraSans-Roman-6c"/>
      <use x="1030.71289062" xlink:href="#BitstreamVeraSans-Roman-3d"/>
      <use x="1114.50195312" xlink:href="#BitstreamVeraSans-Roman-30"/>
      <use x="1178.125" xlink:href="#BitstreamVeraSans-Roman-2e"/>
      <use x="1209.91210938" xlink:href="#BitstreamVeraSans-Roman-30"/>
      <use x="1273.53515625" xlink:href="#BitstreamVeraSans-Roman-31"/>
     </g>
    </g>
    <g id="patch_80">
     <path d="M 80.119876 79.76935 
L 108.919876 79.76935 
L 108.919876 66.32935 
L 80.119876 66.32935 
z
" style="fill:#00fd3f;stroke:#000000;stroke-linejoin:miter;stroke-width:0.5;"/>
    </g>
    <g id="text_23">
     <!-- so #tp=8 #ds=1 sel=0.001 -->
     <g transform="translate(112.759875977 79.76935)scale(0.192 -0.192)">
      <use xlink:href="#BitstreamVeraSans-Roman-73"/>
      <use x="52.099609375" xlink:href="#BitstreamVeraSans-Roman-6f"/>
      <use x="113.28125" xlink:href="#BitstreamVeraSans-Roman-20"/>
      <use x="145.068359375" xlink:href="#BitstreamVeraSans-Roman-23"/>
      <use x="228.857421875" xlink:href="#BitstreamVeraSans-Roman-74"/>
      <use x="268.06640625" xlink:href="#BitstreamVeraSans-Roman-70"/>
      <use x="331.54296875" xlink:href="#BitstreamVeraSans-Roman-3d"/>
      <use x="415.33203125" xlink:href="#BitstreamVeraSans-Roman-38"/>
      <use x="478.955078125" xlink:href="#BitstreamVeraSans-Roman-20"/>
      <use x="510.7421875" xlink:href="#BitstreamVeraSans-Roman-23"/>
      <use x="594.53125" xlink:href="#BitstreamVeraSans-Roman-64"/>
      <use x="658.0078125" xlink:href="#BitstreamVeraSans-Roman-73"/>
      <use x="710.107421875" xlink:href="#BitstreamVeraSans-Roman-3d"/>
      <use x="793.896484375" xlink:href="#BitstreamVeraSans-Roman-31"/>
      <use x="857.51953125" xlink:href="#BitstreamVeraSans-Roman-20"/>
      <use x="889.306640625" xlink:href="#BitstreamVeraSans-Roman-73"/>
      <use x="941.40625" xlink:href="#BitstreamVeraSans-Roman-65"/>
      <use x="1002.9296875" xlink:href="#BitstreamVeraSans-Roman-6c"/>
      <use x="1030.71289062" xlink:href="#BitstreamVeraSans-Roman-3d"/>
      <use x="1114.50195312" xlink:href="#BitstreamVeraSans-Roman-30"/>
      <use x="1178.125" xlink:href="#BitstreamVeraSans-Roman-2e"/>
      <use x="1209.91210938" xlink:href="#BitstreamVeraSans-Roman-30"/>
      <use x="1273.53515625" xlink:href="#BitstreamVeraSans-Roman-30"/>
      <use x="1337.15820312" xlink:href="#BitstreamVeraSans-Roman-31"/>
     </g>
    </g>
    <g id="patch_81">
     <path d="M 80.119876 98.35135 
L 108.919876 98.35135 
L 108.919876 84.91135 
L 80.119876 84.91135 
z
" style="fill:#9fff24;stroke:#000000;stroke-linejoin:miter;stroke-width:0.5;"/>
    </g>
    <g id="text_24">
     <!-- so #tp=8 #ds=1 sel=0.01 -->
     <g transform="translate(112.759875977 98.35135)scale(0.192 -0.192)">
      <use xlink:href="#BitstreamVeraSans-Roman-73"/>
      <use x="52.099609375" xlink:href="#BitstreamVeraSans-Roman-6f"/>
      <use x="113.28125" xlink:href="#BitstreamVeraSans-Roman-20"/>
      <use x="145.068359375" xlink:href="#BitstreamVeraSans-Roman-23"/>
      <use x="228.857421875" xlink:href="#BitstreamVeraSans-Roman-74"/>
      <use x="268.06640625" xlink:href="#BitstreamVeraSans-Roman-70"/>
      <use x="331.54296875" xlink:href="#BitstreamVeraSans-Roman-3d"/>
      <use x="415.33203125" xlink:href="#BitstreamVeraSans-Roman-38"/>
      <use x="478.955078125" xlink:href="#BitstreamVeraSans-Roman-20"/>
      <use x="510.7421875" xlink:href="#BitstreamVeraSans-Roman-23"/>
      <use x="594.53125" xlink:href="#BitstreamVeraSans-Roman-64"/>
      <use x="658.0078125" xlink:href="#BitstreamVeraSans-Roman-73"/>
      <use x="710.107421875" xlink:href="#BitstreamVeraSans-Roman-3d"/>
      <use x="793.896484375" xlink:href="#BitstreamVeraSans-Roman-31"/>
      <use x="857.51953125" xlink:href="#BitstreamVeraSans-Roman-20"/>
      <use x="889.306640625" xlink:href="#BitstreamVeraSans-Roman-73"/>
      <use x="941.40625" xlink:href="#BitstreamVeraSans-Roman-65"/>
      <use x="1002.9296875" xlink:href="#BitstreamVeraSans-Roman-6c"/>
      <use x="1030.71289062" xlink:href="#BitstreamVeraSans-Roman-3d"/>
      <use x="1114.50195312" xlink:href="#BitstreamVeraSans-Roman-30"/>
      <use x="1178.125" xlink:href="#BitstreamVeraSans-Roman-2e"/>
      <use x="1209.91210938" xlink:href="#BitstreamVeraSans-Roman-30"/>
      <use x="1273.53515625" xlink:href="#BitstreamVeraSans-Roman-31"/>
     </g>
    </g>
    <g id="patch_82">
     <path d="M 780.3 42.60535 
L 809.1 42.60535 
L 809.1 29.16535 
L 780.3 29.16535 
z
" style="fill:#ffce05;stroke:#000000;stroke-linejoin:miter;stroke-width:0.5;"/>
    </g>
    <g id="text_25">
     <!-- so #tp=8 #ds=3 sel=0.01 -->
     <g transform="translate(812.94 42.60535)scale(0.192 -0.192)">
      <use xlink:href="#BitstreamVeraSans-Roman-73"/>
      <use x="52.099609375" xlink:href="#BitstreamVeraSans-Roman-6f"/>
      <use x="113.28125" xlink:href="#BitstreamVeraSans-Roman-20"/>
      <use x="145.068359375" xlink:href="#BitstreamVeraSans-Roman-23"/>
      <use x="228.857421875" xlink:href="#BitstreamVeraSans-Roman-74"/>
      <use x="268.06640625" xlink:href="#BitstreamVeraSans-Roman-70"/>
      <use x="331.54296875" xlink:href="#BitstreamVeraSans-Roman-3d"/>
      <use x="415.33203125" xlink:href="#BitstreamVeraSans-Roman-38"/>
      <use x="478.955078125" xlink:href="#BitstreamVeraSans-Roman-20"/>
      <use x="510.7421875" xlink:href="#BitstreamVeraSans-Roman-23"/>
      <use x="594.53125" xlink:href="#BitstreamVeraSans-Roman-64"/>
      <use x="658.0078125" xlink:href="#BitstreamVeraSans-Roman-73"/>
      <use x="710.107421875" xlink:href="#BitstreamVeraSans-Roman-3d"/>
      <use x="793.896484375" xlink:href="#BitstreamVeraSans-Roman-33"/>
      <use x="857.51953125" xlink:href="#BitstreamVeraSans-Roman-20"/>
      <use x="889.306640625" xlink:href="#BitstreamVeraSans-Roman-73"/>
      <use x="941.40625" xlink:href="#BitstreamVeraSans-Roman-65"/>
      <use x="1002.9296875" xlink:href="#BitstreamVeraSans-Roman-6c"/>
      <use x="1030.71289062" xlink:href="#BitstreamVeraSans-Roman-3d"/>
      <use x="1114.50195312" xlink:href="#BitstreamVeraSans-Roman-30"/>
      <use x="1178.125" xlink:href="#BitstreamVeraSans-Roman-2e"/>
      <use x="1209.91210938" xlink:href="#BitstreamVeraSans-Roman-30"/>
      <use x="1273.53515625" xlink:href="#BitstreamVeraSans-Roman-31"/>
     </g>
    </g>
    <g id="patch_83">
     <path d="M 780.3 61.18735 
L 809.1 61.18735 
L 809.1 47.74735 
L 780.3 47.74735 
z
" style="fill:#ff0047;stroke:#000000;stroke-linejoin:miter;stroke-width:0.5;"/>
    </g>
    <g id="text_26">
     <!-- ss #tp=2 #ds=1 sel=0.01 -->
     <g transform="translate(812.94 61.18735)scale(0.192 -0.192)">
      <use xlink:href="#BitstreamVeraSans-Roman-73"/>
      <use x="52.099609375" xlink:href="#BitstreamVeraSans-Roman-73"/>
      <use x="104.19921875" xlink:href="#BitstreamVeraSans-Roman-20"/>
      <use x="135.986328125" xlink:href="#BitstreamVeraSans-Roman-23"/>
      <use x="219.775390625" xlink:href="#BitstreamVeraSans-Roman-74"/>
      <use x="258.984375" xlink:href="#BitstreamVeraSans-Roman-70"/>
      <use x="322.4609375" xlink:href="#BitstreamVeraSans-Roman-3d"/>
      <use x="406.25" xlink:href="#BitstreamVeraSans-Roman-32"/>
      <use x="469.873046875" xlink:href="#BitstreamVeraSans-Roman-20"/>
      <use x="501.66015625" xlink:href="#BitstreamVeraSans-Roman-23"/>
      <use x="585.44921875" xlink:href="#BitstreamVeraSans-Roman-64"/>
      <use x="648.92578125" xlink:href="#BitstreamVeraSans-Roman-73"/>
      <use x="701.025390625" xlink:href="#BitstreamVeraSans-Roman-3d"/>
      <use x="784.814453125" xlink:href="#BitstreamVeraSans-Roman-31"/>
      <use x="848.4375" xlink:href="#BitstreamVeraSans-Roman-20"/>
      <use x="880.224609375" xlink:href="#BitstreamVeraSans-Roman-73"/>
      <use x="932.32421875" xlink:href="#BitstreamVeraSans-Roman-65"/>
      <use x="993.84765625" xlink:href="#BitstreamVeraSans-Roman-6c"/>
      <use x="1021.63085938" xlink:href="#BitstreamVeraSans-Roman-3d"/>
      <use x="1105.41992188" xlink:href="#BitstreamVeraSans-Roman-30"/>
      <use x="1169.04296875" xlink:href="#BitstreamVeraSans-Roman-2e"/>
      <use x="1200.83007812" xlink:href="#BitstreamVeraSans-Roman-30"/>
      <use x="1264.453125" xlink:href="#BitstreamVeraSans-Roman-31"/>
     </g>
    </g>
    <g id="patch_84">
     <path d="M 780.3 79.76935 
L 809.1 79.76935 
L 809.1 66.32935 
L 780.3 66.32935 
z
" style="fill:#ec84ef;stroke:#000000;stroke-linejoin:miter;stroke-width:0.5;"/>
    </g>
    <g id="text_27">
     <!-- ss #tp=8 #ds=3 sel=0.01 -->
     <g transform="translate(812.94 79.76935)scale(0.192 -0.192)">
      <use xlink:href="#BitstreamVeraSans-Roman-73"/>
      <use x="52.099609375" xlink:href="#BitstreamVeraSans-Roman-73"/>
      <use x="104.19921875" xlink:href="#BitstreamVeraSans-Roman-20"/>
      <use x="135.986328125" xlink:href="#BitstreamVeraSans-Roman-23"/>
      <use x="219.775390625" xlink:href="#BitstreamVeraSans-Roman-74"/>
      <use x="258.984375" xlink:href="#BitstreamVeraSans-Roman-70"/>
      <use x="322.4609375" xlink:href="#BitstreamVeraSans-Roman-3d"/>
      <use x="406.25" xlink:href="#BitstreamVeraSans-Roman-38"/>
      <use x="469.873046875" xlink:href="#BitstreamVeraSans-Roman-20"/>
      <use x="501.66015625" xlink:href="#BitstreamVeraSans-Roman-23"/>
      <use x="585.44921875" xlink:href="#BitstreamVeraSans-Roman-64"/>
      <use x="648.92578125" xlink:href="#BitstreamVeraSans-Roman-73"/>
      <use x="701.025390625" xlink:href="#BitstreamVeraSans-Roman-3d"/>
      <use x="784.814453125" xlink:href="#BitstreamVeraSans-Roman-33"/>
      <use x="848.4375" xlink:href="#BitstreamVeraSans-Roman-20"/>
      <use x="880.224609375" xlink:href="#BitstreamVeraSans-Roman-73"/>
      <use x="932.32421875" xlink:href="#BitstreamVeraSans-Roman-65"/>
      <use x="993.84765625" xlink:href="#BitstreamVeraSans-Roman-6c"/>
      <use x="1021.63085938" xlink:href="#BitstreamVeraSans-Roman-3d"/>
      <use x="1105.41992188" xlink:href="#BitstreamVeraSans-Roman-30"/>
      <use x="1169.04296875" xlink:href="#BitstreamVeraSans-Roman-2e"/>
      <use x="1200.83007812" xlink:href="#BitstreamVeraSans-Roman-30"/>
      <use x="1264.453125" xlink:href="#BitstreamVeraSans-Roman-31"/>
     </g>
    </g>
   </g>
  </g>
 </g>
 <defs>
  <clipPath id="pda9d42596f">
   <rect height="501.065" width="997.240124023" x="76.2798759766" y="111.195"/>
  </clipPath>
 </defs>
</svg>
