<?xml version="1.0" encoding="utf-8" standalone="no"?>
<!DOCTYPE svg PUBLIC "-//W3C//DTD SVG 1.1//EN"
  "http://www.w3.org/Graphics/SVG/1.1/DTD/svg11.dtd">
<!-- Created with matplotlib (http://matplotlib.org/) -->
<svg height="648pt" version="1.1" viewBox="0 0 1080 648" width="1080pt" xmlns="http://www.w3.org/2000/svg" xmlns:xlink="http://www.w3.org/1999/xlink">
 <defs>
  <style type="text/css">
*{stroke-linecap:butt;stroke-linejoin:round;stroke-miterlimit:100000;}
  </style>
 </defs>
 <g id="figure_1">
  <g id="patch_1">
   <path d="M 0 648 
L 1080 648 
L 1080 0 
L 0 0 
z
" style="fill:#ffffff;"/>
  </g>
  <g id="axes_1">
   <g id="patch_2">
    <path d="M 76.279876 612.26 
L 1073.52 612.26 
L 1073.52 111.195 
L 76.279876 111.195 
z
" style="fill:#ffffff;"/>
   </g>
   <g id="patch_3">
    <path clip-path="url(#p438c23e6b5)" d="M 79.396251 612.26 
L 85.629002 612.26 
L 85.629002 278.134632 
L 79.396251 278.134632 
z
" style="fill:#000080;stroke:#000000;stroke-linejoin:miter;stroke-width:0.5;"/>
   </g>
   <g id="patch_4">
    <path clip-path="url(#p438c23e6b5)" d="M 129.258258 612.26 
L 135.491008 612.26 
L 135.491008 278.409395 
L 129.258258 278.409395 
z
" style="fill:#000080;stroke:#000000;stroke-linejoin:miter;stroke-width:0.5;"/>
   </g>
   <g id="patch_5">
    <path clip-path="url(#p438c23e6b5)" d="M 179.120264 612.26 
L 185.353015 612.26 
L 185.353015 278.506365 
L 179.120264 278.506365 
z
" style="fill:#000080;stroke:#000000;stroke-linejoin:miter;stroke-width:0.5;"/>
   </g>
   <g id="patch_6">
    <path clip-path="url(#p438c23e6b5)" d="M 228.98227 612.26 
L 235.215021 612.26 
L 235.215021 278.525941 
L 228.98227 278.525941 
z
" style="fill:#000080;stroke:#000000;stroke-linejoin:miter;stroke-width:0.5;"/>
   </g>
   <g id="patch_7">
    <path clip-path="url(#p438c23e6b5)" d="M 278.844276 612.26 
L 285.077027 612.26 
L 285.077027 278.529568 
L 278.844276 278.529568 
z
" style="fill:#000080;stroke:#000000;stroke-linejoin:miter;stroke-width:0.5;"/>
   </g>
   <g id="patch_8">
    <path clip-path="url(#p438c23e6b5)" d="M 328.706282 612.26 
L 334.939033 612.26 
L 334.939033 278.531744 
L 328.706282 278.531744 
z
" style="fill:#000080;stroke:#000000;stroke-linejoin:miter;stroke-width:0.5;"/>
   </g>
   <g id="patch_9">
    <path clip-path="url(#p438c23e6b5)" d="M 378.568289 612.26 
L 384.801039 612.26 
L 384.801039 278.552788 
L 378.568289 278.552788 
z
" style="fill:#000080;stroke:#000000;stroke-linejoin:miter;stroke-width:0.5;"/>
   </g>
   <g id="patch_10">
    <path clip-path="url(#p438c23e6b5)" d="M 428.430295 612.26 
L 434.663046 612.26 
L 434.663046 278.568762 
L 428.430295 278.568762 
z
" style="fill:#000080;stroke:#000000;stroke-linejoin:miter;stroke-width:0.5;"/>
   </g>
   <g id="patch_11">
    <path clip-path="url(#p438c23e6b5)" d="M 478.292301 612.26 
L 484.525052 612.26 
L 484.525052 278.591285 
L 478.292301 278.591285 
z
" style="fill:#000080;stroke:#000000;stroke-linejoin:miter;stroke-width:0.5;"/>
   </g>
   <g id="patch_12">
    <path clip-path="url(#p438c23e6b5)" d="M 528.154307 612.26 
L 534.387058 612.26 
L 534.387058 278.59492 
L 528.154307 278.59492 
z
" style="fill:#000080;stroke:#000000;stroke-linejoin:miter;stroke-width:0.5;"/>
   </g>
   <g id="patch_13">
    <path clip-path="url(#p438c23e6b5)" d="M 578.016313 612.26 
L 584.249064 612.26 
L 584.249064 278.617462 
L 578.016313 278.617462 
z
" style="fill:#000080;stroke:#000000;stroke-linejoin:miter;stroke-width:0.5;"/>
   </g>
   <g id="patch_14">
    <path clip-path="url(#p438c23e6b5)" d="M 627.87832 612.26 
L 634.11107 612.26 
L 634.11107 278.619645 
L 627.87832 278.619645 
z
" style="fill:#000080;stroke:#000000;stroke-linejoin:miter;stroke-width:0.5;"/>
   </g>
   <g id="patch_15">
    <path clip-path="url(#p438c23e6b5)" d="M 677.740326 612.26 
L 683.973077 612.26 
L 683.973077 278.650943 
L 677.740326 278.650943 
z
" style="fill:#000080;stroke:#000000;stroke-linejoin:miter;stroke-width:0.5;"/>
   </g>
   <g id="patch_16">
    <path clip-path="url(#p438c23e6b5)" d="M 727.602332 612.26 
L 733.835083 612.26 
L 733.835083 278.664783 
L 727.602332 278.664783 
z
" style="fill:#000080;stroke:#000000;stroke-linejoin:miter;stroke-width:0.5;"/>
   </g>
   <g id="patch_17">
    <path clip-path="url(#p438c23e6b5)" d="M 777.464338 612.26 
L 783.697089 612.26 
L 783.697089 278.6779 
L 777.464338 278.6779 
z
" style="fill:#000080;stroke:#000000;stroke-linejoin:miter;stroke-width:0.5;"/>
   </g>
   <g id="patch_18">
    <path clip-path="url(#p438c23e6b5)" d="M 827.326344 612.26 
L 833.559095 612.26 
L 833.559095 278.682273 
L 827.326344 278.682273 
z
" style="fill:#000080;stroke:#000000;stroke-linejoin:miter;stroke-width:0.5;"/>
   </g>
   <g id="patch_19">
    <path clip-path="url(#p438c23e6b5)" d="M 877.188351 612.26 
L 883.421101 612.26 
L 883.421101 278.730424 
L 877.188351 278.730424 
z
" style="fill:#000080;stroke:#000000;stroke-linejoin:miter;stroke-width:0.5;"/>
   </g>
   <g id="patch_20">
    <path clip-path="url(#p438c23e6b5)" d="M 927.050357 612.26 
L 933.283108 612.26 
L 933.283108 278.736996 
L 927.050357 278.736996 
z
" style="fill:#000080;stroke:#000000;stroke-linejoin:miter;stroke-width:0.5;"/>
   </g>
   <g id="patch_21">
    <path clip-path="url(#p438c23e6b5)" d="M 976.912363 612.26 
L 983.145114 612.26 
L 983.145114 278.748683 
L 976.912363 278.748683 
z
" style="fill:#000080;stroke:#000000;stroke-linejoin:miter;stroke-width:0.5;"/>
   </g>
   <g id="patch_22">
    <path clip-path="url(#p438c23e6b5)" d="M 1026.774369 612.26 
L 1033.00712 612.26 
L 1033.00712 278.752336 
L 1026.774369 278.752336 
z
" style="fill:#000080;stroke:#000000;stroke-linejoin:miter;stroke-width:0.5;"/>
   </g>
   <g id="patch_23">
    <path clip-path="url(#p438c23e6b5)" d="M 85.629002 612.26 
L 91.861753 612.26 
L 91.861753 180.934406 
L 85.629002 180.934406 
z
" style="fill:#009bff;stroke:#000000;stroke-linejoin:miter;stroke-width:0.5;"/>
   </g>
   <g id="patch_24">
    <path clip-path="url(#p438c23e6b5)" d="M 135.491008 612.26 
L 141.723759 612.26 
L 141.723759 181.200629 
L 135.491008 181.200629 
z
" style="fill:#009bff;stroke:#000000;stroke-linejoin:miter;stroke-width:0.5;"/>
   </g>
   <g id="patch_25">
    <path clip-path="url(#p438c23e6b5)" d="M 185.353015 612.26 
L 191.585765 612.26 
L 191.585765 181.30875 
L 185.353015 181.30875 
z
" style="fill:#009bff;stroke:#000000;stroke-linejoin:miter;stroke-width:0.5;"/>
   </g>
   <g id="patch_26">
    <path clip-path="url(#p438c23e6b5)" d="M 235.215021 612.26 
L 241.447772 612.26 
L 241.447772 181.332509 
L 235.215021 181.332509 
z
" style="fill:#009bff;stroke:#000000;stroke-linejoin:miter;stroke-width:0.5;"/>
   </g>
   <g id="patch_27">
    <path clip-path="url(#p438c23e6b5)" d="M 285.077027 612.26 
L 291.309778 612.26 
L 291.309778 181.341079 
L 285.077027 181.341079 
z
" style="fill:#009bff;stroke:#000000;stroke-linejoin:miter;stroke-width:0.5;"/>
   </g>
   <g id="patch_28">
    <path clip-path="url(#p438c23e6b5)" d="M 334.939033 612.26 
L 341.171784 612.26 
L 341.171784 181.429401 
L 334.939033 181.429401 
z
" style="fill:#009bff;stroke:#000000;stroke-linejoin:miter;stroke-width:0.5;"/>
   </g>
   <g id="patch_29">
    <path clip-path="url(#p438c23e6b5)" d="M 384.801039 612.26 
L 391.03379 612.26 
L 391.03379 181.430647 
L 384.801039 181.430647 
z
" style="fill:#009bff;stroke:#000000;stroke-linejoin:miter;stroke-width:0.5;"/>
   </g>
   <g id="patch_30">
    <path clip-path="url(#p438c23e6b5)" d="M 434.663046 612.26 
L 440.895796 612.26 
L 440.895796 181.487685 
L 434.663046 181.487685 
z
" style="fill:#009bff;stroke:#000000;stroke-linejoin:miter;stroke-width:0.5;"/>
   </g>
   <g id="patch_31">
    <path clip-path="url(#p438c23e6b5)" d="M 484.525052 612.26 
L 490.757803 612.26 
L 490.757803 181.510852 
L 484.525052 181.510852 
z
" style="fill:#009bff;stroke:#000000;stroke-linejoin:miter;stroke-width:0.5;"/>
   </g>
   <g id="patch_32">
    <path clip-path="url(#p438c23e6b5)" d="M 534.387058 612.26 
L 540.619809 612.26 
L 540.619809 181.512406 
L 534.387058 181.512406 
z
" style="fill:#009bff;stroke:#000000;stroke-linejoin:miter;stroke-width:0.5;"/>
   </g>
   <g id="patch_33">
    <path clip-path="url(#p438c23e6b5)" d="M 584.249064 612.26 
L 590.481815 612.26 
L 590.481815 181.52971 
L 584.249064 181.52971 
z
" style="fill:#009bff;stroke:#000000;stroke-linejoin:miter;stroke-width:0.5;"/>
   </g>
   <g id="patch_34">
    <path clip-path="url(#p438c23e6b5)" d="M 634.11107 612.26 
L 640.343821 612.26 
L 640.343821 181.548762 
L 634.11107 181.548762 
z
" style="fill:#009bff;stroke:#000000;stroke-linejoin:miter;stroke-width:0.5;"/>
   </g>
   <g id="patch_35">
    <path clip-path="url(#p438c23e6b5)" d="M 683.973077 612.26 
L 690.205827 612.26 
L 690.205827 181.571152 
L 683.973077 181.571152 
z
" style="fill:#009bff;stroke:#000000;stroke-linejoin:miter;stroke-width:0.5;"/>
   </g>
   <g id="patch_36">
    <path clip-path="url(#p438c23e6b5)" d="M 733.835083 612.26 
L 740.067834 612.26 
L 740.067834 181.588093 
L 733.835083 181.588093 
z
" style="fill:#009bff;stroke:#000000;stroke-linejoin:miter;stroke-width:0.5;"/>
   </g>
   <g id="patch_37">
    <path clip-path="url(#p438c23e6b5)" d="M 783.697089 612.26 
L 789.92984 612.26 
L 789.92984 181.592979 
L 783.697089 181.592979 
z
" style="fill:#009bff;stroke:#000000;stroke-linejoin:miter;stroke-width:0.5;"/>
   </g>
   <g id="patch_38">
    <path clip-path="url(#p438c23e6b5)" d="M 833.559095 612.26 
L 839.791846 612.26 
L 839.791846 181.600278 
L 833.559095 181.600278 
z
" style="fill:#009bff;stroke:#000000;stroke-linejoin:miter;stroke-width:0.5;"/>
   </g>
   <g id="patch_39">
    <path clip-path="url(#p438c23e6b5)" d="M 883.421101 612.26 
L 889.653852 612.26 
L 889.653852 181.634965 
L 883.421101 181.634965 
z
" style="fill:#009bff;stroke:#000000;stroke-linejoin:miter;stroke-width:0.5;"/>
   </g>
   <g id="patch_40">
    <path clip-path="url(#p438c23e6b5)" d="M 933.283108 612.26 
L 939.515858 612.26 
L 939.515858 181.635822 
L 933.283108 181.635822 
z
" style="fill:#009bff;stroke:#000000;stroke-linejoin:miter;stroke-width:0.5;"/>
   </g>
   <g id="patch_41">
    <path clip-path="url(#p438c23e6b5)" d="M 983.145114 612.26 
L 989.377865 612.26 
L 989.377865 181.63628 
L 983.145114 181.63628 
z
" style="fill:#009bff;stroke:#000000;stroke-linejoin:miter;stroke-width:0.5;"/>
   </g>
   <g id="patch_42">
    <path clip-path="url(#p438c23e6b5)" d="M 1033.00712 612.26 
L 1039.239871 612.26 
L 1039.239871 181.663723 
L 1033.00712 181.663723 
z
" style="fill:#009bff;stroke:#000000;stroke-linejoin:miter;stroke-width:0.5;"/>
   </g>
   <g id="patch_43">
    <path clip-path="url(#p438c23e6b5)" d="M 91.861753 612.26 
L 98.094504 612.26 
L 98.094504 205.405082 
L 91.861753 205.405082 
z
" style="fill:#00fd3f;stroke:#000000;stroke-linejoin:miter;stroke-width:0.5;"/>
   </g>
   <g id="patch_44">
    <path clip-path="url(#p438c23e6b5)" d="M 141.723759 612.26 
L 147.95651 612.26 
L 147.95651 205.732102 
L 141.723759 205.732102 
z
" style="fill:#00fd3f;stroke:#000000;stroke-linejoin:miter;stroke-width:0.5;"/>
   </g>
   <g id="patch_45">
    <path clip-path="url(#p438c23e6b5)" d="M 191.585765 612.26 
L 197.818516 612.26 
L 197.818516 206.186754 
L 191.585765 206.186754 
z
" style="fill:#00fd3f;stroke:#000000;stroke-linejoin:miter;stroke-width:0.5;"/>
   </g>
   <g id="patch_46">
    <path clip-path="url(#p438c23e6b5)" d="M 241.447772 612.26 
L 247.680522 612.26 
L 247.680522 206.30499 
L 241.447772 206.30499 
z
" style="fill:#00fd3f;stroke:#000000;stroke-linejoin:miter;stroke-width:0.5;"/>
   </g>
   <g id="patch_47">
    <path clip-path="url(#p438c23e6b5)" d="M 291.309778 612.26 
L 297.542528 612.26 
L 297.542528 206.402106 
L 291.309778 206.402106 
z
" style="fill:#00fd3f;stroke:#000000;stroke-linejoin:miter;stroke-width:0.5;"/>
   </g>
   <g id="patch_48">
    <path clip-path="url(#p438c23e6b5)" d="M 341.171784 612.26 
L 347.404535 612.26 
L 347.404535 206.468743 
L 341.171784 206.468743 
z
" style="fill:#00fd3f;stroke:#000000;stroke-linejoin:miter;stroke-width:0.5;"/>
   </g>
   <g id="patch_49">
    <path clip-path="url(#p438c23e6b5)" d="M 391.03379 612.26 
L 397.266541 612.26 
L 397.266541 206.633032 
L 391.03379 206.633032 
z
" style="fill:#00fd3f;stroke:#000000;stroke-linejoin:miter;stroke-width:0.5;"/>
   </g>
   <g id="patch_50">
    <path clip-path="url(#p438c23e6b5)" d="M 440.895796 612.26 
L 447.128547 612.26 
L 447.128547 206.682699 
L 440.895796 206.682699 
z
" style="fill:#00fd3f;stroke:#000000;stroke-linejoin:miter;stroke-width:0.5;"/>
   </g>
   <g id="patch_51">
    <path clip-path="url(#p438c23e6b5)" d="M 490.757803 612.26 
L 496.990553 612.26 
L 496.990553 206.691297 
L 490.757803 206.691297 
z
" style="fill:#00fd3f;stroke:#000000;stroke-linejoin:miter;stroke-width:0.5;"/>
   </g>
   <g id="patch_52">
    <path clip-path="url(#p438c23e6b5)" d="M 540.619809 612.26 
L 546.85256 612.26 
L 546.85256 206.695458 
L 540.619809 206.695458 
z
" style="fill:#00fd3f;stroke:#000000;stroke-linejoin:miter;stroke-width:0.5;"/>
   </g>
   <g id="patch_53">
    <path clip-path="url(#p438c23e6b5)" d="M 590.481815 612.26 
L 596.714566 612.26 
L 596.714566 206.72835 
L 590.481815 206.72835 
z
" style="fill:#00fd3f;stroke:#000000;stroke-linejoin:miter;stroke-width:0.5;"/>
   </g>
   <g id="patch_54">
    <path clip-path="url(#p438c23e6b5)" d="M 640.343821 612.26 
L 646.576572 612.26 
L 646.576572 206.734808 
L 640.343821 206.734808 
z
" style="fill:#00fd3f;stroke:#000000;stroke-linejoin:miter;stroke-width:0.5;"/>
   </g>
   <g id="patch_55">
    <path clip-path="url(#p438c23e6b5)" d="M 690.205827 612.26 
L 696.438578 612.26 
L 696.438578 206.779424 
L 690.205827 206.779424 
z
" style="fill:#00fd3f;stroke:#000000;stroke-linejoin:miter;stroke-width:0.5;"/>
   </g>
   <g id="patch_56">
    <path clip-path="url(#p438c23e6b5)" d="M 740.067834 612.26 
L 746.300584 612.26 
L 746.300584 206.819788 
L 740.067834 206.819788 
z
" style="fill:#00fd3f;stroke:#000000;stroke-linejoin:miter;stroke-width:0.5;"/>
   </g>
   <g id="patch_57">
    <path clip-path="url(#p438c23e6b5)" d="M 789.92984 612.26 
L 796.162591 612.26 
L 796.162591 206.971137 
L 789.92984 206.971137 
z
" style="fill:#00fd3f;stroke:#000000;stroke-linejoin:miter;stroke-width:0.5;"/>
   </g>
   <g id="patch_58">
    <path clip-path="url(#p438c23e6b5)" d="M 839.791846 612.26 
L 846.024597 612.26 
L 846.024597 207.001805 
L 839.791846 207.001805 
z
" style="fill:#00fd3f;stroke:#000000;stroke-linejoin:miter;stroke-width:0.5;"/>
   </g>
   <g id="patch_59">
    <path clip-path="url(#p438c23e6b5)" d="M 889.653852 612.26 
L 895.886603 612.26 
L 895.886603 207.045059 
L 889.653852 207.045059 
z
" style="fill:#00fd3f;stroke:#000000;stroke-linejoin:miter;stroke-width:0.5;"/>
   </g>
   <g id="patch_60">
    <path clip-path="url(#p438c23e6b5)" d="M 939.515858 612.26 
L 945.748609 612.26 
L 945.748609 207.113182 
L 939.515858 207.113182 
z
" style="fill:#00fd3f;stroke:#000000;stroke-linejoin:miter;stroke-width:0.5;"/>
   </g>
   <g id="patch_61">
    <path clip-path="url(#p438c23e6b5)" d="M 989.377865 612.26 
L 995.610615 612.26 
L 995.610615 207.127318 
L 989.377865 207.127318 
z
" style="fill:#00fd3f;stroke:#000000;stroke-linejoin:miter;stroke-width:0.5;"/>
   </g>
   <g id="patch_62">
    <path clip-path="url(#p438c23e6b5)" d="M 1039.239871 612.26 
L 1045.472622 612.26 
L 1045.472622 207.181247 
L 1039.239871 207.181247 
z
" style="fill:#00fd3f;stroke:#000000;stroke-linejoin:miter;stroke-width:0.5;"/>
   </g>
   <g id="patch_63">
    <path clip-path="url(#p438c23e6b5)" d="M 98.094504 612.26 
L 104.327254 612.26 
L 104.327254 180.788369 
L 98.094504 180.788369 
z
" style="fill:#9fff24;stroke:#000000;stroke-linejoin:miter;stroke-width:0.5;"/>
   </g>
   <g id="patch_64">
    <path clip-path="url(#p438c23e6b5)" d="M 147.95651 612.26 
L 154.189261 612.26 
L 154.189261 181.040479 
L 147.95651 181.040479 
z
" style="fill:#9fff24;stroke:#000000;stroke-linejoin:miter;stroke-width:0.5;"/>
   </g>
   <g id="patch_65">
    <path clip-path="url(#p438c23e6b5)" d="M 197.818516 612.26 
L 204.051267 612.26 
L 204.051267 181.141445 
L 197.818516 181.141445 
z
" style="fill:#9fff24;stroke:#000000;stroke-linejoin:miter;stroke-width:0.5;"/>
   </g>
   <g id="patch_66">
    <path clip-path="url(#p438c23e6b5)" d="M 247.680522 612.26 
L 253.913273 612.26 
L 253.913273 181.185287 
L 247.680522 181.185287 
z
" style="fill:#9fff24;stroke:#000000;stroke-linejoin:miter;stroke-width:0.5;"/>
   </g>
   <g id="patch_67">
    <path clip-path="url(#p438c23e6b5)" d="M 297.542528 612.26 
L 303.775279 612.26 
L 303.775279 181.194117 
L 297.542528 181.194117 
z
" style="fill:#9fff24;stroke:#000000;stroke-linejoin:miter;stroke-width:0.5;"/>
   </g>
   <g id="patch_68">
    <path clip-path="url(#p438c23e6b5)" d="M 347.404535 612.26 
L 353.637285 612.26 
L 353.637285 181.279386 
L 347.404535 181.279386 
z
" style="fill:#9fff24;stroke:#000000;stroke-linejoin:miter;stroke-width:0.5;"/>
   </g>
   <g id="patch_69">
    <path clip-path="url(#p438c23e6b5)" d="M 397.266541 612.26 
L 403.499292 612.26 
L 403.499292 181.282137 
L 397.266541 181.282137 
z
" style="fill:#9fff24;stroke:#000000;stroke-linejoin:miter;stroke-width:0.5;"/>
   </g>
   <g id="patch_70">
    <path clip-path="url(#p438c23e6b5)" d="M 447.128547 612.26 
L 453.361298 612.26 
L 453.361298 181.322549 
L 447.128547 181.322549 
z
" style="fill:#9fff24;stroke:#000000;stroke-linejoin:miter;stroke-width:0.5;"/>
   </g>
   <g id="patch_71">
    <path clip-path="url(#p438c23e6b5)" d="M 496.990553 612.26 
L 503.223304 612.26 
L 503.223304 181.364712 
L 496.990553 181.364712 
z
" style="fill:#9fff24;stroke:#000000;stroke-linejoin:miter;stroke-width:0.5;"/>
   </g>
   <g id="patch_72">
    <path clip-path="url(#p438c23e6b5)" d="M 546.85256 612.26 
L 553.08531 612.26 
L 553.08531 181.366773 
L 546.85256 181.366773 
z
" style="fill:#9fff24;stroke:#000000;stroke-linejoin:miter;stroke-width:0.5;"/>
   </g>
   <g id="patch_73">
    <path clip-path="url(#p438c23e6b5)" d="M 596.714566 612.26 
L 602.947316 612.26 
L 602.947316 181.380962 
L 596.714566 181.380962 
z
" style="fill:#9fff24;stroke:#000000;stroke-linejoin:miter;stroke-width:0.5;"/>
   </g>
   <g id="patch_74">
    <path clip-path="url(#p438c23e6b5)" d="M 646.576572 612.26 
L 652.809323 612.26 
L 652.809323 181.396463 
L 646.576572 181.396463 
z
" style="fill:#9fff24;stroke:#000000;stroke-linejoin:miter;stroke-width:0.5;"/>
   </g>
   <g id="patch_75">
    <path clip-path="url(#p438c23e6b5)" d="M 696.438578 612.26 
L 702.671329 612.26 
L 702.671329 181.421566 
L 696.438578 181.421566 
z
" style="fill:#9fff24;stroke:#000000;stroke-linejoin:miter;stroke-width:0.5;"/>
   </g>
   <g id="patch_76">
    <path clip-path="url(#p438c23e6b5)" d="M 746.300584 612.26 
L 752.533335 612.26 
L 752.533335 181.425514 
L 746.300584 181.425514 
z
" style="fill:#9fff24;stroke:#000000;stroke-linejoin:miter;stroke-width:0.5;"/>
   </g>
   <g id="patch_77">
    <path clip-path="url(#p438c23e6b5)" d="M 796.162591 612.26 
L 802.395341 612.26 
L 802.395341 181.442252 
L 796.162591 181.442252 
z
" style="fill:#9fff24;stroke:#000000;stroke-linejoin:miter;stroke-width:0.5;"/>
   </g>
   <g id="patch_78">
    <path clip-path="url(#p438c23e6b5)" d="M 846.024597 612.26 
L 852.257347 612.26 
L 852.257347 181.448331 
L 846.024597 181.448331 
z
" style="fill:#9fff24;stroke:#000000;stroke-linejoin:miter;stroke-width:0.5;"/>
   </g>
   <g id="patch_79">
    <path clip-path="url(#p438c23e6b5)" d="M 895.886603 612.26 
L 902.119354 612.26 
L 902.119354 181.484824 
L 895.886603 181.484824 
z
" style="fill:#9fff24;stroke:#000000;stroke-linejoin:miter;stroke-width:0.5;"/>
   </g>
   <g id="patch_80">
    <path clip-path="url(#p438c23e6b5)" d="M 945.748609 612.26 
L 951.98136 612.26 
L 951.98136 181.485676 
L 945.748609 181.485676 
z
" style="fill:#9fff24;stroke:#000000;stroke-linejoin:miter;stroke-width:0.5;"/>
   </g>
   <g id="patch_81">
    <path clip-path="url(#p438c23e6b5)" d="M 995.610615 612.26 
L 1001.843366 612.26 
L 1001.843366 181.488506 
L 995.610615 181.488506 
z
" style="fill:#9fff24;stroke:#000000;stroke-linejoin:miter;stroke-width:0.5;"/>
   </g>
   <g id="patch_82">
    <path clip-path="url(#p438c23e6b5)" d="M 1045.472622 612.26 
L 1051.705372 612.26 
L 1051.705372 181.510974 
L 1045.472622 181.510974 
z
" style="fill:#9fff24;stroke:#000000;stroke-linejoin:miter;stroke-width:0.5;"/>
   </g>
   <g id="patch_83">
    <path clip-path="url(#p438c23e6b5)" d="M 104.327254 612.26 
L 110.560005 612.26 
L 110.560005 114.242915 
L 104.327254 114.242915 
z
" style="fill:#ffce05;stroke:#000000;stroke-linejoin:miter;stroke-width:0.5;"/>
   </g>
   <g id="patch_84">
    <path clip-path="url(#p438c23e6b5)" d="M 154.189261 612.26 
L 160.422011 612.26 
L 160.422011 128.136502 
L 154.189261 128.136502 
z
" style="fill:#ffce05;stroke:#000000;stroke-linejoin:miter;stroke-width:0.5;"/>
   </g>
   <g id="patch_85">
    <path clip-path="url(#p438c23e6b5)" d="M 204.051267 612.26 
L 210.284018 612.26 
L 210.284018 139.628361 
L 204.051267 139.628361 
z
" style="fill:#ffce05;stroke:#000000;stroke-linejoin:miter;stroke-width:0.5;"/>
   </g>
   <g id="patch_86">
    <path clip-path="url(#p438c23e6b5)" d="M 253.913273 612.26 
L 260.146024 612.26 
L 260.146024 140.42077 
L 253.913273 140.42077 
z
" style="fill:#ffce05;stroke:#000000;stroke-linejoin:miter;stroke-width:0.5;"/>
   </g>
   <g id="patch_87">
    <path clip-path="url(#p438c23e6b5)" d="M 303.775279 612.26 
L 310.00803 612.26 
L 310.00803 144.417528 
L 303.775279 144.417528 
z
" style="fill:#ffce05;stroke:#000000;stroke-linejoin:miter;stroke-width:0.5;"/>
   </g>
   <g id="patch_88">
    <path clip-path="url(#p438c23e6b5)" d="M 353.637285 612.26 
L 359.870036 612.26 
L 359.870036 148.814864 
L 353.637285 148.814864 
z
" style="fill:#ffce05;stroke:#000000;stroke-linejoin:miter;stroke-width:0.5;"/>
   </g>
   <g id="patch_89">
    <path clip-path="url(#p438c23e6b5)" d="M 403.499292 612.26 
L 409.732042 612.26 
L 409.732042 149.213725 
L 403.499292 149.213725 
z
" style="fill:#ffce05;stroke:#000000;stroke-linejoin:miter;stroke-width:0.5;"/>
   </g>
   <g id="patch_90">
    <path clip-path="url(#p438c23e6b5)" d="M 453.361298 612.26 
L 459.594049 612.26 
L 459.594049 149.42914 
L 453.361298 149.42914 
z
" style="fill:#ffce05;stroke:#000000;stroke-linejoin:miter;stroke-width:0.5;"/>
   </g>
   <g id="patch_91">
    <path clip-path="url(#p438c23e6b5)" d="M 503.223304 612.26 
L 509.456055 612.26 
L 509.456055 156.540358 
L 503.223304 156.540358 
z
" style="fill:#ffce05;stroke:#000000;stroke-linejoin:miter;stroke-width:0.5;"/>
   </g>
   <g id="patch_92">
    <path clip-path="url(#p438c23e6b5)" d="M 553.08531 612.26 
L 559.318061 612.26 
L 559.318061 160.755527 
L 553.08531 160.755527 
z
" style="fill:#ffce05;stroke:#000000;stroke-linejoin:miter;stroke-width:0.5;"/>
   </g>
   <g id="patch_93">
    <path clip-path="url(#p438c23e6b5)" d="M 602.947316 612.26 
L 609.180067 612.26 
L 609.180067 161.395854 
L 602.947316 161.395854 
z
" style="fill:#ffce05;stroke:#000000;stroke-linejoin:miter;stroke-width:0.5;"/>
   </g>
   <g id="patch_94">
    <path clip-path="url(#p438c23e6b5)" d="M 652.809323 612.26 
L 659.042073 612.26 
L 659.042073 163.508326 
L 652.809323 163.508326 
z
" style="fill:#ffce05;stroke:#000000;stroke-linejoin:miter;stroke-width:0.5;"/>
   </g>
   <g id="patch_95">
    <path clip-path="url(#p438c23e6b5)" d="M 702.671329 612.26 
L 708.90408 612.26 
L 708.90408 164.354983 
L 702.671329 164.354983 
z
" style="fill:#ffce05;stroke:#000000;stroke-linejoin:miter;stroke-width:0.5;"/>
   </g>
   <g id="patch_96">
    <path clip-path="url(#p438c23e6b5)" d="M 752.533335 612.26 
L 758.766086 612.26 
L 758.766086 168.064632 
L 752.533335 168.064632 
z
" style="fill:#ffce05;stroke:#000000;stroke-linejoin:miter;stroke-width:0.5;"/>
   </g>
   <g id="patch_97">
    <path clip-path="url(#p438c23e6b5)" d="M 802.395341 612.26 
L 808.628092 612.26 
L 808.628092 169.081691 
L 802.395341 169.081691 
z
" style="fill:#ffce05;stroke:#000000;stroke-linejoin:miter;stroke-width:0.5;"/>
   </g>
   <g id="patch_98">
    <path clip-path="url(#p438c23e6b5)" d="M 852.257347 612.26 
L 858.490098 612.26 
L 858.490098 169.257781 
L 852.257347 169.257781 
z
" style="fill:#ffce05;stroke:#000000;stroke-linejoin:miter;stroke-width:0.5;"/>
   </g>
   <g id="patch_99">
    <path clip-path="url(#p438c23e6b5)" d="M 902.119354 612.26 
L 908.352104 612.26 
L 908.352104 169.610098 
L 902.119354 169.610098 
z
" style="fill:#ffce05;stroke:#000000;stroke-linejoin:miter;stroke-width:0.5;"/>
   </g>
   <g id="patch_100">
    <path clip-path="url(#p438c23e6b5)" d="M 951.98136 612.26 
L 958.214111 612.26 
L 958.214111 169.61016 
L 951.98136 169.61016 
z
" style="fill:#ffce05;stroke:#000000;stroke-linejoin:miter;stroke-width:0.5;"/>
   </g>
   <g id="patch_101">
    <path clip-path="url(#p438c23e6b5)" d="M 1001.843366 612.26 
L 1008.076117 612.26 
L 1008.076117 169.96061 
L 1001.843366 169.96061 
z
" style="fill:#ffce05;stroke:#000000;stroke-linejoin:miter;stroke-width:0.5;"/>
   </g>
   <g id="patch_102">
    <path clip-path="url(#p438c23e6b5)" d="M 1051.705372 612.26 
L 1057.938123 612.26 
L 1057.938123 170.719684 
L 1051.705372 170.719684 
z
" style="fill:#ffce05;stroke:#000000;stroke-linejoin:miter;stroke-width:0.5;"/>
   </g>
   <g id="patch_103">
    <path clip-path="url(#p438c23e6b5)" d="M 110.560005 612.26 
L 116.792756 612.26 
L 116.792756 289.493675 
L 110.560005 289.493675 
z
" style="fill:#ff0047;stroke:#000000;stroke-linejoin:miter;stroke-width:0.5;"/>
   </g>
   <g id="patch_104">
    <path clip-path="url(#p438c23e6b5)" d="M 160.422011 612.26 
L 166.654762 612.26 
L 166.654762 315.480331 
L 160.422011 315.480331 
z
" style="fill:#ff0047;stroke:#000000;stroke-linejoin:miter;stroke-width:0.5;"/>
   </g>
   <g id="patch_105">
    <path clip-path="url(#p438c23e6b5)" d="M 210.284018 612.26 
L 216.516768 612.26 
L 216.516768 315.499748 
L 210.284018 315.499748 
z
" style="fill:#ff0047;stroke:#000000;stroke-linejoin:miter;stroke-width:0.5;"/>
   </g>
   <g id="patch_106">
    <path clip-path="url(#p438c23e6b5)" d="M 260.146024 612.26 
L 266.378775 612.26 
L 266.378775 315.670175 
L 260.146024 315.670175 
z
" style="fill:#ff0047;stroke:#000000;stroke-linejoin:miter;stroke-width:0.5;"/>
   </g>
   <g id="patch_107">
    <path clip-path="url(#p438c23e6b5)" d="M 310.00803 612.26 
L 316.240781 612.26 
L 316.240781 315.907919 
L 310.00803 315.907919 
z
" style="fill:#ff0047;stroke:#000000;stroke-linejoin:miter;stroke-width:0.5;"/>
   </g>
   <g id="patch_108">
    <path clip-path="url(#p438c23e6b5)" d="M 359.870036 612.26 
L 366.102787 612.26 
L 366.102787 326.594686 
L 359.870036 326.594686 
z
" style="fill:#ff0047;stroke:#000000;stroke-linejoin:miter;stroke-width:0.5;"/>
   </g>
   <g id="patch_109">
    <path clip-path="url(#p438c23e6b5)" d="M 409.732042 612.26 
L 415.964793 612.26 
L 415.964793 328.169656 
L 409.732042 328.169656 
z
" style="fill:#ff0047;stroke:#000000;stroke-linejoin:miter;stroke-width:0.5;"/>
   </g>
   <g id="patch_110">
    <path clip-path="url(#p438c23e6b5)" d="M 459.594049 612.26 
L 465.826799 612.26 
L 465.826799 328.221124 
L 459.594049 328.221124 
z
" style="fill:#ff0047;stroke:#000000;stroke-linejoin:miter;stroke-width:0.5;"/>
   </g>
   <g id="patch_111">
    <path clip-path="url(#p438c23e6b5)" d="M 509.456055 612.26 
L 515.688806 612.26 
L 515.688806 328.401947 
L 509.456055 328.401947 
z
" style="fill:#ff0047;stroke:#000000;stroke-linejoin:miter;stroke-width:0.5;"/>
   </g>
   <g id="patch_112">
    <path clip-path="url(#p438c23e6b5)" d="M 559.318061 612.26 
L 565.550812 612.26 
L 565.550812 343.884994 
L 559.318061 343.884994 
z
" style="fill:#ff0047;stroke:#000000;stroke-linejoin:miter;stroke-width:0.5;"/>
   </g>
   <g id="patch_113">
    <path clip-path="url(#p438c23e6b5)" d="M 609.180067 612.26 
L 615.412818 612.26 
L 615.412818 345.074155 
L 609.180067 345.074155 
z
" style="fill:#ff0047;stroke:#000000;stroke-linejoin:miter;stroke-width:0.5;"/>
   </g>
   <g id="patch_114">
    <path clip-path="url(#p438c23e6b5)" d="M 659.042073 612.26 
L 665.274824 612.26 
L 665.274824 345.401376 
L 659.042073 345.401376 
z
" style="fill:#ff0047;stroke:#000000;stroke-linejoin:miter;stroke-width:0.5;"/>
   </g>
   <g id="patch_115">
    <path clip-path="url(#p438c23e6b5)" d="M 708.90408 612.26 
L 715.13683 612.26 
L 715.13683 345.758229 
L 708.90408 345.758229 
z
" style="fill:#ff0047;stroke:#000000;stroke-linejoin:miter;stroke-width:0.5;"/>
   </g>
   <g id="patch_116">
    <path clip-path="url(#p438c23e6b5)" d="M 758.766086 612.26 
L 764.998837 612.26 
L 764.998837 345.862827 
L 758.766086 345.862827 
z
" style="fill:#ff0047;stroke:#000000;stroke-linejoin:miter;stroke-width:0.5;"/>
   </g>
   <g id="patch_117">
    <path clip-path="url(#p438c23e6b5)" d="M 808.628092 612.26 
L 814.860843 612.26 
L 814.860843 346.218507 
L 808.628092 346.218507 
z
" style="fill:#ff0047;stroke:#000000;stroke-linejoin:miter;stroke-width:0.5;"/>
   </g>
   <g id="patch_118">
    <path clip-path="url(#p438c23e6b5)" d="M 858.490098 612.26 
L 864.722849 612.26 
L 864.722849 346.384585 
L 858.490098 346.384585 
z
" style="fill:#ff0047;stroke:#000000;stroke-linejoin:miter;stroke-width:0.5;"/>
   </g>
   <g id="patch_119">
    <path clip-path="url(#p438c23e6b5)" d="M 908.352104 612.26 
L 914.584855 612.26 
L 914.584855 346.558267 
L 908.352104 346.558267 
z
" style="fill:#ff0047;stroke:#000000;stroke-linejoin:miter;stroke-width:0.5;"/>
   </g>
   <g id="patch_120">
    <path clip-path="url(#p438c23e6b5)" d="M 958.214111 612.26 
L 964.446861 612.26 
L 964.446861 346.901841 
L 958.214111 346.901841 
z
" style="fill:#ff0047;stroke:#000000;stroke-linejoin:miter;stroke-width:0.5;"/>
   </g>
   <g id="patch_121">
    <path clip-path="url(#p438c23e6b5)" d="M 1008.076117 612.26 
L 1014.308868 612.26 
L 1014.308868 347.092124 
L 1008.076117 347.092124 
z
" style="fill:#ff0047;stroke:#000000;stroke-linejoin:miter;stroke-width:0.5;"/>
   </g>
   <g id="patch_122">
    <path clip-path="url(#p438c23e6b5)" d="M 1057.938123 612.26 
L 1064.170874 612.26 
L 1064.170874 348.054663 
L 1057.938123 348.054663 
z
" style="fill:#ff0047;stroke:#000000;stroke-linejoin:miter;stroke-width:0.5;"/>
   </g>
   <g id="patch_123">
    <path clip-path="url(#p438c23e6b5)" d="M 116.792756 612.26 
L 123.025507 612.26 
L 123.025507 170.668355 
L 116.792756 170.668355 
z
" style="fill:#ec84ef;stroke:#000000;stroke-linejoin:miter;stroke-width:0.5;"/>
   </g>
   <g id="patch_124">
    <path clip-path="url(#p438c23e6b5)" d="M 166.654762 612.26 
L 172.887513 612.26 
L 172.887513 170.726556 
L 166.654762 170.726556 
z
" style="fill:#ec84ef;stroke:#000000;stroke-linejoin:miter;stroke-width:0.5;"/>
   </g>
   <g id="patch_125">
    <path clip-path="url(#p438c23e6b5)" d="M 216.516768 612.26 
L 222.749519 612.26 
L 222.749519 170.727798 
L 216.516768 170.727798 
z
" style="fill:#ec84ef;stroke:#000000;stroke-linejoin:miter;stroke-width:0.5;"/>
   </g>
   <g id="patch_126">
    <path clip-path="url(#p438c23e6b5)" d="M 266.378775 612.26 
L 272.611525 612.26 
L 272.611525 170.747866 
L 266.378775 170.747866 
z
" style="fill:#ec84ef;stroke:#000000;stroke-linejoin:miter;stroke-width:0.5;"/>
   </g>
   <g id="patch_127">
    <path clip-path="url(#p438c23e6b5)" d="M 316.240781 612.26 
L 322.473532 612.26 
L 322.473532 170.751616 
L 316.240781 170.751616 
z
" style="fill:#ec84ef;stroke:#000000;stroke-linejoin:miter;stroke-width:0.5;"/>
   </g>
   <g id="patch_128">
    <path clip-path="url(#p438c23e6b5)" d="M 366.102787 612.26 
L 372.335538 612.26 
L 372.335538 170.764946 
L 366.102787 170.764946 
z
" style="fill:#ec84ef;stroke:#000000;stroke-linejoin:miter;stroke-width:0.5;"/>
   </g>
   <g id="patch_129">
    <path clip-path="url(#p438c23e6b5)" d="M 415.964793 612.26 
L 422.197544 612.26 
L 422.197544 170.791947 
L 415.964793 170.791947 
z
" style="fill:#ec84ef;stroke:#000000;stroke-linejoin:miter;stroke-width:0.5;"/>
   </g>
   <g id="patch_130">
    <path clip-path="url(#p438c23e6b5)" d="M 465.826799 612.26 
L 472.05955 612.26 
L 472.05955 170.793857 
L 465.826799 170.793857 
z
" style="fill:#ec84ef;stroke:#000000;stroke-linejoin:miter;stroke-width:0.5;"/>
   </g>
   <g id="patch_131">
    <path clip-path="url(#p438c23e6b5)" d="M 515.688806 612.26 
L 521.921556 612.26 
L 521.921556 170.816738 
L 515.688806 170.816738 
z
" style="fill:#ec84ef;stroke:#000000;stroke-linejoin:miter;stroke-width:0.5;"/>
   </g>
   <g id="patch_132">
    <path clip-path="url(#p438c23e6b5)" d="M 565.550812 612.26 
L 571.783563 612.26 
L 571.783563 170.825973 
L 565.550812 170.825973 
z
" style="fill:#ec84ef;stroke:#000000;stroke-linejoin:miter;stroke-width:0.5;"/>
   </g>
   <g id="patch_133">
    <path clip-path="url(#p438c23e6b5)" d="M 615.412818 612.26 
L 621.645569 612.26 
L 621.645569 170.827648 
L 615.412818 170.827648 
z
" style="fill:#ec84ef;stroke:#000000;stroke-linejoin:miter;stroke-width:0.5;"/>
   </g>
   <g id="patch_134">
    <path clip-path="url(#p438c23e6b5)" d="M 665.274824 612.26 
L 671.507575 612.26 
L 671.507575 170.84789 
L 665.274824 170.84789 
z
" style="fill:#ec84ef;stroke:#000000;stroke-linejoin:miter;stroke-width:0.5;"/>
   </g>
   <g id="patch_135">
    <path clip-path="url(#p438c23e6b5)" d="M 715.13683 612.26 
L 721.369581 612.26 
L 721.369581 170.854103 
L 715.13683 170.854103 
z
" style="fill:#ec84ef;stroke:#000000;stroke-linejoin:miter;stroke-width:0.5;"/>
   </g>
   <g id="patch_136">
    <path clip-path="url(#p438c23e6b5)" d="M 764.998837 612.26 
L 771.231587 612.26 
L 771.231587 170.858833 
L 764.998837 170.858833 
z
" style="fill:#ec84ef;stroke:#000000;stroke-linejoin:miter;stroke-width:0.5;"/>
   </g>
   <g id="patch_137">
    <path clip-path="url(#p438c23e6b5)" d="M 814.860843 612.26 
L 821.093594 612.26 
L 821.093594 170.860338 
L 814.860843 170.860338 
z
" style="fill:#ec84ef;stroke:#000000;stroke-linejoin:miter;stroke-width:0.5;"/>
   </g>
   <g id="patch_138">
    <path clip-path="url(#p438c23e6b5)" d="M 864.722849 612.26 
L 870.9556 612.26 
L 870.9556 170.868962 
L 864.722849 170.868962 
z
" style="fill:#ec84ef;stroke:#000000;stroke-linejoin:miter;stroke-width:0.5;"/>
   </g>
   <g id="patch_139">
    <path clip-path="url(#p438c23e6b5)" d="M 914.584855 612.26 
L 920.817606 612.26 
L 920.817606 170.885099 
L 914.584855 170.885099 
z
" style="fill:#ec84ef;stroke:#000000;stroke-linejoin:miter;stroke-width:0.5;"/>
   </g>
   <g id="patch_140">
    <path clip-path="url(#p438c23e6b5)" d="M 964.446861 612.26 
L 970.679612 612.26 
L 970.679612 170.900361 
L 964.446861 170.900361 
z
" style="fill:#ec84ef;stroke:#000000;stroke-linejoin:miter;stroke-width:0.5;"/>
   </g>
   <g id="patch_141">
    <path clip-path="url(#p438c23e6b5)" d="M 1014.308868 612.26 
L 1020.541618 612.26 
L 1020.541618 170.918776 
L 1014.308868 170.918776 
z
" style="fill:#ec84ef;stroke:#000000;stroke-linejoin:miter;stroke-width:0.5;"/>
   </g>
   <g id="patch_142">
    <path clip-path="url(#p438c23e6b5)" d="M 1064.170874 612.26 
L 1070.403625 612.26 
L 1070.403625 170.999438 
L 1064.170874 170.999438 
z
" style="fill:#ec84ef;stroke:#000000;stroke-linejoin:miter;stroke-width:0.5;"/>
   </g>
   <g id="patch_143">
    <path d="M 76.279876 111.195 
L 1073.52 111.195 
" style="fill:none;stroke:#000000;stroke-linecap:square;stroke-linejoin:miter;"/>
   </g>
   <g id="patch_144">
    <path d="M 1073.52 612.26 
L 1073.52 111.195 
" style="fill:none;stroke:#000000;stroke-linecap:square;stroke-linejoin:miter;"/>
   </g>
   <g id="patch_145">
    <path d="M 76.279876 612.26 
L 1073.52 612.26 
" style="fill:none;stroke:#000000;stroke-linecap:square;stroke-linejoin:miter;"/>
   </g>
   <g id="patch_146">
    <path d="M 76.279876 612.26 
L 76.279876 111.195 
" style="fill:none;stroke:#000000;stroke-linecap:square;stroke-linejoin:miter;"/>
   </g>
   <g id="matplotlib.axis_1">
    <g id="xtick_1">
     <g id="line2d_1">
      <defs>
       <path d="M 0 0 
L 0 -4 
" id="m3977dc655e" style="stroke:#000000;stroke-width:0.5;"/>
      </defs>
      <g>
       <use style="stroke:#000000;stroke-width:0.5;" x="101.210879077" xlink:href="#m3977dc655e" y="612.26"/>
      </g>
     </g>
     <g id="line2d_2">
      <defs>
       <path d="M 0 0 
L 0 4 
" id="me381b3cd41" style="stroke:#000000;stroke-width:0.5;"/>
      </defs>
      <g>
       <use style="stroke:#000000;stroke-width:0.5;" x="101.210879077" xlink:href="#me381b3cd41" y="111.195"/>
      </g>
     </g>
     <g id="text_1">
      <!-- 1 -->
      <defs>
       <path d="M 12.40625 8.296875 
L 28.515625 8.296875 
L 28.515625 63.921875 
L 10.984375 60.40625 
L 10.984375 69.390625 
L 28.421875 72.90625 
L 38.28125 72.90625 
L 38.28125 8.296875 
L 54.390625 8.296875 
L 54.390625 0 
L 12.40625 0 
z
" id="BitstreamVeraSans-Roman-31"/>
      </defs>
      <g transform="translate(96.1208790771 628.4175)scale(0.16 -0.16)">
       <use xlink:href="#BitstreamVeraSans-Roman-31"/>
      </g>
     </g>
    </g>
    <g id="xtick_2">
     <g id="line2d_3">
      <g>
       <use style="stroke:#000000;stroke-width:0.5;" x="151.072885278" xlink:href="#m3977dc655e" y="612.26"/>
      </g>
     </g>
     <g id="line2d_4">
      <g>
       <use style="stroke:#000000;stroke-width:0.5;" x="151.072885278" xlink:href="#me381b3cd41" y="111.195"/>
      </g>
     </g>
     <g id="text_2">
      <!-- 2 -->
      <defs>
       <path d="M 19.1875 8.296875 
L 53.609375 8.296875 
L 53.609375 0 
L 7.328125 0 
L 7.328125 8.296875 
Q 12.9375 14.109375 22.625 23.890625 
Q 32.328125 33.6875 34.8125 36.53125 
Q 39.546875 41.84375 41.421875 45.53125 
Q 43.3125 49.21875 43.3125 52.78125 
Q 43.3125 58.59375 39.234375 62.25 
Q 35.15625 65.921875 28.609375 65.921875 
Q 23.96875 65.921875 18.8125 64.3125 
Q 13.671875 62.703125 7.8125 59.421875 
L 7.8125 69.390625 
Q 13.765625 71.78125 18.9375 73 
Q 24.125 74.21875 28.421875 74.21875 
Q 39.75 74.21875 46.484375 68.546875 
Q 53.21875 62.890625 53.21875 53.421875 
Q 53.21875 48.921875 51.53125 44.890625 
Q 49.859375 40.875 45.40625 35.40625 
Q 44.1875 33.984375 37.640625 27.21875 
Q 31.109375 20.453125 19.1875 8.296875 
" id="BitstreamVeraSans-Roman-32"/>
      </defs>
      <g transform="translate(145.982885278 628.4175)scale(0.16 -0.16)">
       <use xlink:href="#BitstreamVeraSans-Roman-32"/>
      </g>
     </g>
    </g>
    <g id="xtick_3">
     <g id="line2d_5">
      <g>
       <use style="stroke:#000000;stroke-width:0.5;" x="200.934891479" xlink:href="#m3977dc655e" y="612.26"/>
      </g>
     </g>
     <g id="line2d_6">
      <g>
       <use style="stroke:#000000;stroke-width:0.5;" x="200.934891479" xlink:href="#me381b3cd41" y="111.195"/>
      </g>
     </g>
     <g id="text_3">
      <!-- 3 -->
      <defs>
       <path d="M 40.578125 39.3125 
Q 47.65625 37.796875 51.625 33 
Q 55.609375 28.21875 55.609375 21.1875 
Q 55.609375 10.40625 48.1875 4.484375 
Q 40.765625 -1.421875 27.09375 -1.421875 
Q 22.515625 -1.421875 17.65625 -0.515625 
Q 12.796875 0.390625 7.625 2.203125 
L 7.625 11.71875 
Q 11.71875 9.328125 16.59375 8.109375 
Q 21.484375 6.890625 26.8125 6.890625 
Q 36.078125 6.890625 40.9375 10.546875 
Q 45.796875 14.203125 45.796875 21.1875 
Q 45.796875 27.640625 41.28125 31.265625 
Q 36.765625 34.90625 28.71875 34.90625 
L 20.21875 34.90625 
L 20.21875 43.015625 
L 29.109375 43.015625 
Q 36.375 43.015625 40.234375 45.921875 
Q 44.09375 48.828125 44.09375 54.296875 
Q 44.09375 59.90625 40.109375 62.90625 
Q 36.140625 65.921875 28.71875 65.921875 
Q 24.65625 65.921875 20.015625 65.03125 
Q 15.375 64.15625 9.8125 62.3125 
L 9.8125 71.09375 
Q 15.4375 72.65625 20.34375 73.4375 
Q 25.25 74.21875 29.59375 74.21875 
Q 40.828125 74.21875 47.359375 69.109375 
Q 53.90625 64.015625 53.90625 55.328125 
Q 53.90625 49.265625 50.4375 45.09375 
Q 46.96875 40.921875 40.578125 39.3125 
" id="BitstreamVeraSans-Roman-33"/>
      </defs>
      <g transform="translate(195.844891479 628.4175)scale(0.16 -0.16)">
       <use xlink:href="#BitstreamVeraSans-Roman-33"/>
      </g>
     </g>
    </g>
    <g id="xtick_4">
     <g id="line2d_7">
      <g>
       <use style="stroke:#000000;stroke-width:0.5;" x="250.796897681" xlink:href="#m3977dc655e" y="612.26"/>
      </g>
     </g>
     <g id="line2d_8">
      <g>
       <use style="stroke:#000000;stroke-width:0.5;" x="250.796897681" xlink:href="#me381b3cd41" y="111.195"/>
      </g>
     </g>
     <g id="text_4">
      <!-- 4 -->
      <defs>
       <path d="M 37.796875 64.3125 
L 12.890625 25.390625 
L 37.796875 25.390625 
z
M 35.203125 72.90625 
L 47.609375 72.90625 
L 47.609375 25.390625 
L 58.015625 25.390625 
L 58.015625 17.1875 
L 47.609375 17.1875 
L 47.609375 0 
L 37.796875 0 
L 37.796875 17.1875 
L 4.890625 17.1875 
L 4.890625 26.703125 
z
" id="BitstreamVeraSans-Roman-34"/>
      </defs>
      <g transform="translate(245.706897681 628.4175)scale(0.16 -0.16)">
       <use xlink:href="#BitstreamVeraSans-Roman-34"/>
      </g>
     </g>
    </g>
    <g id="xtick_5">
     <g id="line2d_9">
      <g>
       <use style="stroke:#000000;stroke-width:0.5;" x="300.658903882" xlink:href="#m3977dc655e" y="612.26"/>
      </g>
     </g>
     <g id="line2d_10">
      <g>
       <use style="stroke:#000000;stroke-width:0.5;" x="300.658903882" xlink:href="#me381b3cd41" y="111.195"/>
      </g>
     </g>
     <g id="text_5">
      <!-- 5 -->
      <defs>
       <path d="M 10.796875 72.90625 
L 49.515625 72.90625 
L 49.515625 64.59375 
L 19.828125 64.59375 
L 19.828125 46.734375 
Q 21.96875 47.46875 24.109375 47.828125 
Q 26.265625 48.1875 28.421875 48.1875 
Q 40.625 48.1875 47.75 41.5 
Q 54.890625 34.8125 54.890625 23.390625 
Q 54.890625 11.625 47.5625 5.09375 
Q 40.234375 -1.421875 26.90625 -1.421875 
Q 22.3125 -1.421875 17.546875 -0.640625 
Q 12.796875 0.140625 7.71875 1.703125 
L 7.71875 11.625 
Q 12.109375 9.234375 16.796875 8.0625 
Q 21.484375 6.890625 26.703125 6.890625 
Q 35.15625 6.890625 40.078125 11.328125 
Q 45.015625 15.765625 45.015625 23.390625 
Q 45.015625 31 40.078125 35.4375 
Q 35.15625 39.890625 26.703125 39.890625 
Q 22.75 39.890625 18.8125 39.015625 
Q 14.890625 38.140625 10.796875 36.28125 
z
" id="BitstreamVeraSans-Roman-35"/>
      </defs>
      <g transform="translate(295.568903882 628.4175)scale(0.16 -0.16)">
       <use xlink:href="#BitstreamVeraSans-Roman-35"/>
      </g>
     </g>
    </g>
    <g id="xtick_6">
     <g id="line2d_11">
      <g>
       <use style="stroke:#000000;stroke-width:0.5;" x="350.520910083" xlink:href="#m3977dc655e" y="612.26"/>
      </g>
     </g>
     <g id="line2d_12">
      <g>
       <use style="stroke:#000000;stroke-width:0.5;" x="350.520910083" xlink:href="#me381b3cd41" y="111.195"/>
      </g>
     </g>
     <g id="text_6">
      <!-- 6 -->
      <defs>
       <path d="M 33.015625 40.375 
Q 26.375 40.375 22.484375 35.828125 
Q 18.609375 31.296875 18.609375 23.390625 
Q 18.609375 15.53125 22.484375 10.953125 
Q 26.375 6.390625 33.015625 6.390625 
Q 39.65625 6.390625 43.53125 10.953125 
Q 47.40625 15.53125 47.40625 23.390625 
Q 47.40625 31.296875 43.53125 35.828125 
Q 39.65625 40.375 33.015625 40.375 
M 52.59375 71.296875 
L 52.59375 62.3125 
Q 48.875 64.0625 45.09375 64.984375 
Q 41.3125 65.921875 37.59375 65.921875 
Q 27.828125 65.921875 22.671875 59.328125 
Q 17.53125 52.734375 16.796875 39.40625 
Q 19.671875 43.65625 24.015625 45.921875 
Q 28.375 48.1875 33.59375 48.1875 
Q 44.578125 48.1875 50.953125 41.515625 
Q 57.328125 34.859375 57.328125 23.390625 
Q 57.328125 12.15625 50.6875 5.359375 
Q 44.046875 -1.421875 33.015625 -1.421875 
Q 20.359375 -1.421875 13.671875 8.265625 
Q 6.984375 17.96875 6.984375 36.375 
Q 6.984375 53.65625 15.1875 63.9375 
Q 23.390625 74.21875 37.203125 74.21875 
Q 40.921875 74.21875 44.703125 73.484375 
Q 48.484375 72.75 52.59375 71.296875 
" id="BitstreamVeraSans-Roman-36"/>
      </defs>
      <g transform="translate(345.430910083 628.4175)scale(0.16 -0.16)">
       <use xlink:href="#BitstreamVeraSans-Roman-36"/>
      </g>
     </g>
    </g>
    <g id="xtick_7">
     <g id="line2d_13">
      <g>
       <use style="stroke:#000000;stroke-width:0.5;" x="400.382916284" xlink:href="#m3977dc655e" y="612.26"/>
      </g>
     </g>
     <g id="line2d_14">
      <g>
       <use style="stroke:#000000;stroke-width:0.5;" x="400.382916284" xlink:href="#me381b3cd41" y="111.195"/>
      </g>
     </g>
     <g id="text_7">
      <!-- 7 -->
      <defs>
       <path d="M 8.203125 72.90625 
L 55.078125 72.90625 
L 55.078125 68.703125 
L 28.609375 0 
L 18.3125 0 
L 43.21875 64.59375 
L 8.203125 64.59375 
z
" id="BitstreamVeraSans-Roman-37"/>
      </defs>
      <g transform="translate(395.292916284 628.4175)scale(0.16 -0.16)">
       <use xlink:href="#BitstreamVeraSans-Roman-37"/>
      </g>
     </g>
    </g>
    <g id="xtick_8">
     <g id="line2d_15">
      <g>
       <use style="stroke:#000000;stroke-width:0.5;" x="450.244922485" xlink:href="#m3977dc655e" y="612.26"/>
      </g>
     </g>
     <g id="line2d_16">
      <g>
       <use style="stroke:#000000;stroke-width:0.5;" x="450.244922485" xlink:href="#me381b3cd41" y="111.195"/>
      </g>
     </g>
     <g id="text_8">
      <!-- 8 -->
      <defs>
       <path d="M 31.78125 34.625 
Q 24.75 34.625 20.71875 30.859375 
Q 16.703125 27.09375 16.703125 20.515625 
Q 16.703125 13.921875 20.71875 10.15625 
Q 24.75 6.390625 31.78125 6.390625 
Q 38.8125 6.390625 42.859375 10.171875 
Q 46.921875 13.96875 46.921875 20.515625 
Q 46.921875 27.09375 42.890625 30.859375 
Q 38.875 34.625 31.78125 34.625 
M 21.921875 38.8125 
Q 15.578125 40.375 12.03125 44.71875 
Q 8.5 49.078125 8.5 55.328125 
Q 8.5 64.0625 14.71875 69.140625 
Q 20.953125 74.21875 31.78125 74.21875 
Q 42.671875 74.21875 48.875 69.140625 
Q 55.078125 64.0625 55.078125 55.328125 
Q 55.078125 49.078125 51.53125 44.71875 
Q 48 40.375 41.703125 38.8125 
Q 48.828125 37.15625 52.796875 32.3125 
Q 56.78125 27.484375 56.78125 20.515625 
Q 56.78125 9.90625 50.3125 4.234375 
Q 43.84375 -1.421875 31.78125 -1.421875 
Q 19.734375 -1.421875 13.25 4.234375 
Q 6.78125 9.90625 6.78125 20.515625 
Q 6.78125 27.484375 10.78125 32.3125 
Q 14.796875 37.15625 21.921875 38.8125 
M 18.3125 54.390625 
Q 18.3125 48.734375 21.84375 45.5625 
Q 25.390625 42.390625 31.78125 42.390625 
Q 38.140625 42.390625 41.71875 45.5625 
Q 45.3125 48.734375 45.3125 54.390625 
Q 45.3125 60.0625 41.71875 63.234375 
Q 38.140625 66.40625 31.78125 66.40625 
Q 25.390625 66.40625 21.84375 63.234375 
Q 18.3125 60.0625 18.3125 54.390625 
" id="BitstreamVeraSans-Roman-38"/>
      </defs>
      <g transform="translate(445.154922485 628.4175)scale(0.16 -0.16)">
       <use xlink:href="#BitstreamVeraSans-Roman-38"/>
      </g>
     </g>
    </g>
    <g id="xtick_9">
     <g id="line2d_17">
      <g>
       <use style="stroke:#000000;stroke-width:0.5;" x="500.106928687" xlink:href="#m3977dc655e" y="612.26"/>
      </g>
     </g>
     <g id="line2d_18">
      <g>
       <use style="stroke:#000000;stroke-width:0.5;" x="500.106928687" xlink:href="#me381b3cd41" y="111.195"/>
      </g>
     </g>
     <g id="text_9">
      <!-- 9 -->
      <defs>
       <path d="M 10.984375 1.515625 
L 10.984375 10.5 
Q 14.703125 8.734375 18.5 7.8125 
Q 22.3125 6.890625 25.984375 6.890625 
Q 35.75 6.890625 40.890625 13.453125 
Q 46.046875 20.015625 46.78125 33.40625 
Q 43.953125 29.203125 39.59375 26.953125 
Q 35.25 24.703125 29.984375 24.703125 
Q 19.046875 24.703125 12.671875 31.3125 
Q 6.296875 37.9375 6.296875 49.421875 
Q 6.296875 60.640625 12.9375 67.421875 
Q 19.578125 74.21875 30.609375 74.21875 
Q 43.265625 74.21875 49.921875 64.515625 
Q 56.59375 54.828125 56.59375 36.375 
Q 56.59375 19.140625 48.40625 8.859375 
Q 40.234375 -1.421875 26.421875 -1.421875 
Q 22.703125 -1.421875 18.890625 -0.6875 
Q 15.09375 0.046875 10.984375 1.515625 
M 30.609375 32.421875 
Q 37.25 32.421875 41.125 36.953125 
Q 45.015625 41.5 45.015625 49.421875 
Q 45.015625 57.28125 41.125 61.84375 
Q 37.25 66.40625 30.609375 66.40625 
Q 23.96875 66.40625 20.09375 61.84375 
Q 16.21875 57.28125 16.21875 49.421875 
Q 16.21875 41.5 20.09375 36.953125 
Q 23.96875 32.421875 30.609375 32.421875 
" id="BitstreamVeraSans-Roman-39"/>
      </defs>
      <g transform="translate(495.016928687 628.4175)scale(0.16 -0.16)">
       <use xlink:href="#BitstreamVeraSans-Roman-39"/>
      </g>
     </g>
    </g>
    <g id="xtick_10">
     <g id="line2d_19">
      <g>
       <use style="stroke:#000000;stroke-width:0.5;" x="549.968934888" xlink:href="#m3977dc655e" y="612.26"/>
      </g>
     </g>
     <g id="line2d_20">
      <g>
       <use style="stroke:#000000;stroke-width:0.5;" x="549.968934888" xlink:href="#me381b3cd41" y="111.195"/>
      </g>
     </g>
     <g id="text_10">
      <!-- 10 -->
      <defs>
       <path d="M 31.78125 66.40625 
Q 24.171875 66.40625 20.328125 58.90625 
Q 16.5 51.421875 16.5 36.375 
Q 16.5 21.390625 20.328125 13.890625 
Q 24.171875 6.390625 31.78125 6.390625 
Q 39.453125 6.390625 43.28125 13.890625 
Q 47.125 21.390625 47.125 36.375 
Q 47.125 51.421875 43.28125 58.90625 
Q 39.453125 66.40625 31.78125 66.40625 
M 31.78125 74.21875 
Q 44.046875 74.21875 50.515625 64.515625 
Q 56.984375 54.828125 56.984375 36.375 
Q 56.984375 17.96875 50.515625 8.265625 
Q 44.046875 -1.421875 31.78125 -1.421875 
Q 19.53125 -1.421875 13.0625 8.265625 
Q 6.59375 17.96875 6.59375 36.375 
Q 6.59375 54.828125 13.0625 64.515625 
Q 19.53125 74.21875 31.78125 74.21875 
" id="BitstreamVeraSans-Roman-30"/>
      </defs>
      <g transform="translate(539.788934888 628.4175)scale(0.16 -0.16)">
       <use xlink:href="#BitstreamVeraSans-Roman-31"/>
       <use x="63.623046875" xlink:href="#BitstreamVeraSans-Roman-30"/>
      </g>
     </g>
    </g>
    <g id="xtick_11">
     <g id="line2d_21">
      <g>
       <use style="stroke:#000000;stroke-width:0.5;" x="599.830941089" xlink:href="#m3977dc655e" y="612.26"/>
      </g>
     </g>
     <g id="line2d_22">
      <g>
       <use style="stroke:#000000;stroke-width:0.5;" x="599.830941089" xlink:href="#me381b3cd41" y="111.195"/>
      </g>
     </g>
     <g id="text_11">
      <!-- 11 -->
      <g transform="translate(589.650941089 628.4175)scale(0.16 -0.16)">
       <use xlink:href="#BitstreamVeraSans-Roman-31"/>
       <use x="63.623046875" xlink:href="#BitstreamVeraSans-Roman-31"/>
      </g>
     </g>
    </g>
    <g id="xtick_12">
     <g id="line2d_23">
      <g>
       <use style="stroke:#000000;stroke-width:0.5;" x="649.69294729" xlink:href="#m3977dc655e" y="612.26"/>
      </g>
     </g>
     <g id="line2d_24">
      <g>
       <use style="stroke:#000000;stroke-width:0.5;" x="649.69294729" xlink:href="#me381b3cd41" y="111.195"/>
      </g>
     </g>
     <g id="text_12">
      <!-- 12 -->
      <g transform="translate(639.51294729 628.4175)scale(0.16 -0.16)">
       <use xlink:href="#BitstreamVeraSans-Roman-31"/>
       <use x="63.623046875" xlink:href="#BitstreamVeraSans-Roman-32"/>
      </g>
     </g>
    </g>
    <g id="xtick_13">
     <g id="line2d_25">
      <g>
       <use style="stroke:#000000;stroke-width:0.5;" x="699.554953491" xlink:href="#m3977dc655e" y="612.26"/>
      </g>
     </g>
     <g id="line2d_26">
      <g>
       <use style="stroke:#000000;stroke-width:0.5;" x="699.554953491" xlink:href="#me381b3cd41" y="111.195"/>
      </g>
     </g>
     <g id="text_13">
      <!-- 13 -->
      <g transform="translate(689.374953491 628.4175)scale(0.16 -0.16)">
       <use xlink:href="#BitstreamVeraSans-Roman-31"/>
       <use x="63.623046875" xlink:href="#BitstreamVeraSans-Roman-33"/>
      </g>
     </g>
    </g>
    <g id="xtick_14">
     <g id="line2d_27">
      <g>
       <use style="stroke:#000000;stroke-width:0.5;" x="749.416959692" xlink:href="#m3977dc655e" y="612.26"/>
      </g>
     </g>
     <g id="line2d_28">
      <g>
       <use style="stroke:#000000;stroke-width:0.5;" x="749.416959692" xlink:href="#me381b3cd41" y="111.195"/>
      </g>
     </g>
     <g id="text_14">
      <!-- 14 -->
      <g transform="translate(739.236959692 628.4175)scale(0.16 -0.16)">
       <use xlink:href="#BitstreamVeraSans-Roman-31"/>
       <use x="63.623046875" xlink:href="#BitstreamVeraSans-Roman-34"/>
      </g>
     </g>
    </g>
    <g id="xtick_15">
     <g id="line2d_29">
      <g>
       <use style="stroke:#000000;stroke-width:0.5;" x="799.278965894" xlink:href="#m3977dc655e" y="612.26"/>
      </g>
     </g>
     <g id="line2d_30">
      <g>
       <use style="stroke:#000000;stroke-width:0.5;" x="799.278965894" xlink:href="#me381b3cd41" y="111.195"/>
      </g>
     </g>
     <g id="text_15">
      <!-- 15 -->
      <g transform="translate(789.098965894 628.4175)scale(0.16 -0.16)">
       <use xlink:href="#BitstreamVeraSans-Roman-31"/>
       <use x="63.623046875" xlink:href="#BitstreamVeraSans-Roman-35"/>
      </g>
     </g>
    </g>
    <g id="xtick_16">
     <g id="line2d_31">
      <g>
       <use style="stroke:#000000;stroke-width:0.5;" x="849.140972095" xlink:href="#m3977dc655e" y="612.26"/>
      </g>
     </g>
     <g id="line2d_32">
      <g>
       <use style="stroke:#000000;stroke-width:0.5;" x="849.140972095" xlink:href="#me381b3cd41" y="111.195"/>
      </g>
     </g>
     <g id="text_16">
      <!-- 16 -->
      <g transform="translate(838.960972095 628.4175)scale(0.16 -0.16)">
       <use xlink:href="#BitstreamVeraSans-Roman-31"/>
       <use x="63.623046875" xlink:href="#BitstreamVeraSans-Roman-36"/>
      </g>
     </g>
    </g>
    <g id="xtick_17">
     <g id="line2d_33">
      <g>
       <use style="stroke:#000000;stroke-width:0.5;" x="899.002978296" xlink:href="#m3977dc655e" y="612.26"/>
      </g>
     </g>
     <g id="line2d_34">
      <g>
       <use style="stroke:#000000;stroke-width:0.5;" x="899.002978296" xlink:href="#me381b3cd41" y="111.195"/>
      </g>
     </g>
     <g id="text_17">
      <!-- 17 -->
      <g transform="translate(888.822978296 628.4175)scale(0.16 -0.16)">
       <use xlink:href="#BitstreamVeraSans-Roman-31"/>
       <use x="63.623046875" xlink:href="#BitstreamVeraSans-Roman-37"/>
      </g>
     </g>
    </g>
    <g id="xtick_18">
     <g id="line2d_35">
      <g>
       <use style="stroke:#000000;stroke-width:0.5;" x="948.864984497" xlink:href="#m3977dc655e" y="612.26"/>
      </g>
     </g>
     <g id="line2d_36">
      <g>
       <use style="stroke:#000000;stroke-width:0.5;" x="948.864984497" xlink:href="#me381b3cd41" y="111.195"/>
      </g>
     </g>
     <g id="text_18">
      <!-- 18 -->
      <g transform="translate(938.684984497 628.4175)scale(0.16 -0.16)">
       <use xlink:href="#BitstreamVeraSans-Roman-31"/>
       <use x="63.623046875" xlink:href="#BitstreamVeraSans-Roman-38"/>
      </g>
     </g>
    </g>
    <g id="xtick_19">
     <g id="line2d_37">
      <g>
       <use style="stroke:#000000;stroke-width:0.5;" x="998.726990698" xlink:href="#m3977dc655e" y="612.26"/>
      </g>
     </g>
     <g id="line2d_38">
      <g>
       <use style="stroke:#000000;stroke-width:0.5;" x="998.726990698" xlink:href="#me381b3cd41" y="111.195"/>
      </g>
     </g>
     <g id="text_19">
      <!-- 19 -->
      <g transform="translate(988.546990698 628.4175)scale(0.16 -0.16)">
       <use xlink:href="#BitstreamVeraSans-Roman-31"/>
       <use x="63.623046875" xlink:href="#BitstreamVeraSans-Roman-39"/>
      </g>
     </g>
    </g>
    <g id="xtick_20">
     <g id="line2d_39">
      <g>
       <use style="stroke:#000000;stroke-width:0.5;" x="1048.5889969" xlink:href="#m3977dc655e" y="612.26"/>
      </g>
     </g>
     <g id="line2d_40">
      <g>
       <use style="stroke:#000000;stroke-width:0.5;" x="1048.5889969" xlink:href="#me381b3cd41" y="111.195"/>
      </g>
     </g>
     <g id="text_20">
      <!-- 20 -->
      <g transform="translate(1038.4089969 628.4175)scale(0.16 -0.16)">
       <use xlink:href="#BitstreamVeraSans-Roman-32"/>
       <use x="63.623046875" xlink:href="#BitstreamVeraSans-Roman-30"/>
      </g>
     </g>
    </g>
    <g id="text_21">
     <!-- Slaves -->
     <defs>
      <path d="M 9.421875 75.984375 
L 18.40625 75.984375 
L 18.40625 0 
L 9.421875 0 
z
" id="BitstreamVeraSans-Roman-6c"/>
      <path d="M 56.203125 29.59375 
L 56.203125 25.203125 
L 14.890625 25.203125 
Q 15.484375 15.921875 20.484375 11.0625 
Q 25.484375 6.203125 34.421875 6.203125 
Q 39.59375 6.203125 44.453125 7.46875 
Q 49.3125 8.734375 54.109375 11.28125 
L 54.109375 2.78125 
Q 49.265625 0.734375 44.1875 -0.34375 
Q 39.109375 -1.421875 33.890625 -1.421875 
Q 20.796875 -1.421875 13.15625 6.1875 
Q 5.515625 13.8125 5.515625 26.8125 
Q 5.515625 40.234375 12.765625 48.109375 
Q 20.015625 56 32.328125 56 
Q 43.359375 56 49.78125 48.890625 
Q 56.203125 41.796875 56.203125 29.59375 
M 47.21875 32.234375 
Q 47.125 39.59375 43.09375 43.984375 
Q 39.0625 48.390625 32.421875 48.390625 
Q 24.90625 48.390625 20.390625 44.140625 
Q 15.875 39.890625 15.1875 32.171875 
z
" id="BitstreamVeraSans-Roman-65"/>
      <path d="M 53.515625 70.515625 
L 53.515625 60.890625 
Q 47.90625 63.578125 42.921875 64.890625 
Q 37.9375 66.21875 33.296875 66.21875 
Q 25.25 66.21875 20.875 63.09375 
Q 16.5 59.96875 16.5 54.203125 
Q 16.5 49.359375 19.40625 46.890625 
Q 22.3125 44.4375 30.421875 42.921875 
L 36.375 41.703125 
Q 47.40625 39.59375 52.65625 34.296875 
Q 57.90625 29 57.90625 20.125 
Q 57.90625 9.515625 50.796875 4.046875 
Q 43.703125 -1.421875 29.984375 -1.421875 
Q 24.8125 -1.421875 18.96875 -0.25 
Q 13.140625 0.921875 6.890625 3.21875 
L 6.890625 13.375 
Q 12.890625 10.015625 18.65625 8.296875 
Q 24.421875 6.59375 29.984375 6.59375 
Q 38.421875 6.59375 43.015625 9.90625 
Q 47.609375 13.234375 47.609375 19.390625 
Q 47.609375 24.75 44.3125 27.78125 
Q 41.015625 30.8125 33.5 32.328125 
L 27.484375 33.5 
Q 16.453125 35.6875 11.515625 40.375 
Q 6.59375 45.0625 6.59375 53.421875 
Q 6.59375 63.09375 13.40625 68.65625 
Q 20.21875 74.21875 32.171875 74.21875 
Q 37.3125 74.21875 42.625 73.28125 
Q 47.953125 72.359375 53.515625 70.515625 
" id="BitstreamVeraSans-Roman-53"/>
      <path d="M 2.984375 54.6875 
L 12.5 54.6875 
L 29.59375 8.796875 
L 46.6875 54.6875 
L 56.203125 54.6875 
L 35.6875 0 
L 23.484375 0 
z
" id="BitstreamVeraSans-Roman-76"/>
      <path d="M 34.28125 27.484375 
Q 23.390625 27.484375 19.1875 25 
Q 14.984375 22.515625 14.984375 16.5 
Q 14.984375 11.71875 18.140625 8.90625 
Q 21.296875 6.109375 26.703125 6.109375 
Q 34.1875 6.109375 38.703125 11.40625 
Q 43.21875 16.703125 43.21875 25.484375 
L 43.21875 27.484375 
z
M 52.203125 31.203125 
L 52.203125 0 
L 43.21875 0 
L 43.21875 8.296875 
Q 40.140625 3.328125 35.546875 0.953125 
Q 30.953125 -1.421875 24.3125 -1.421875 
Q 15.921875 -1.421875 10.953125 3.296875 
Q 6 8.015625 6 15.921875 
Q 6 25.140625 12.171875 29.828125 
Q 18.359375 34.515625 30.609375 34.515625 
L 43.21875 34.515625 
L 43.21875 35.40625 
Q 43.21875 41.609375 39.140625 45 
Q 35.0625 48.390625 27.6875 48.390625 
Q 23 48.390625 18.546875 47.265625 
Q 14.109375 46.140625 10.015625 43.890625 
L 10.015625 52.203125 
Q 14.9375 54.109375 19.578125 55.046875 
Q 24.21875 56 28.609375 56 
Q 40.484375 56 46.34375 49.84375 
Q 52.203125 43.703125 52.203125 31.203125 
" id="BitstreamVeraSans-Roman-61"/>
      <path d="M 44.28125 53.078125 
L 44.28125 44.578125 
Q 40.484375 46.53125 36.375 47.5 
Q 32.28125 48.484375 27.875 48.484375 
Q 21.1875 48.484375 17.84375 46.4375 
Q 14.5 44.390625 14.5 40.28125 
Q 14.5 37.15625 16.890625 35.375 
Q 19.28125 33.59375 26.515625 31.984375 
L 29.59375 31.296875 
Q 39.15625 29.25 43.1875 25.515625 
Q 47.21875 21.78125 47.21875 15.09375 
Q 47.21875 7.46875 41.1875 3.015625 
Q 35.15625 -1.421875 24.609375 -1.421875 
Q 20.21875 -1.421875 15.453125 -0.5625 
Q 10.6875 0.296875 5.421875 2 
L 5.421875 11.28125 
Q 10.40625 8.6875 15.234375 7.390625 
Q 20.0625 6.109375 24.8125 6.109375 
Q 31.15625 6.109375 34.5625 8.28125 
Q 37.984375 10.453125 37.984375 14.40625 
Q 37.984375 18.0625 35.515625 20.015625 
Q 33.0625 21.96875 24.703125 23.78125 
L 21.578125 24.515625 
Q 13.234375 26.265625 9.515625 29.90625 
Q 5.8125 33.546875 5.8125 39.890625 
Q 5.8125 47.609375 11.28125 51.796875 
Q 16.75 56 26.8125 56 
Q 31.78125 56 36.171875 55.265625 
Q 40.578125 54.546875 44.28125 53.078125 
" id="BitstreamVeraSans-Roman-73"/>
     </defs>
     <g transform="translate(548.871187988 645.4025)scale(0.16 -0.16)">
      <use xlink:href="#BitstreamVeraSans-Roman-53"/>
      <use x="63.4765625" xlink:href="#BitstreamVeraSans-Roman-6c"/>
      <use x="91.259765625" xlink:href="#BitstreamVeraSans-Roman-61"/>
      <use x="152.5390625" xlink:href="#BitstreamVeraSans-Roman-76"/>
      <use x="211.71875" xlink:href="#BitstreamVeraSans-Roman-65"/>
      <use x="273.2421875" xlink:href="#BitstreamVeraSans-Roman-73"/>
     </g>
    </g>
   </g>
   <g id="matplotlib.axis_2">
    <g id="ytick_1">
     <g id="line2d_41">
      <defs>
       <path d="M 0 0 
L 4 0 
" id="med02efe72d" style="stroke:#000000;stroke-width:0.5;"/>
      </defs>
      <g>
       <use style="stroke:#000000;stroke-width:0.5;" x="76.2798759766" xlink:href="#med02efe72d" y="612.26"/>
      </g>
     </g>
     <g id="line2d_42">
      <defs>
       <path d="M 0 0 
L -4 0 
" id="m19e71a32f3" style="stroke:#000000;stroke-width:0.5;"/>
      </defs>
      <g>
       <use style="stroke:#000000;stroke-width:0.5;" x="1073.52" xlink:href="#m19e71a32f3" y="612.26"/>
      </g>
     </g>
     <g id="text_22">
      <!-- $\mathdefault{0}$ -->
      <g transform="translate(62.0398759766 616.675)scale(0.16 -0.16)">
       <use transform="translate(0.0 0.78125)" xlink:href="#BitstreamVeraSans-Roman-30"/>
      </g>
     </g>
    </g>
    <g id="ytick_2">
     <g id="line2d_43">
      <g>
       <use style="stroke:#000000;stroke-width:0.5;" x="76.2798759766" xlink:href="#med02efe72d" y="533.96859375"/>
      </g>
     </g>
     <g id="line2d_44">
      <g>
       <use style="stroke:#000000;stroke-width:0.5;" x="1073.52" xlink:href="#m19e71a32f3" y="533.96859375"/>
      </g>
     </g>
     <g id="text_23">
      <!-- $\mathdefault{10^{1}}$ -->
      <g transform="translate(42.5198759766 538.72109375)scale(0.16 -0.16)">
       <use transform="translate(0.0 0.715625)" xlink:href="#BitstreamVeraSans-Roman-31"/>
       <use transform="translate(63.623046875 0.715625)" xlink:href="#BitstreamVeraSans-Roman-30"/>
       <use transform="translate(132.75859375 47.965625)scale(0.7)" xlink:href="#BitstreamVeraSans-Roman-31"/>
      </g>
     </g>
    </g>
    <g id="ytick_3">
     <g id="line2d_45">
      <g>
       <use style="stroke:#000000;stroke-width:0.5;" x="76.2798759766" xlink:href="#med02efe72d" y="463.506328125"/>
      </g>
     </g>
     <g id="line2d_46">
      <g>
       <use style="stroke:#000000;stroke-width:0.5;" x="1073.52" xlink:href="#m19e71a32f3" y="463.506328125"/>
      </g>
     </g>
     <g id="text_24">
      <!-- $\mathdefault{10^{2}}$ -->
      <g transform="translate(42.5198759766 468.338828125)scale(0.16 -0.16)">
       <use transform="translate(0.0 0.796875)" xlink:href="#BitstreamVeraSans-Roman-31"/>
       <use transform="translate(63.623046875 0.796875)" xlink:href="#BitstreamVeraSans-Roman-30"/>
       <use transform="translate(132.75859375 48.046875)scale(0.7)" xlink:href="#BitstreamVeraSans-Roman-32"/>
      </g>
     </g>
    </g>
    <g id="ytick_4">
     <g id="line2d_47">
      <g>
       <use style="stroke:#000000;stroke-width:0.5;" x="76.2798759766" xlink:href="#med02efe72d" y="393.0440625"/>
      </g>
     </g>
     <g id="line2d_48">
      <g>
       <use style="stroke:#000000;stroke-width:0.5;" x="1073.52" xlink:href="#m19e71a32f3" y="393.0440625"/>
      </g>
     </g>
     <g id="text_25">
      <!-- $\mathdefault{10^{3}}$ -->
      <g transform="translate(42.5198759766 397.8765625)scale(0.16 -0.16)">
       <use transform="translate(0.0 0.796875)" xlink:href="#BitstreamVeraSans-Roman-31"/>
       <use transform="translate(63.623046875 0.796875)" xlink:href="#BitstreamVeraSans-Roman-30"/>
       <use transform="translate(132.75859375 48.046875)scale(0.7)" xlink:href="#BitstreamVeraSans-Roman-33"/>
      </g>
     </g>
    </g>
    <g id="ytick_5">
     <g id="line2d_49">
      <g>
       <use style="stroke:#000000;stroke-width:0.5;" x="76.2798759766" xlink:href="#med02efe72d" y="322.581796875"/>
      </g>
     </g>
     <g id="line2d_50">
      <g>
       <use style="stroke:#000000;stroke-width:0.5;" x="1073.52" xlink:href="#m19e71a32f3" y="322.581796875"/>
      </g>
     </g>
     <g id="text_26">
      <!-- $\mathdefault{10^{4}}$ -->
      <g transform="translate(42.5198759766 327.334296875)scale(0.16 -0.16)">
       <use transform="translate(0.0 0.715625)" xlink:href="#BitstreamVeraSans-Roman-31"/>
       <use transform="translate(63.623046875 0.715625)" xlink:href="#BitstreamVeraSans-Roman-30"/>
       <use transform="translate(132.75859375 47.965625)scale(0.7)" xlink:href="#BitstreamVeraSans-Roman-34"/>
      </g>
     </g>
    </g>
    <g id="ytick_6">
     <g id="line2d_51">
      <g>
       <use style="stroke:#000000;stroke-width:0.5;" x="76.2798759766" xlink:href="#med02efe72d" y="252.11953125"/>
      </g>
     </g>
     <g id="line2d_52">
      <g>
       <use style="stroke:#000000;stroke-width:0.5;" x="1073.52" xlink:href="#m19e71a32f3" y="252.11953125"/>
      </g>
     </g>
     <g id="text_27">
      <!-- $\mathdefault{10^{5}}$ -->
      <g transform="translate(42.5198759766 256.87203125)scale(0.16 -0.16)">
       <use transform="translate(0.0 0.715625)" xlink:href="#BitstreamVeraSans-Roman-31"/>
       <use transform="translate(63.623046875 0.715625)" xlink:href="#BitstreamVeraSans-Roman-30"/>
       <use transform="translate(132.75859375 47.965625)scale(0.7)" xlink:href="#BitstreamVeraSans-Roman-35"/>
      </g>
     </g>
    </g>
    <g id="ytick_7">
     <g id="line2d_53">
      <g>
       <use style="stroke:#000000;stroke-width:0.5;" x="76.2798759766" xlink:href="#med02efe72d" y="181.657265625"/>
      </g>
     </g>
     <g id="line2d_54">
      <g>
       <use style="stroke:#000000;stroke-width:0.5;" x="1073.52" xlink:href="#m19e71a32f3" y="181.657265625"/>
      </g>
     </g>
     <g id="text_28">
      <!-- $\mathdefault{10^{6}}$ -->
      <g transform="translate(42.5198759766 186.489765625)scale(0.16 -0.16)">
       <use transform="translate(0.0 0.796875)" xlink:href="#BitstreamVeraSans-Roman-31"/>
       <use transform="translate(63.623046875 0.796875)" xlink:href="#BitstreamVeraSans-Roman-30"/>
       <use transform="translate(132.75859375 48.046875)scale(0.7)" xlink:href="#BitstreamVeraSans-Roman-36"/>
      </g>
     </g>
    </g>
    <g id="ytick_8">
     <g id="line2d_55">
      <g>
       <use style="stroke:#000000;stroke-width:0.5;" x="76.2798759766" xlink:href="#med02efe72d" y="111.195"/>
      </g>
     </g>
     <g id="line2d_56">
      <g>
       <use style="stroke:#000000;stroke-width:0.5;" x="1073.52" xlink:href="#m19e71a32f3" y="111.195"/>
      </g>
     </g>
     <g id="text_29">
      <!-- $\mathdefault{10^{7}}$ -->
      <g transform="translate(42.5198759766 115.9475)scale(0.16 -0.16)">
       <use transform="translate(0.0 0.715625)" xlink:href="#BitstreamVeraSans-Roman-31"/>
       <use transform="translate(63.623046875 0.715625)" xlink:href="#BitstreamVeraSans-Roman-30"/>
       <use transform="translate(132.75859375 47.965625)scale(0.7)" xlink:href="#BitstreamVeraSans-Roman-37"/>
      </g>
     </g>
    </g>
    <g id="ytick_9">
     <g id="line2d_57">
      <defs>
       <path d="M 0 0 
L 2 0 
" id="m15e43283fa" style="stroke:#000000;stroke-width:0.5;"/>
      </defs>
      <g>
       <use style="stroke:#000000;stroke-width:0.5;" x="76.2798759766" xlink:href="#m15e43283fa" y="612.26"/>
      </g>
     </g>
     <g id="line2d_58">
      <defs>
       <path d="M 0 0 
L -2 0 
" id="md2c81425d4" style="stroke:#000000;stroke-width:0.5;"/>
      </defs>
      <g>
       <use style="stroke:#000000;stroke-width:0.5;" x="1073.52" xlink:href="#md2c81425d4" y="612.26"/>
      </g>
     </g>
    </g>
    <g id="ytick_10">
     <g id="line2d_59">
      <g>
       <use style="stroke:#000000;stroke-width:0.5;" x="76.2798759766" xlink:href="#m15e43283fa" y="533.96859375"/>
      </g>
     </g>
     <g id="line2d_60">
      <g>
       <use style="stroke:#000000;stroke-width:0.5;" x="1073.52" xlink:href="#md2c81425d4" y="533.96859375"/>
      </g>
     </g>
    </g>
    <g id="ytick_11">
     <g id="line2d_61">
      <g>
       <use style="stroke:#000000;stroke-width:0.5;" x="76.2798759766" xlink:href="#m15e43283fa" y="463.506328125"/>
      </g>
     </g>
     <g id="line2d_62">
      <g>
       <use style="stroke:#000000;stroke-width:0.5;" x="1073.52" xlink:href="#md2c81425d4" y="463.506328125"/>
      </g>
     </g>
    </g>
    <g id="ytick_12">
     <g id="line2d_63">
      <g>
       <use style="stroke:#000000;stroke-width:0.5;" x="76.2798759766" xlink:href="#m15e43283fa" y="393.0440625"/>
      </g>
     </g>
     <g id="line2d_64">
      <g>
       <use style="stroke:#000000;stroke-width:0.5;" x="1073.52" xlink:href="#md2c81425d4" y="393.0440625"/>
      </g>
     </g>
    </g>
    <g id="ytick_13">
     <g id="line2d_65">
      <g>
       <use style="stroke:#000000;stroke-width:0.5;" x="76.2798759766" xlink:href="#m15e43283fa" y="322.581796875"/>
      </g>
     </g>
     <g id="line2d_66">
      <g>
       <use style="stroke:#000000;stroke-width:0.5;" x="1073.52" xlink:href="#md2c81425d4" y="322.581796875"/>
      </g>
     </g>
    </g>
    <g id="ytick_14">
     <g id="line2d_67">
      <g>
       <use style="stroke:#000000;stroke-width:0.5;" x="76.2798759766" xlink:href="#m15e43283fa" y="252.11953125"/>
      </g>
     </g>
     <g id="line2d_68">
      <g>
       <use style="stroke:#000000;stroke-width:0.5;" x="1073.52" xlink:href="#md2c81425d4" y="252.11953125"/>
      </g>
     </g>
    </g>
    <g id="ytick_15">
     <g id="line2d_69">
      <g>
       <use style="stroke:#000000;stroke-width:0.5;" x="76.2798759766" xlink:href="#m15e43283fa" y="181.657265625"/>
      </g>
     </g>
     <g id="line2d_70">
      <g>
       <use style="stroke:#000000;stroke-width:0.5;" x="1073.52" xlink:href="#md2c81425d4" y="181.657265625"/>
      </g>
     </g>
    </g>
    <g id="ytick_16">
     <g id="line2d_71">
      <g>
       <use style="stroke:#000000;stroke-width:0.5;" x="76.2798759766" xlink:href="#m15e43283fa" y="111.195"/>
      </g>
     </g>
     <g id="line2d_72">
      <g>
       <use style="stroke:#000000;stroke-width:0.5;" x="1073.52" xlink:href="#md2c81425d4" y="111.195"/>
      </g>
     </g>
    </g>
    <g id="text_30">
     <!-- Number of Matched Triples -->
     <defs>
      <path id="BitstreamVeraSans-Roman-20"/>
      <path d="M 9.8125 72.90625 
L 23.09375 72.90625 
L 55.421875 11.921875 
L 55.421875 72.90625 
L 64.984375 72.90625 
L 64.984375 0 
L 51.703125 0 
L 19.390625 60.984375 
L 19.390625 0 
L 9.8125 0 
z
" id="BitstreamVeraSans-Roman-4e"/>
      <path d="M 37.109375 75.984375 
L 37.109375 68.5 
L 28.515625 68.5 
Q 23.6875 68.5 21.796875 66.546875 
Q 19.921875 64.59375 19.921875 59.515625 
L 19.921875 54.6875 
L 34.71875 54.6875 
L 34.71875 47.703125 
L 19.921875 47.703125 
L 19.921875 0 
L 10.890625 0 
L 10.890625 47.703125 
L 2.296875 47.703125 
L 2.296875 54.6875 
L 10.890625 54.6875 
L 10.890625 58.5 
Q 10.890625 67.625 15.140625 71.796875 
Q 19.390625 75.984375 28.609375 75.984375 
z
" id="BitstreamVeraSans-Roman-66"/>
      <path d="M 18.109375 8.203125 
L 18.109375 -20.796875 
L 9.078125 -20.796875 
L 9.078125 54.6875 
L 18.109375 54.6875 
L 18.109375 46.390625 
Q 20.953125 51.265625 25.265625 53.625 
Q 29.59375 56 35.59375 56 
Q 45.5625 56 51.78125 48.09375 
Q 58.015625 40.1875 58.015625 27.296875 
Q 58.015625 14.40625 51.78125 6.484375 
Q 45.5625 -1.421875 35.59375 -1.421875 
Q 29.59375 -1.421875 25.265625 0.953125 
Q 20.953125 3.328125 18.109375 8.203125 
M 48.6875 27.296875 
Q 48.6875 37.203125 44.609375 42.84375 
Q 40.53125 48.484375 33.40625 48.484375 
Q 26.265625 48.484375 22.1875 42.84375 
Q 18.109375 37.203125 18.109375 27.296875 
Q 18.109375 17.390625 22.1875 11.75 
Q 26.265625 6.109375 33.40625 6.109375 
Q 40.53125 6.109375 44.609375 11.75 
Q 48.6875 17.390625 48.6875 27.296875 
" id="BitstreamVeraSans-Roman-70"/>
      <path d="M 52 44.1875 
Q 55.375 50.25 60.0625 53.125 
Q 64.75 56 71.09375 56 
Q 79.640625 56 84.28125 50.015625 
Q 88.921875 44.046875 88.921875 33.015625 
L 88.921875 0 
L 79.890625 0 
L 79.890625 32.71875 
Q 79.890625 40.578125 77.09375 44.375 
Q 74.3125 48.1875 68.609375 48.1875 
Q 61.625 48.1875 57.5625 43.546875 
Q 53.515625 38.921875 53.515625 30.90625 
L 53.515625 0 
L 44.484375 0 
L 44.484375 32.71875 
Q 44.484375 40.625 41.703125 44.40625 
Q 38.921875 48.1875 33.109375 48.1875 
Q 26.21875 48.1875 22.15625 43.53125 
Q 18.109375 38.875 18.109375 30.90625 
L 18.109375 0 
L 9.078125 0 
L 9.078125 54.6875 
L 18.109375 54.6875 
L 18.109375 46.1875 
Q 21.1875 51.21875 25.484375 53.609375 
Q 29.78125 56 35.6875 56 
Q 41.65625 56 45.828125 52.96875 
Q 50 49.953125 52 44.1875 
" id="BitstreamVeraSans-Roman-6d"/>
      <path d="M 9.421875 54.6875 
L 18.40625 54.6875 
L 18.40625 0 
L 9.421875 0 
z
M 9.421875 75.984375 
L 18.40625 75.984375 
L 18.40625 64.59375 
L 9.421875 64.59375 
z
" id="BitstreamVeraSans-Roman-69"/>
      <path d="M 30.609375 48.390625 
Q 23.390625 48.390625 19.1875 42.75 
Q 14.984375 37.109375 14.984375 27.296875 
Q 14.984375 17.484375 19.15625 11.84375 
Q 23.34375 6.203125 30.609375 6.203125 
Q 37.796875 6.203125 41.984375 11.859375 
Q 46.1875 17.53125 46.1875 27.296875 
Q 46.1875 37.015625 41.984375 42.703125 
Q 37.796875 48.390625 30.609375 48.390625 
M 30.609375 56 
Q 42.328125 56 49.015625 48.375 
Q 55.71875 40.765625 55.71875 27.296875 
Q 55.71875 13.875 49.015625 6.21875 
Q 42.328125 -1.421875 30.609375 -1.421875 
Q 18.84375 -1.421875 12.171875 6.21875 
Q 5.515625 13.875 5.515625 27.296875 
Q 5.515625 40.765625 12.171875 48.375 
Q 18.84375 56 30.609375 56 
" id="BitstreamVeraSans-Roman-6f"/>
      <path d="M 9.8125 72.90625 
L 24.515625 72.90625 
L 43.109375 23.296875 
L 61.8125 72.90625 
L 76.515625 72.90625 
L 76.515625 0 
L 66.890625 0 
L 66.890625 64.015625 
L 48.09375 14.015625 
L 38.1875 14.015625 
L 19.390625 64.015625 
L 19.390625 0 
L 9.8125 0 
z
" id="BitstreamVeraSans-Roman-4d"/>
      <path d="M -0.296875 72.90625 
L 61.375 72.90625 
L 61.375 64.59375 
L 35.5 64.59375 
L 35.5 0 
L 25.59375 0 
L 25.59375 64.59375 
L -0.296875 64.59375 
z
" id="BitstreamVeraSans-Roman-54"/>
      <path d="M 54.890625 33.015625 
L 54.890625 0 
L 45.90625 0 
L 45.90625 32.71875 
Q 45.90625 40.484375 42.875 44.328125 
Q 39.84375 48.1875 33.796875 48.1875 
Q 26.515625 48.1875 22.3125 43.546875 
Q 18.109375 38.921875 18.109375 30.90625 
L 18.109375 0 
L 9.078125 0 
L 9.078125 75.984375 
L 18.109375 75.984375 
L 18.109375 46.1875 
Q 21.34375 51.125 25.703125 53.5625 
Q 30.078125 56 35.796875 56 
Q 45.21875 56 50.046875 50.171875 
Q 54.890625 44.34375 54.890625 33.015625 
" id="BitstreamVeraSans-Roman-68"/>
      <path d="M 45.40625 46.390625 
L 45.40625 75.984375 
L 54.390625 75.984375 
L 54.390625 0 
L 45.40625 0 
L 45.40625 8.203125 
Q 42.578125 3.328125 38.25 0.953125 
Q 33.9375 -1.421875 27.875 -1.421875 
Q 17.96875 -1.421875 11.734375 6.484375 
Q 5.515625 14.40625 5.515625 27.296875 
Q 5.515625 40.1875 11.734375 48.09375 
Q 17.96875 56 27.875 56 
Q 33.9375 56 38.25 53.625 
Q 42.578125 51.265625 45.40625 46.390625 
M 14.796875 27.296875 
Q 14.796875 17.390625 18.875 11.75 
Q 22.953125 6.109375 30.078125 6.109375 
Q 37.203125 6.109375 41.296875 11.75 
Q 45.40625 17.390625 45.40625 27.296875 
Q 45.40625 37.203125 41.296875 42.84375 
Q 37.203125 48.484375 30.078125 48.484375 
Q 22.953125 48.484375 18.875 42.84375 
Q 14.796875 37.203125 14.796875 27.296875 
" id="BitstreamVeraSans-Roman-64"/>
      <path d="M 18.3125 70.21875 
L 18.3125 54.6875 
L 36.8125 54.6875 
L 36.8125 47.703125 
L 18.3125 47.703125 
L 18.3125 18.015625 
Q 18.3125 11.328125 20.140625 9.421875 
Q 21.96875 7.515625 27.59375 7.515625 
L 36.8125 7.515625 
L 36.8125 0 
L 27.59375 0 
Q 17.1875 0 13.234375 3.875 
Q 9.28125 7.765625 9.28125 18.015625 
L 9.28125 47.703125 
L 2.6875 47.703125 
L 2.6875 54.6875 
L 9.28125 54.6875 
L 9.28125 70.21875 
z
" id="BitstreamVeraSans-Roman-74"/>
      <path d="M 8.5 21.578125 
L 8.5 54.6875 
L 17.484375 54.6875 
L 17.484375 21.921875 
Q 17.484375 14.15625 20.5 10.265625 
Q 23.53125 6.390625 29.59375 6.390625 
Q 36.859375 6.390625 41.078125 11.03125 
Q 45.3125 15.671875 45.3125 23.6875 
L 45.3125 54.6875 
L 54.296875 54.6875 
L 54.296875 0 
L 45.3125 0 
L 45.3125 8.40625 
Q 42.046875 3.421875 37.71875 1 
Q 33.40625 -1.421875 27.6875 -1.421875 
Q 18.265625 -1.421875 13.375 4.4375 
Q 8.5 10.296875 8.5 21.578125 
" id="BitstreamVeraSans-Roman-75"/>
      <path d="M 41.109375 46.296875 
Q 39.59375 47.171875 37.8125 47.578125 
Q 36.03125 48 33.890625 48 
Q 26.265625 48 22.1875 43.046875 
Q 18.109375 38.09375 18.109375 28.8125 
L 18.109375 0 
L 9.078125 0 
L 9.078125 54.6875 
L 18.109375 54.6875 
L 18.109375 46.1875 
Q 20.953125 51.171875 25.484375 53.578125 
Q 30.03125 56 36.53125 56 
Q 37.453125 56 38.578125 55.875 
Q 39.703125 55.765625 41.0625 55.515625 
z
" id="BitstreamVeraSans-Roman-72"/>
      <path d="M 48.78125 52.59375 
L 48.78125 44.1875 
Q 44.96875 46.296875 41.140625 47.34375 
Q 37.3125 48.390625 33.40625 48.390625 
Q 24.65625 48.390625 19.8125 42.84375 
Q 14.984375 37.3125 14.984375 27.296875 
Q 14.984375 17.28125 19.8125 11.734375 
Q 24.65625 6.203125 33.40625 6.203125 
Q 37.3125 6.203125 41.140625 7.25 
Q 44.96875 8.296875 48.78125 10.40625 
L 48.78125 2.09375 
Q 45.015625 0.34375 40.984375 -0.53125 
Q 36.96875 -1.421875 32.421875 -1.421875 
Q 20.0625 -1.421875 12.78125 6.34375 
Q 5.515625 14.109375 5.515625 27.296875 
Q 5.515625 40.671875 12.859375 48.328125 
Q 20.21875 56 33.015625 56 
Q 37.15625 56 41.109375 55.140625 
Q 45.0625 54.296875 48.78125 52.59375 
" id="BitstreamVeraSans-Roman-63"/>
      <path d="M 48.6875 27.296875 
Q 48.6875 37.203125 44.609375 42.84375 
Q 40.53125 48.484375 33.40625 48.484375 
Q 26.265625 48.484375 22.1875 42.84375 
Q 18.109375 37.203125 18.109375 27.296875 
Q 18.109375 17.390625 22.1875 11.75 
Q 26.265625 6.109375 33.40625 6.109375 
Q 40.53125 6.109375 44.609375 11.75 
Q 48.6875 17.390625 48.6875 27.296875 
M 18.109375 46.390625 
Q 20.953125 51.265625 25.265625 53.625 
Q 29.59375 56 35.59375 56 
Q 45.5625 56 51.78125 48.09375 
Q 58.015625 40.1875 58.015625 27.296875 
Q 58.015625 14.40625 51.78125 6.484375 
Q 45.5625 -1.421875 35.59375 -1.421875 
Q 29.59375 -1.421875 25.265625 0.953125 
Q 20.953125 3.328125 18.109375 8.203125 
L 18.109375 0 
L 9.078125 0 
L 9.078125 75.984375 
L 18.109375 75.984375 
z
" id="BitstreamVeraSans-Roman-62"/>
     </defs>
     <g transform="translate(19.7758759766 470.38625)rotate(-90.0)scale(0.16 -0.16)">
      <use xlink:href="#BitstreamVeraSans-Roman-4e"/>
      <use x="74.8046875" xlink:href="#BitstreamVeraSans-Roman-75"/>
      <use x="138.18359375" xlink:href="#BitstreamVeraSans-Roman-6d"/>
      <use x="235.595703125" xlink:href="#BitstreamVeraSans-Roman-62"/>
      <use x="299.072265625" xlink:href="#BitstreamVeraSans-Roman-65"/>
      <use x="360.595703125" xlink:href="#BitstreamVeraSans-Roman-72"/>
      <use x="401.708984375" xlink:href="#BitstreamVeraSans-Roman-20"/>
      <use x="433.49609375" xlink:href="#BitstreamVeraSans-Roman-6f"/>
      <use x="494.677734375" xlink:href="#BitstreamVeraSans-Roman-66"/>
      <use x="529.8828125" xlink:href="#BitstreamVeraSans-Roman-20"/>
      <use x="561.669921875" xlink:href="#BitstreamVeraSans-Roman-4d"/>
      <use x="647.94921875" xlink:href="#BitstreamVeraSans-Roman-61"/>
      <use x="709.228515625" xlink:href="#BitstreamVeraSans-Roman-74"/>
      <use x="748.4375" xlink:href="#BitstreamVeraSans-Roman-63"/>
      <use x="803.41796875" xlink:href="#BitstreamVeraSans-Roman-68"/>
      <use x="866.796875" xlink:href="#BitstreamVeraSans-Roman-65"/>
      <use x="928.3203125" xlink:href="#BitstreamVeraSans-Roman-64"/>
      <use x="991.796875" xlink:href="#BitstreamVeraSans-Roman-20"/>
      <use x="1023.58398438" xlink:href="#BitstreamVeraSans-Roman-54"/>
      <use x="1084.44921875" xlink:href="#BitstreamVeraSans-Roman-72"/>
      <use x="1125.5625" xlink:href="#BitstreamVeraSans-Roman-69"/>
      <use x="1153.34570312" xlink:href="#BitstreamVeraSans-Roman-70"/>
      <use x="1216.82226562" xlink:href="#BitstreamVeraSans-Roman-6c"/>
      <use x="1244.60546875" xlink:href="#BitstreamVeraSans-Roman-65"/>
      <use x="1306.12890625" xlink:href="#BitstreamVeraSans-Roman-73"/>
     </g>
     <!-- (log-scale) -->
     <defs>
      <path d="M 8.015625 75.875 
L 15.828125 75.875 
Q 23.140625 64.359375 26.78125 53.3125 
Q 30.421875 42.28125 30.421875 31.390625 
Q 30.421875 20.453125 26.78125 9.375 
Q 23.140625 -1.703125 15.828125 -13.1875 
L 8.015625 -13.1875 
Q 14.5 -2 17.703125 9.0625 
Q 20.90625 20.125 20.90625 31.390625 
Q 20.90625 42.671875 17.703125 53.65625 
Q 14.5 64.65625 8.015625 75.875 
" id="BitstreamVeraSans-Roman-29"/>
      <path d="M 31 75.875 
Q 24.46875 64.65625 21.28125 53.65625 
Q 18.109375 42.671875 18.109375 31.390625 
Q 18.109375 20.125 21.3125 9.0625 
Q 24.515625 -2 31 -13.1875 
L 23.1875 -13.1875 
Q 15.875 -1.703125 12.234375 9.375 
Q 8.59375 20.453125 8.59375 31.390625 
Q 8.59375 42.28125 12.203125 53.3125 
Q 15.828125 64.359375 23.1875 75.875 
z
" id="BitstreamVeraSans-Roman-28"/>
      <path d="M 45.40625 27.984375 
Q 45.40625 37.75 41.375 43.109375 
Q 37.359375 48.484375 30.078125 48.484375 
Q 22.859375 48.484375 18.828125 43.109375 
Q 14.796875 37.75 14.796875 27.984375 
Q 14.796875 18.265625 18.828125 12.890625 
Q 22.859375 7.515625 30.078125 7.515625 
Q 37.359375 7.515625 41.375 12.890625 
Q 45.40625 18.265625 45.40625 27.984375 
M 54.390625 6.78125 
Q 54.390625 -7.171875 48.1875 -13.984375 
Q 42 -20.796875 29.203125 -20.796875 
Q 24.46875 -20.796875 20.265625 -20.09375 
Q 16.0625 -19.390625 12.109375 -17.921875 
L 12.109375 -9.1875 
Q 16.0625 -11.328125 19.921875 -12.34375 
Q 23.78125 -13.375 27.78125 -13.375 
Q 36.625 -13.375 41.015625 -8.765625 
Q 45.40625 -4.15625 45.40625 5.171875 
L 45.40625 9.625 
Q 42.625 4.78125 38.28125 2.390625 
Q 33.9375 0 27.875 0 
Q 17.828125 0 11.671875 7.65625 
Q 5.515625 15.328125 5.515625 27.984375 
Q 5.515625 40.671875 11.671875 48.328125 
Q 17.828125 56 27.875 56 
Q 33.9375 56 38.28125 53.609375 
Q 42.625 51.21875 45.40625 46.390625 
L 45.40625 54.6875 
L 54.390625 54.6875 
z
" id="BitstreamVeraSans-Roman-67"/>
      <path d="M 4.890625 31.390625 
L 31.203125 31.390625 
L 31.203125 23.390625 
L 4.890625 23.390625 
z
" id="BitstreamVeraSans-Roman-2d"/>
     </defs>
     <g transform="translate(37.6923759766 403.66625)rotate(-90.0)scale(0.16 -0.16)">
      <use xlink:href="#BitstreamVeraSans-Roman-28"/>
      <use x="39.013671875" xlink:href="#BitstreamVeraSans-Roman-6c"/>
      <use x="66.796875" xlink:href="#BitstreamVeraSans-Roman-6f"/>
      <use x="127.978515625" xlink:href="#BitstreamVeraSans-Roman-67"/>
      <use x="191.455078125" xlink:href="#BitstreamVeraSans-Roman-2d"/>
      <use x="227.5390625" xlink:href="#BitstreamVeraSans-Roman-73"/>
      <use x="279.638671875" xlink:href="#BitstreamVeraSans-Roman-63"/>
      <use x="334.619140625" xlink:href="#BitstreamVeraSans-Roman-61"/>
      <use x="395.8984375" xlink:href="#BitstreamVeraSans-Roman-6c"/>
      <use x="423.681640625" xlink:href="#BitstreamVeraSans-Roman-65"/>
      <use x="485.205078125" xlink:href="#BitstreamVeraSans-Roman-29"/>
     </g>
    </g>
   </g>
   <g id="legend_1">
    <g id="patch_147">
     <path d="M 76.279876 106.18435 
L 1073.52 106.18435 
L 1073.52 24.17635 
L 76.279876 24.17635 
z
" style="fill:#ffffff;stroke:#000000;stroke-linejoin:miter;"/>
    </g>
    <g id="patch_148">
     <path d="M 80.119876 42.60535 
L 108.919876 42.60535 
L 108.919876 29.16535 
L 80.119876 29.16535 
z
" style="fill:#000080;stroke:#000000;stroke-linejoin:miter;stroke-width:0.5;"/>
    </g>
    <g id="text_31">
     <!-- so #tp=2 #ds=1 sel=0.001 -->
     <defs>
      <path d="M 51.125 44 
L 36.921875 44 
L 32.8125 27.6875 
L 47.125 27.6875 
z
M 43.796875 71.78125 
L 38.71875 51.515625 
L 52.984375 51.515625 
L 58.109375 71.78125 
L 65.921875 71.78125 
L 60.890625 51.515625 
L 76.125 51.515625 
L 76.125 44 
L 58.984375 44 
L 54.984375 27.6875 
L 70.515625 27.6875 
L 70.515625 20.21875 
L 53.078125 20.21875 
L 48 0 
L 40.1875 0 
L 45.21875 20.21875 
L 30.90625 20.21875 
L 25.875 0 
L 18.015625 0 
L 23.09375 20.21875 
L 7.71875 20.21875 
L 7.71875 27.6875 
L 24.90625 27.6875 
L 29 44 
L 13.28125 44 
L 13.28125 51.515625 
L 30.90625 51.515625 
L 35.890625 71.78125 
z
" id="BitstreamVeraSans-Roman-23"/>
      <path d="M 10.6875 12.40625 
L 21 12.40625 
L 21 0 
L 10.6875 0 
z
" id="BitstreamVeraSans-Roman-2e"/>
      <path d="M 10.59375 45.40625 
L 73.1875 45.40625 
L 73.1875 37.203125 
L 10.59375 37.203125 
z
M 10.59375 25.484375 
L 73.1875 25.484375 
L 73.1875 17.1875 
L 10.59375 17.1875 
z
" id="BitstreamVeraSans-Roman-3d"/>
     </defs>
     <g transform="translate(112.759875977 42.60535)scale(0.192 -0.192)">
      <use xlink:href="#BitstreamVeraSans-Roman-73"/>
      <use x="52.099609375" xlink:href="#BitstreamVeraSans-Roman-6f"/>
      <use x="113.28125" xlink:href="#BitstreamVeraSans-Roman-20"/>
      <use x="145.068359375" xlink:href="#BitstreamVeraSans-Roman-23"/>
      <use x="228.857421875" xlink:href="#BitstreamVeraSans-Roman-74"/>
      <use x="268.06640625" xlink:href="#BitstreamVeraSans-Roman-70"/>
      <use x="331.54296875" xlink:href="#BitstreamVeraSans-Roman-3d"/>
      <use x="415.33203125" xlink:href="#BitstreamVeraSans-Roman-32"/>
      <use x="478.955078125" xlink:href="#BitstreamVeraSans-Roman-20"/>
      <use x="510.7421875" xlink:href="#BitstreamVeraSans-Roman-23"/>
      <use x="594.53125" xlink:href="#BitstreamVeraSans-Roman-64"/>
      <use x="658.0078125" xlink:href="#BitstreamVeraSans-Roman-73"/>
      <use x="710.107421875" xlink:href="#BitstreamVeraSans-Roman-3d"/>
      <use x="793.896484375" xlink:href="#BitstreamVeraSans-Roman-31"/>
      <use x="857.51953125" xlink:href="#BitstreamVeraSans-Roman-20"/>
      <use x="889.306640625" xlink:href="#BitstreamVeraSans-Roman-73"/>
      <use x="941.40625" xlink:href="#BitstreamVeraSans-Roman-65"/>
      <use x="1002.9296875" xlink:href="#BitstreamVeraSans-Roman-6c"/>
      <use x="1030.71289062" xlink:href="#BitstreamVeraSans-Roman-3d"/>
      <use x="1114.50195312" xlink:href="#BitstreamVeraSans-Roman-30"/>
      <use x="1178.125" xlink:href="#BitstreamVeraSans-Roman-2e"/>
      <use x="1209.91210938" xlink:href="#BitstreamVeraSans-Roman-30"/>
      <use x="1273.53515625" xlink:href="#BitstreamVeraSans-Roman-30"/>
      <use x="1337.15820312" xlink:href="#BitstreamVeraSans-Roman-31"/>
     </g>
    </g>
    <g id="patch_149">
     <path d="M 80.119876 61.18735 
L 108.919876 61.18735 
L 108.919876 47.74735 
L 80.119876 47.74735 
z
" style="fill:#009bff;stroke:#000000;stroke-linejoin:miter;stroke-width:0.5;"/>
    </g>
    <g id="text_32">
     <!-- so #tp=2 #ds=1 sel=0.01 -->
     <g transform="translate(112.759875977 61.18735)scale(0.192 -0.192)">
      <use xlink:href="#BitstreamVeraSans-Roman-73"/>
      <use x="52.099609375" xlink:href="#BitstreamVeraSans-Roman-6f"/>
      <use x="113.28125" xlink:href="#BitstreamVeraSans-Roman-20"/>
      <use x="145.068359375" xlink:href="#BitstreamVeraSans-Roman-23"/>
      <use x="228.857421875" xlink:href="#BitstreamVeraSans-Roman-74"/>
      <use x="268.06640625" xlink:href="#BitstreamVeraSans-Roman-70"/>
      <use x="331.54296875" xlink:href="#BitstreamVeraSans-Roman-3d"/>
      <use x="415.33203125" xlink:href="#BitstreamVeraSans-Roman-32"/>
      <use x="478.955078125" xlink:href="#BitstreamVeraSans-Roman-20"/>
      <use x="510.7421875" xlink:href="#BitstreamVeraSans-Roman-23"/>
      <use x="594.53125" xlink:href="#BitstreamVeraSans-Roman-64"/>
      <use x="658.0078125" xlink:href="#BitstreamVeraSans-Roman-73"/>
      <use x="710.107421875" xlink:href="#BitstreamVeraSans-Roman-3d"/>
      <use x="793.896484375" xlink:href="#BitstreamVeraSans-Roman-31"/>
      <use x="857.51953125" xlink:href="#BitstreamVeraSans-Roman-20"/>
      <use x="889.306640625" xlink:href="#BitstreamVeraSans-Roman-73"/>
      <use x="941.40625" xlink:href="#BitstreamVeraSans-Roman-65"/>
      <use x="1002.9296875" xlink:href="#BitstreamVeraSans-Roman-6c"/>
      <use x="1030.71289062" xlink:href="#BitstreamVeraSans-Roman-3d"/>
      <use x="1114.50195312" xlink:href="#BitstreamVeraSans-Roman-30"/>
      <use x="1178.125" xlink:href="#BitstreamVeraSans-Roman-2e"/>
      <use x="1209.91210938" xlink:href="#BitstreamVeraSans-Roman-30"/>
      <use x="1273.53515625" xlink:href="#BitstreamVeraSans-Roman-31"/>
     </g>
    </g>
    <g id="patch_150">
     <path d="M 80.119876 79.76935 
L 108.919876 79.76935 
L 108.919876 66.32935 
L 80.119876 66.32935 
z
" style="fill:#00fd3f;stroke:#000000;stroke-linejoin:miter;stroke-width:0.5;"/>
    </g>
    <g id="text_33">
     <!-- so #tp=8 #ds=1 sel=0.001 -->
     <g transform="translate(112.759875977 79.76935)scale(0.192 -0.192)">
      <use xlink:href="#BitstreamVeraSans-Roman-73"/>
      <use x="52.099609375" xlink:href="#BitstreamVeraSans-Roman-6f"/>
      <use x="113.28125" xlink:href="#BitstreamVeraSans-Roman-20"/>
      <use x="145.068359375" xlink:href="#BitstreamVeraSans-Roman-23"/>
      <use x="228.857421875" xlink:href="#BitstreamVeraSans-Roman-74"/>
      <use x="268.06640625" xlink:href="#BitstreamVeraSans-Roman-70"/>
      <use x="331.54296875" xlink:href="#BitstreamVeraSans-Roman-3d"/>
      <use x="415.33203125" xlink:href="#BitstreamVeraSans-Roman-38"/>
      <use x="478.955078125" xlink:href="#BitstreamVeraSans-Roman-20"/>
      <use x="510.7421875" xlink:href="#BitstreamVeraSans-Roman-23"/>
      <use x="594.53125" xlink:href="#BitstreamVeraSans-Roman-64"/>
      <use x="658.0078125" xlink:href="#BitstreamVeraSans-Roman-73"/>
      <use x="710.107421875" xlink:href="#BitstreamVeraSans-Roman-3d"/>
      <use x="793.896484375" xlink:href="#BitstreamVeraSans-Roman-31"/>
      <use x="857.51953125" xlink:href="#BitstreamVeraSans-Roman-20"/>
      <use x="889.306640625" xlink:href="#BitstreamVeraSans-Roman-73"/>
      <use x="941.40625" xlink:href="#BitstreamVeraSans-Roman-65"/>
      <use x="1002.9296875" xlink:href="#BitstreamVeraSans-Roman-6c"/>
      <use x="1030.71289062" xlink:href="#BitstreamVeraSans-Roman-3d"/>
      <use x="1114.50195312" xlink:href="#BitstreamVeraSans-Roman-30"/>
      <use x="1178.125" xlink:href="#BitstreamVeraSans-Roman-2e"/>
      <use x="1209.91210938" xlink:href="#BitstreamVeraSans-Roman-30"/>
      <use x="1273.53515625" xlink:href="#BitstreamVeraSans-Roman-30"/>
      <use x="1337.15820312" xlink:href="#BitstreamVeraSans-Roman-31"/>
     </g>
    </g>
    <g id="patch_151">
     <path d="M 80.119876 98.35135 
L 108.919876 98.35135 
L 108.919876 84.91135 
L 80.119876 84.91135 
z
" style="fill:#9fff24;stroke:#000000;stroke-linejoin:miter;stroke-width:0.5;"/>
    </g>
    <g id="text_34">
     <!-- so #tp=8 #ds=1 sel=0.01 -->
     <g transform="translate(112.759875977 98.35135)scale(0.192 -0.192)">
      <use xlink:href="#BitstreamVeraSans-Roman-73"/>
      <use x="52.099609375" xlink:href="#BitstreamVeraSans-Roman-6f"/>
      <use x="113.28125" xlink:href="#BitstreamVeraSans-Roman-20"/>
      <use x="145.068359375" xlink:href="#BitstreamVeraSans-Roman-23"/>
      <use x="228.857421875" xlink:href="#BitstreamVeraSans-Roman-74"/>
      <use x="268.06640625" xlink:href="#BitstreamVeraSans-Roman-70"/>
      <use x="331.54296875" xlink:href="#BitstreamVeraSans-Roman-3d"/>
      <use x="415.33203125" xlink:href="#BitstreamVeraSans-Roman-38"/>
      <use x="478.955078125" xlink:href="#BitstreamVeraSans-Roman-20"/>
      <use x="510.7421875" xlink:href="#BitstreamVeraSans-Roman-23"/>
      <use x="594.53125" xlink:href="#BitstreamVeraSans-Roman-64"/>
      <use x="658.0078125" xlink:href="#BitstreamVeraSans-Roman-73"/>
      <use x="710.107421875" xlink:href="#BitstreamVeraSans-Roman-3d"/>
      <use x="793.896484375" xlink:href="#BitstreamVeraSans-Roman-31"/>
      <use x="857.51953125" xlink:href="#BitstreamVeraSans-Roman-20"/>
      <use x="889.306640625" xlink:href="#BitstreamVeraSans-Roman-73"/>
      <use x="941.40625" xlink:href="#BitstreamVeraSans-Roman-65"/>
      <use x="1002.9296875" xlink:href="#BitstreamVeraSans-Roman-6c"/>
      <use x="1030.71289062" xlink:href="#BitstreamVeraSans-Roman-3d"/>
      <use x="1114.50195312" xlink:href="#BitstreamVeraSans-Roman-30"/>
      <use x="1178.125" xlink:href="#BitstreamVeraSans-Roman-2e"/>
      <use x="1209.91210938" xlink:href="#BitstreamVeraSans-Roman-30"/>
      <use x="1273.53515625" xlink:href="#BitstreamVeraSans-Roman-31"/>
     </g>
    </g>
    <g id="patch_152">
     <path d="M 780.3 42.60535 
L 809.1 42.60535 
L 809.1 29.16535 
L 780.3 29.16535 
z
" style="fill:#ffce05;stroke:#000000;stroke-linejoin:miter;stroke-width:0.5;"/>
    </g>
    <g id="text_35">
     <!-- so #tp=8 #ds=3 sel=0.01 -->
     <g transform="translate(812.94 42.60535)scale(0.192 -0.192)">
      <use xlink:href="#BitstreamVeraSans-Roman-73"/>
      <use x="52.099609375" xlink:href="#BitstreamVeraSans-Roman-6f"/>
      <use x="113.28125" xlink:href="#BitstreamVeraSans-Roman-20"/>
      <use x="145.068359375" xlink:href="#BitstreamVeraSans-Roman-23"/>
      <use x="228.857421875" xlink:href="#BitstreamVeraSans-Roman-74"/>
      <use x="268.06640625" xlink:href="#BitstreamVeraSans-Roman-70"/>
      <use x="331.54296875" xlink:href="#BitstreamVeraSans-Roman-3d"/>
      <use x="415.33203125" xlink:href="#BitstreamVeraSans-Roman-38"/>
      <use x="478.955078125" xlink:href="#BitstreamVeraSans-Roman-20"/>
      <use x="510.7421875" xlink:href="#BitstreamVeraSans-Roman-23"/>
      <use x="594.53125" xlink:href="#BitstreamVeraSans-Roman-64"/>
      <use x="658.0078125" xlink:href="#BitstreamVeraSans-Roman-73"/>
      <use x="710.107421875" xlink:href="#BitstreamVeraSans-Roman-3d"/>
      <use x="793.896484375" xlink:href="#BitstreamVeraSans-Roman-33"/>
      <use x="857.51953125" xlink:href="#BitstreamVeraSans-Roman-20"/>
      <use x="889.306640625" xlink:href="#BitstreamVeraSans-Roman-73"/>
      <use x="941.40625" xlink:href="#BitstreamVeraSans-Roman-65"/>
      <use x="1002.9296875" xlink:href="#BitstreamVeraSans-Roman-6c"/>
      <use x="1030.71289062" xlink:href="#BitstreamVeraSans-Roman-3d"/>
      <use x="1114.50195312" xlink:href="#BitstreamVeraSans-Roman-30"/>
      <use x="1178.125" xlink:href="#BitstreamVeraSans-Roman-2e"/>
      <use x="1209.91210938" xlink:href="#BitstreamVeraSans-Roman-30"/>
      <use x="1273.53515625" xlink:href="#BitstreamVeraSans-Roman-31"/>
     </g>
    </g>
    <g id="patch_153">
     <path d="M 780.3 61.18735 
L 809.1 61.18735 
L 809.1 47.74735 
L 780.3 47.74735 
z
" style="fill:#ff0047;stroke:#000000;stroke-linejoin:miter;stroke-width:0.5;"/>
    </g>
    <g id="text_36">
     <!-- ss #tp=2 #ds=1 sel=0.01 -->
     <g transform="translate(812.94 61.18735)scale(0.192 -0.192)">
      <use xlink:href="#BitstreamVeraSans-Roman-73"/>
      <use x="52.099609375" xlink:href="#BitstreamVeraSans-Roman-73"/>
      <use x="104.19921875" xlink:href="#BitstreamVeraSans-Roman-20"/>
      <use x="135.986328125" xlink:href="#BitstreamVeraSans-Roman-23"/>
      <use x="219.775390625" xlink:href="#BitstreamVeraSans-Roman-74"/>
      <use x="258.984375" xlink:href="#BitstreamVeraSans-Roman-70"/>
      <use x="322.4609375" xlink:href="#BitstreamVeraSans-Roman-3d"/>
      <use x="406.25" xlink:href="#BitstreamVeraSans-Roman-32"/>
      <use x="469.873046875" xlink:href="#BitstreamVeraSans-Roman-20"/>
      <use x="501.66015625" xlink:href="#BitstreamVeraSans-Roman-23"/>
      <use x="585.44921875" xlink:href="#BitstreamVeraSans-Roman-64"/>
      <use x="648.92578125" xlink:href="#BitstreamVeraSans-Roman-73"/>
      <use x="701.025390625" xlink:href="#BitstreamVeraSans-Roman-3d"/>
      <use x="784.814453125" xlink:href="#BitstreamVeraSans-Roman-31"/>
      <use x="848.4375" xlink:href="#BitstreamVeraSans-Roman-20"/>
      <use x="880.224609375" xlink:href="#BitstreamVeraSans-Roman-73"/>
      <use x="932.32421875" xlink:href="#BitstreamVeraSans-Roman-65"/>
      <use x="993.84765625" xlink:href="#BitstreamVeraSans-Roman-6c"/>
      <use x="1021.63085938" xlink:href="#BitstreamVeraSans-Roman-3d"/>
      <use x="1105.41992188" xlink:href="#BitstreamVeraSans-Roman-30"/>
      <use x="1169.04296875" xlink:href="#BitstreamVeraSans-Roman-2e"/>
      <use x="1200.83007812" xlink:href="#BitstreamVeraSans-Roman-30"/>
      <use x="1264.453125" xlink:href="#BitstreamVeraSans-Roman-31"/>
     </g>
    </g>
    <g id="patch_154">
     <path d="M 780.3 79.76935 
L 809.1 79.76935 
L 809.1 66.32935 
L 780.3 66.32935 
z
" style="fill:#ec84ef;stroke:#000000;stroke-linejoin:miter;stroke-width:0.5;"/>
    </g>
    <g id="text_37">
     <!-- ss #tp=8 #ds=3 sel=0.01 -->
     <g transform="translate(812.94 79.76935)scale(0.192 -0.192)">
      <use xlink:href="#BitstreamVeraSans-Roman-73"/>
      <use x="52.099609375" xlink:href="#BitstreamVeraSans-Roman-73"/>
      <use x="104.19921875" xlink:href="#BitstreamVeraSans-Roman-20"/>
      <use x="135.986328125" xlink:href="#BitstreamVeraSans-Roman-23"/>
      <use x="219.775390625" xlink:href="#BitstreamVeraSans-Roman-74"/>
      <use x="258.984375" xlink:href="#BitstreamVeraSans-Roman-70"/>
      <use x="322.4609375" xlink:href="#BitstreamVeraSans-Roman-3d"/>
      <use x="406.25" xlink:href="#BitstreamVeraSans-Roman-38"/>
      <use x="469.873046875" xlink:href="#BitstreamVeraSans-Roman-20"/>
      <use x="501.66015625" xlink:href="#BitstreamVeraSans-Roman-23"/>
      <use x="585.44921875" xlink:href="#BitstreamVeraSans-Roman-64"/>
      <use x="648.92578125" xlink:href="#BitstreamVeraSans-Roman-73"/>
      <use x="701.025390625" xlink:href="#BitstreamVeraSans-Roman-3d"/>
      <use x="784.814453125" xlink:href="#BitstreamVeraSans-Roman-33"/>
      <use x="848.4375" xlink:href="#BitstreamVeraSans-Roman-20"/>
      <use x="880.224609375" xlink:href="#BitstreamVeraSans-Roman-73"/>
      <use x="932.32421875" xlink:href="#BitstreamVeraSans-Roman-65"/>
      <use x="993.84765625" xlink:href="#BitstreamVeraSans-Roman-6c"/>
      <use x="1021.63085938" xlink:href="#BitstreamVeraSans-Roman-3d"/>
      <use x="1105.41992188" xlink:href="#BitstreamVeraSans-Roman-30"/>
      <use x="1169.04296875" xlink:href="#BitstreamVeraSans-Roman-2e"/>
      <use x="1200.83007812" xlink:href="#BitstreamVeraSans-Roman-30"/>
      <use x="1264.453125" xlink:href="#BitstreamVeraSans-Roman-31"/>
     </g>
    </g>
   </g>
  </g>
 </g>
 <defs>
  <clipPath id="p438c23e6b5">
   <rect height="501.065" width="997.240124023" x="76.2798759766" y="111.195"/>
  </clipPath>
 </defs>
</svg>
